G04 #@! TF.GenerationSoftware,KiCad,Pcbnew,(5.1.6)-1*
G04 #@! TF.CreationDate,2020-10-12T10:23:52+03:00*
G04 #@! TF.ProjectId,STM32_ESP8266_devboard,53544d33-325f-4455-9350-383236365f64,rev?*
G04 #@! TF.SameCoordinates,Original*
G04 #@! TF.FileFunction,Legend,Top*
G04 #@! TF.FilePolarity,Positive*
%FSLAX46Y46*%
G04 Gerber Fmt 4.6, Leading zero omitted, Abs format (unit mm)*
G04 Created by KiCad (PCBNEW (5.1.6)-1) date 2020-10-12 10:23:52*
%MOMM*%
%LPD*%
G01*
G04 APERTURE LIST*
%ADD10C,0.200000*%
%ADD11C,0.300000*%
%ADD12C,0.150000*%
%ADD13C,0.120000*%
G04 APERTURE END LIST*
D10*
X199678857Y-133057714D02*
X198478857Y-133057714D01*
X198478857Y-132600571D01*
X198536000Y-132486285D01*
X198593142Y-132429142D01*
X198707428Y-132372000D01*
X198878857Y-132372000D01*
X198993142Y-132429142D01*
X199050285Y-132486285D01*
X199107428Y-132600571D01*
X199107428Y-133057714D01*
X199050285Y-131457714D02*
X199107428Y-131286285D01*
X199164571Y-131229142D01*
X199278857Y-131172000D01*
X199450285Y-131172000D01*
X199564571Y-131229142D01*
X199621714Y-131286285D01*
X199678857Y-131400571D01*
X199678857Y-131857714D01*
X198478857Y-131857714D01*
X198478857Y-131457714D01*
X198536000Y-131343428D01*
X198593142Y-131286285D01*
X198707428Y-131229142D01*
X198821714Y-131229142D01*
X198936000Y-131286285D01*
X198993142Y-131343428D01*
X199050285Y-131457714D01*
X199050285Y-131857714D01*
X198478857Y-130143428D02*
X198478857Y-130372000D01*
X198536000Y-130486285D01*
X198593142Y-130543428D01*
X198764571Y-130657714D01*
X198993142Y-130714857D01*
X199450285Y-130714857D01*
X199564571Y-130657714D01*
X199621714Y-130600571D01*
X199678857Y-130486285D01*
X199678857Y-130257714D01*
X199621714Y-130143428D01*
X199564571Y-130086285D01*
X199450285Y-130029142D01*
X199164571Y-130029142D01*
X199050285Y-130086285D01*
X198993142Y-130143428D01*
X198936000Y-130257714D01*
X198936000Y-130486285D01*
X198993142Y-130600571D01*
X199050285Y-130657714D01*
X199164571Y-130714857D01*
X197138857Y-133057714D02*
X195938857Y-133057714D01*
X195938857Y-132600571D01*
X195996000Y-132486285D01*
X196053142Y-132429142D01*
X196167428Y-132372000D01*
X196338857Y-132372000D01*
X196453142Y-132429142D01*
X196510285Y-132486285D01*
X196567428Y-132600571D01*
X196567428Y-133057714D01*
X196510285Y-131457714D02*
X196567428Y-131286285D01*
X196624571Y-131229142D01*
X196738857Y-131172000D01*
X196910285Y-131172000D01*
X197024571Y-131229142D01*
X197081714Y-131286285D01*
X197138857Y-131400571D01*
X197138857Y-131857714D01*
X195938857Y-131857714D01*
X195938857Y-131457714D01*
X195996000Y-131343428D01*
X196053142Y-131286285D01*
X196167428Y-131229142D01*
X196281714Y-131229142D01*
X196396000Y-131286285D01*
X196453142Y-131343428D01*
X196510285Y-131457714D01*
X196510285Y-131857714D01*
X195938857Y-130086285D02*
X195938857Y-130657714D01*
X196510285Y-130714857D01*
X196453142Y-130657714D01*
X196396000Y-130543428D01*
X196396000Y-130257714D01*
X196453142Y-130143428D01*
X196510285Y-130086285D01*
X196624571Y-130029142D01*
X196910285Y-130029142D01*
X197024571Y-130086285D01*
X197081714Y-130143428D01*
X197138857Y-130257714D01*
X197138857Y-130543428D01*
X197081714Y-130657714D01*
X197024571Y-130714857D01*
X194598857Y-133057714D02*
X193398857Y-133057714D01*
X193398857Y-132600571D01*
X193456000Y-132486285D01*
X193513142Y-132429142D01*
X193627428Y-132372000D01*
X193798857Y-132372000D01*
X193913142Y-132429142D01*
X193970285Y-132486285D01*
X194027428Y-132600571D01*
X194027428Y-133057714D01*
X193970285Y-131457714D02*
X194027428Y-131286285D01*
X194084571Y-131229142D01*
X194198857Y-131172000D01*
X194370285Y-131172000D01*
X194484571Y-131229142D01*
X194541714Y-131286285D01*
X194598857Y-131400571D01*
X194598857Y-131857714D01*
X193398857Y-131857714D01*
X193398857Y-131457714D01*
X193456000Y-131343428D01*
X193513142Y-131286285D01*
X193627428Y-131229142D01*
X193741714Y-131229142D01*
X193856000Y-131286285D01*
X193913142Y-131343428D01*
X193970285Y-131457714D01*
X193970285Y-131857714D01*
X193398857Y-130772000D02*
X193398857Y-130029142D01*
X193856000Y-130429142D01*
X193856000Y-130257714D01*
X193913142Y-130143428D01*
X193970285Y-130086285D01*
X194084571Y-130029142D01*
X194370285Y-130029142D01*
X194484571Y-130086285D01*
X194541714Y-130143428D01*
X194598857Y-130257714D01*
X194598857Y-130600571D01*
X194541714Y-130714857D01*
X194484571Y-130772000D01*
X192058857Y-133057714D02*
X190858857Y-133057714D01*
X190858857Y-132600571D01*
X190916000Y-132486285D01*
X190973142Y-132429142D01*
X191087428Y-132372000D01*
X191258857Y-132372000D01*
X191373142Y-132429142D01*
X191430285Y-132486285D01*
X191487428Y-132600571D01*
X191487428Y-133057714D01*
X191430285Y-131457714D02*
X191487428Y-131286285D01*
X191544571Y-131229142D01*
X191658857Y-131172000D01*
X191830285Y-131172000D01*
X191944571Y-131229142D01*
X192001714Y-131286285D01*
X192058857Y-131400571D01*
X192058857Y-131857714D01*
X190858857Y-131857714D01*
X190858857Y-131457714D01*
X190916000Y-131343428D01*
X190973142Y-131286285D01*
X191087428Y-131229142D01*
X191201714Y-131229142D01*
X191316000Y-131286285D01*
X191373142Y-131343428D01*
X191430285Y-131457714D01*
X191430285Y-131857714D01*
X191258857Y-130143428D02*
X192058857Y-130143428D01*
X190801714Y-130429142D02*
X191658857Y-130714857D01*
X191658857Y-129972000D01*
X189518857Y-133121142D02*
X188318857Y-133121142D01*
X188318857Y-132664000D01*
X188376000Y-132549714D01*
X188433142Y-132492571D01*
X188547428Y-132435428D01*
X188718857Y-132435428D01*
X188833142Y-132492571D01*
X188890285Y-132549714D01*
X188947428Y-132664000D01*
X188947428Y-133121142D01*
X188890285Y-131521142D02*
X188947428Y-131349714D01*
X189004571Y-131292571D01*
X189118857Y-131235428D01*
X189290285Y-131235428D01*
X189404571Y-131292571D01*
X189461714Y-131349714D01*
X189518857Y-131464000D01*
X189518857Y-131921142D01*
X188318857Y-131921142D01*
X188318857Y-131521142D01*
X188376000Y-131406857D01*
X188433142Y-131349714D01*
X188547428Y-131292571D01*
X188661714Y-131292571D01*
X188776000Y-131349714D01*
X188833142Y-131406857D01*
X188890285Y-131521142D01*
X188890285Y-131921142D01*
X189518857Y-130092571D02*
X189518857Y-130778285D01*
X189518857Y-130435428D02*
X188318857Y-130435428D01*
X188490285Y-130549714D01*
X188604571Y-130664000D01*
X188661714Y-130778285D01*
X188318857Y-129006857D02*
X188318857Y-129578285D01*
X188890285Y-129635428D01*
X188833142Y-129578285D01*
X188776000Y-129464000D01*
X188776000Y-129178285D01*
X188833142Y-129064000D01*
X188890285Y-129006857D01*
X189004571Y-128949714D01*
X189290285Y-128949714D01*
X189404571Y-129006857D01*
X189461714Y-129064000D01*
X189518857Y-129178285D01*
X189518857Y-129464000D01*
X189461714Y-129578285D01*
X189404571Y-129635428D01*
X186978857Y-133121142D02*
X185778857Y-133121142D01*
X185778857Y-132664000D01*
X185836000Y-132549714D01*
X185893142Y-132492571D01*
X186007428Y-132435428D01*
X186178857Y-132435428D01*
X186293142Y-132492571D01*
X186350285Y-132549714D01*
X186407428Y-132664000D01*
X186407428Y-133121142D01*
X186350285Y-131521142D02*
X186407428Y-131349714D01*
X186464571Y-131292571D01*
X186578857Y-131235428D01*
X186750285Y-131235428D01*
X186864571Y-131292571D01*
X186921714Y-131349714D01*
X186978857Y-131464000D01*
X186978857Y-131921142D01*
X185778857Y-131921142D01*
X185778857Y-131521142D01*
X185836000Y-131406857D01*
X185893142Y-131349714D01*
X186007428Y-131292571D01*
X186121714Y-131292571D01*
X186236000Y-131349714D01*
X186293142Y-131406857D01*
X186350285Y-131521142D01*
X186350285Y-131921142D01*
X186978857Y-130092571D02*
X186978857Y-130778285D01*
X186978857Y-130435428D02*
X185778857Y-130435428D01*
X185950285Y-130549714D01*
X186064571Y-130664000D01*
X186121714Y-130778285D01*
X186178857Y-129064000D02*
X186978857Y-129064000D01*
X185721714Y-129349714D02*
X186578857Y-129635428D01*
X186578857Y-128892571D01*
X184438857Y-133121142D02*
X183238857Y-133121142D01*
X183238857Y-132664000D01*
X183296000Y-132549714D01*
X183353142Y-132492571D01*
X183467428Y-132435428D01*
X183638857Y-132435428D01*
X183753142Y-132492571D01*
X183810285Y-132549714D01*
X183867428Y-132664000D01*
X183867428Y-133121142D01*
X183810285Y-131521142D02*
X183867428Y-131349714D01*
X183924571Y-131292571D01*
X184038857Y-131235428D01*
X184210285Y-131235428D01*
X184324571Y-131292571D01*
X184381714Y-131349714D01*
X184438857Y-131464000D01*
X184438857Y-131921142D01*
X183238857Y-131921142D01*
X183238857Y-131521142D01*
X183296000Y-131406857D01*
X183353142Y-131349714D01*
X183467428Y-131292571D01*
X183581714Y-131292571D01*
X183696000Y-131349714D01*
X183753142Y-131406857D01*
X183810285Y-131521142D01*
X183810285Y-131921142D01*
X184438857Y-130092571D02*
X184438857Y-130778285D01*
X184438857Y-130435428D02*
X183238857Y-130435428D01*
X183410285Y-130549714D01*
X183524571Y-130664000D01*
X183581714Y-130778285D01*
X183238857Y-129692571D02*
X183238857Y-128949714D01*
X183696000Y-129349714D01*
X183696000Y-129178285D01*
X183753142Y-129064000D01*
X183810285Y-129006857D01*
X183924571Y-128949714D01*
X184210285Y-128949714D01*
X184324571Y-129006857D01*
X184381714Y-129064000D01*
X184438857Y-129178285D01*
X184438857Y-129521142D01*
X184381714Y-129635428D01*
X184324571Y-129692571D01*
X181898857Y-133121142D02*
X180698857Y-133121142D01*
X180698857Y-132664000D01*
X180756000Y-132549714D01*
X180813142Y-132492571D01*
X180927428Y-132435428D01*
X181098857Y-132435428D01*
X181213142Y-132492571D01*
X181270285Y-132549714D01*
X181327428Y-132664000D01*
X181327428Y-133121142D01*
X181270285Y-131521142D02*
X181327428Y-131349714D01*
X181384571Y-131292571D01*
X181498857Y-131235428D01*
X181670285Y-131235428D01*
X181784571Y-131292571D01*
X181841714Y-131349714D01*
X181898857Y-131464000D01*
X181898857Y-131921142D01*
X180698857Y-131921142D01*
X180698857Y-131521142D01*
X180756000Y-131406857D01*
X180813142Y-131349714D01*
X180927428Y-131292571D01*
X181041714Y-131292571D01*
X181156000Y-131349714D01*
X181213142Y-131406857D01*
X181270285Y-131521142D01*
X181270285Y-131921142D01*
X181898857Y-130092571D02*
X181898857Y-130778285D01*
X181898857Y-130435428D02*
X180698857Y-130435428D01*
X180870285Y-130549714D01*
X180984571Y-130664000D01*
X181041714Y-130778285D01*
X180813142Y-129635428D02*
X180756000Y-129578285D01*
X180698857Y-129464000D01*
X180698857Y-129178285D01*
X180756000Y-129064000D01*
X180813142Y-129006857D01*
X180927428Y-128949714D01*
X181041714Y-128949714D01*
X181213142Y-129006857D01*
X181898857Y-129692571D01*
X181898857Y-128949714D01*
X179358857Y-133121142D02*
X178158857Y-133121142D01*
X178158857Y-132664000D01*
X178216000Y-132549714D01*
X178273142Y-132492571D01*
X178387428Y-132435428D01*
X178558857Y-132435428D01*
X178673142Y-132492571D01*
X178730285Y-132549714D01*
X178787428Y-132664000D01*
X178787428Y-133121142D01*
X178730285Y-131521142D02*
X178787428Y-131349714D01*
X178844571Y-131292571D01*
X178958857Y-131235428D01*
X179130285Y-131235428D01*
X179244571Y-131292571D01*
X179301714Y-131349714D01*
X179358857Y-131464000D01*
X179358857Y-131921142D01*
X178158857Y-131921142D01*
X178158857Y-131521142D01*
X178216000Y-131406857D01*
X178273142Y-131349714D01*
X178387428Y-131292571D01*
X178501714Y-131292571D01*
X178616000Y-131349714D01*
X178673142Y-131406857D01*
X178730285Y-131521142D01*
X178730285Y-131921142D01*
X179358857Y-130092571D02*
X179358857Y-130778285D01*
X179358857Y-130435428D02*
X178158857Y-130435428D01*
X178330285Y-130549714D01*
X178444571Y-130664000D01*
X178501714Y-130778285D01*
X179358857Y-128949714D02*
X179358857Y-129635428D01*
X179358857Y-129292571D02*
X178158857Y-129292571D01*
X178330285Y-129406857D01*
X178444571Y-129521142D01*
X178501714Y-129635428D01*
X176818857Y-133121142D02*
X175618857Y-133121142D01*
X175618857Y-132664000D01*
X175676000Y-132549714D01*
X175733142Y-132492571D01*
X175847428Y-132435428D01*
X176018857Y-132435428D01*
X176133142Y-132492571D01*
X176190285Y-132549714D01*
X176247428Y-132664000D01*
X176247428Y-133121142D01*
X176190285Y-131521142D02*
X176247428Y-131349714D01*
X176304571Y-131292571D01*
X176418857Y-131235428D01*
X176590285Y-131235428D01*
X176704571Y-131292571D01*
X176761714Y-131349714D01*
X176818857Y-131464000D01*
X176818857Y-131921142D01*
X175618857Y-131921142D01*
X175618857Y-131521142D01*
X175676000Y-131406857D01*
X175733142Y-131349714D01*
X175847428Y-131292571D01*
X175961714Y-131292571D01*
X176076000Y-131349714D01*
X176133142Y-131406857D01*
X176190285Y-131521142D01*
X176190285Y-131921142D01*
X176818857Y-130092571D02*
X176818857Y-130778285D01*
X176818857Y-130435428D02*
X175618857Y-130435428D01*
X175790285Y-130549714D01*
X175904571Y-130664000D01*
X175961714Y-130778285D01*
X175618857Y-129349714D02*
X175618857Y-129235428D01*
X175676000Y-129121142D01*
X175733142Y-129064000D01*
X175847428Y-129006857D01*
X176076000Y-128949714D01*
X176361714Y-128949714D01*
X176590285Y-129006857D01*
X176704571Y-129064000D01*
X176761714Y-129121142D01*
X176818857Y-129235428D01*
X176818857Y-129349714D01*
X176761714Y-129464000D01*
X176704571Y-129521142D01*
X176590285Y-129578285D01*
X176361714Y-129635428D01*
X176076000Y-129635428D01*
X175847428Y-129578285D01*
X175733142Y-129521142D01*
X175676000Y-129464000D01*
X175618857Y-129349714D01*
X174278857Y-133057714D02*
X173078857Y-133057714D01*
X173078857Y-132600571D01*
X173136000Y-132486285D01*
X173193142Y-132429142D01*
X173307428Y-132372000D01*
X173478857Y-132372000D01*
X173593142Y-132429142D01*
X173650285Y-132486285D01*
X173707428Y-132600571D01*
X173707428Y-133057714D01*
X173650285Y-131457714D02*
X173707428Y-131286285D01*
X173764571Y-131229142D01*
X173878857Y-131172000D01*
X174050285Y-131172000D01*
X174164571Y-131229142D01*
X174221714Y-131286285D01*
X174278857Y-131400571D01*
X174278857Y-131857714D01*
X173078857Y-131857714D01*
X173078857Y-131457714D01*
X173136000Y-131343428D01*
X173193142Y-131286285D01*
X173307428Y-131229142D01*
X173421714Y-131229142D01*
X173536000Y-131286285D01*
X173593142Y-131343428D01*
X173650285Y-131457714D01*
X173650285Y-131857714D01*
X174278857Y-130029142D02*
X174278857Y-130714857D01*
X174278857Y-130372000D02*
X173078857Y-130372000D01*
X173250285Y-130486285D01*
X173364571Y-130600571D01*
X173421714Y-130714857D01*
X171738857Y-133057714D02*
X170538857Y-133057714D01*
X170538857Y-132600571D01*
X170596000Y-132486285D01*
X170653142Y-132429142D01*
X170767428Y-132372000D01*
X170938857Y-132372000D01*
X171053142Y-132429142D01*
X171110285Y-132486285D01*
X171167428Y-132600571D01*
X171167428Y-133057714D01*
X171110285Y-131457714D02*
X171167428Y-131286285D01*
X171224571Y-131229142D01*
X171338857Y-131172000D01*
X171510285Y-131172000D01*
X171624571Y-131229142D01*
X171681714Y-131286285D01*
X171738857Y-131400571D01*
X171738857Y-131857714D01*
X170538857Y-131857714D01*
X170538857Y-131457714D01*
X170596000Y-131343428D01*
X170653142Y-131286285D01*
X170767428Y-131229142D01*
X170881714Y-131229142D01*
X170996000Y-131286285D01*
X171053142Y-131343428D01*
X171110285Y-131457714D01*
X171110285Y-131857714D01*
X170538857Y-130429142D02*
X170538857Y-130314857D01*
X170596000Y-130200571D01*
X170653142Y-130143428D01*
X170767428Y-130086285D01*
X170996000Y-130029142D01*
X171281714Y-130029142D01*
X171510285Y-130086285D01*
X171624571Y-130143428D01*
X171681714Y-130200571D01*
X171738857Y-130314857D01*
X171738857Y-130429142D01*
X171681714Y-130543428D01*
X171624571Y-130600571D01*
X171510285Y-130657714D01*
X171281714Y-130714857D01*
X170996000Y-130714857D01*
X170767428Y-130657714D01*
X170653142Y-130600571D01*
X170596000Y-130543428D01*
X170538857Y-130429142D01*
X168056000Y-132486285D02*
X167998857Y-132600571D01*
X167998857Y-132772000D01*
X168056000Y-132943428D01*
X168170285Y-133057714D01*
X168284571Y-133114857D01*
X168513142Y-133172000D01*
X168684571Y-133172000D01*
X168913142Y-133114857D01*
X169027428Y-133057714D01*
X169141714Y-132943428D01*
X169198857Y-132772000D01*
X169198857Y-132657714D01*
X169141714Y-132486285D01*
X169084571Y-132429142D01*
X168684571Y-132429142D01*
X168684571Y-132657714D01*
X169198857Y-131914857D02*
X167998857Y-131914857D01*
X169198857Y-131229142D01*
X167998857Y-131229142D01*
X169198857Y-130657714D02*
X167998857Y-130657714D01*
X167998857Y-130372000D01*
X168056000Y-130200571D01*
X168170285Y-130086285D01*
X168284571Y-130029142D01*
X168513142Y-129972000D01*
X168684571Y-129972000D01*
X168913142Y-130029142D01*
X169027428Y-130086285D01*
X169141714Y-130200571D01*
X169198857Y-130372000D01*
X169198857Y-130657714D01*
D11*
X167000000Y-111285714D02*
X167071428Y-111357142D01*
X167000000Y-111428571D01*
X166928571Y-111357142D01*
X167000000Y-111285714D01*
X167000000Y-111428571D01*
D10*
X162150000Y-132414285D02*
X162092857Y-132528571D01*
X162092857Y-132700000D01*
X162150000Y-132871428D01*
X162264285Y-132985714D01*
X162378571Y-133042857D01*
X162607142Y-133100000D01*
X162778571Y-133100000D01*
X163007142Y-133042857D01*
X163121428Y-132985714D01*
X163235714Y-132871428D01*
X163292857Y-132700000D01*
X163292857Y-132585714D01*
X163235714Y-132414285D01*
X163178571Y-132357142D01*
X162778571Y-132357142D01*
X162778571Y-132585714D01*
X163292857Y-131842857D02*
X162092857Y-131842857D01*
X163292857Y-131157142D01*
X162092857Y-131157142D01*
X163292857Y-130585714D02*
X162092857Y-130585714D01*
X162092857Y-130300000D01*
X162150000Y-130128571D01*
X162264285Y-130014285D01*
X162378571Y-129957142D01*
X162607142Y-129900000D01*
X162778571Y-129900000D01*
X163007142Y-129957142D01*
X163121428Y-130014285D01*
X163235714Y-130128571D01*
X163292857Y-130300000D01*
X163292857Y-130585714D01*
X160792857Y-133471428D02*
X159592857Y-133471428D01*
X159592857Y-133014285D01*
X159650000Y-132900000D01*
X159707142Y-132842857D01*
X159821428Y-132785714D01*
X159992857Y-132785714D01*
X160107142Y-132842857D01*
X160164285Y-132900000D01*
X160221428Y-133014285D01*
X160221428Y-133471428D01*
X160450000Y-132328571D02*
X160450000Y-131757142D01*
X160792857Y-132442857D02*
X159592857Y-132042857D01*
X160792857Y-131642857D01*
X160792857Y-130614285D02*
X160792857Y-131300000D01*
X160792857Y-130957142D02*
X159592857Y-130957142D01*
X159764285Y-131071428D01*
X159878571Y-131185714D01*
X159935714Y-131300000D01*
X159592857Y-129528571D02*
X159592857Y-130100000D01*
X160164285Y-130157142D01*
X160107142Y-130100000D01*
X160050000Y-129985714D01*
X160050000Y-129700000D01*
X160107142Y-129585714D01*
X160164285Y-129528571D01*
X160278571Y-129471428D01*
X160564285Y-129471428D01*
X160678571Y-129528571D01*
X160735714Y-129585714D01*
X160792857Y-129700000D01*
X160792857Y-129985714D01*
X160735714Y-130100000D01*
X160678571Y-130157142D01*
X158292857Y-133471428D02*
X157092857Y-133471428D01*
X157092857Y-133014285D01*
X157150000Y-132900000D01*
X157207142Y-132842857D01*
X157321428Y-132785714D01*
X157492857Y-132785714D01*
X157607142Y-132842857D01*
X157664285Y-132900000D01*
X157721428Y-133014285D01*
X157721428Y-133471428D01*
X157950000Y-132328571D02*
X157950000Y-131757142D01*
X158292857Y-132442857D02*
X157092857Y-132042857D01*
X158292857Y-131642857D01*
X158292857Y-130614285D02*
X158292857Y-131300000D01*
X158292857Y-130957142D02*
X157092857Y-130957142D01*
X157264285Y-131071428D01*
X157378571Y-131185714D01*
X157435714Y-131300000D01*
X157207142Y-130157142D02*
X157150000Y-130100000D01*
X157092857Y-129985714D01*
X157092857Y-129700000D01*
X157150000Y-129585714D01*
X157207142Y-129528571D01*
X157321428Y-129471428D01*
X157435714Y-129471428D01*
X157607142Y-129528571D01*
X158292857Y-130214285D01*
X158292857Y-129471428D01*
X155792857Y-133471428D02*
X154592857Y-133471428D01*
X154592857Y-133014285D01*
X154650000Y-132900000D01*
X154707142Y-132842857D01*
X154821428Y-132785714D01*
X154992857Y-132785714D01*
X155107142Y-132842857D01*
X155164285Y-132900000D01*
X155221428Y-133014285D01*
X155221428Y-133471428D01*
X155450000Y-132328571D02*
X155450000Y-131757142D01*
X155792857Y-132442857D02*
X154592857Y-132042857D01*
X155792857Y-131642857D01*
X155792857Y-130614285D02*
X155792857Y-131300000D01*
X155792857Y-130957142D02*
X154592857Y-130957142D01*
X154764285Y-131071428D01*
X154878571Y-131185714D01*
X154935714Y-131300000D01*
X155792857Y-129471428D02*
X155792857Y-130157142D01*
X155792857Y-129814285D02*
X154592857Y-129814285D01*
X154764285Y-129928571D01*
X154878571Y-130042857D01*
X154935714Y-130157142D01*
X153292857Y-133400000D02*
X152092857Y-133400000D01*
X152092857Y-132942857D01*
X152150000Y-132828571D01*
X152207142Y-132771428D01*
X152321428Y-132714285D01*
X152492857Y-132714285D01*
X152607142Y-132771428D01*
X152664285Y-132828571D01*
X152721428Y-132942857D01*
X152721428Y-133400000D01*
X152950000Y-132257142D02*
X152950000Y-131685714D01*
X153292857Y-132371428D02*
X152092857Y-131971428D01*
X153292857Y-131571428D01*
X152607142Y-131000000D02*
X152550000Y-131114285D01*
X152492857Y-131171428D01*
X152378571Y-131228571D01*
X152321428Y-131228571D01*
X152207142Y-131171428D01*
X152150000Y-131114285D01*
X152092857Y-131000000D01*
X152092857Y-130771428D01*
X152150000Y-130657142D01*
X152207142Y-130600000D01*
X152321428Y-130542857D01*
X152378571Y-130542857D01*
X152492857Y-130600000D01*
X152550000Y-130657142D01*
X152607142Y-130771428D01*
X152607142Y-131000000D01*
X152664285Y-131114285D01*
X152721428Y-131171428D01*
X152835714Y-131228571D01*
X153064285Y-131228571D01*
X153178571Y-131171428D01*
X153235714Y-131114285D01*
X153292857Y-131000000D01*
X153292857Y-130771428D01*
X153235714Y-130657142D01*
X153178571Y-130600000D01*
X153064285Y-130542857D01*
X152835714Y-130542857D01*
X152721428Y-130600000D01*
X152664285Y-130657142D01*
X152607142Y-130771428D01*
X150542857Y-131900000D02*
X149342857Y-131900000D01*
X149342857Y-131442857D01*
X149400000Y-131328571D01*
X149457142Y-131271428D01*
X149571428Y-131214285D01*
X149742857Y-131214285D01*
X149857142Y-131271428D01*
X149914285Y-131328571D01*
X149971428Y-131442857D01*
X149971428Y-131900000D01*
X150200000Y-130757142D02*
X150200000Y-130185714D01*
X150542857Y-130871428D02*
X149342857Y-130471428D01*
X150542857Y-130071428D01*
X149342857Y-129785714D02*
X149342857Y-128985714D01*
X150542857Y-129500000D01*
X148042857Y-133400000D02*
X146842857Y-133400000D01*
X146842857Y-132942857D01*
X146900000Y-132828571D01*
X146957142Y-132771428D01*
X147071428Y-132714285D01*
X147242857Y-132714285D01*
X147357142Y-132771428D01*
X147414285Y-132828571D01*
X147471428Y-132942857D01*
X147471428Y-133400000D01*
X147700000Y-132257142D02*
X147700000Y-131685714D01*
X148042857Y-132371428D02*
X146842857Y-131971428D01*
X148042857Y-131571428D01*
X146842857Y-130657142D02*
X146842857Y-130885714D01*
X146900000Y-131000000D01*
X146957142Y-131057142D01*
X147128571Y-131171428D01*
X147357142Y-131228571D01*
X147814285Y-131228571D01*
X147928571Y-131171428D01*
X147985714Y-131114285D01*
X148042857Y-131000000D01*
X148042857Y-130771428D01*
X147985714Y-130657142D01*
X147928571Y-130600000D01*
X147814285Y-130542857D01*
X147528571Y-130542857D01*
X147414285Y-130600000D01*
X147357142Y-130657142D01*
X147300000Y-130771428D01*
X147300000Y-131000000D01*
X147357142Y-131114285D01*
X147414285Y-131171428D01*
X147528571Y-131228571D01*
X145542857Y-133400000D02*
X144342857Y-133400000D01*
X144342857Y-132942857D01*
X144400000Y-132828571D01*
X144457142Y-132771428D01*
X144571428Y-132714285D01*
X144742857Y-132714285D01*
X144857142Y-132771428D01*
X144914285Y-132828571D01*
X144971428Y-132942857D01*
X144971428Y-133400000D01*
X145200000Y-132257142D02*
X145200000Y-131685714D01*
X145542857Y-132371428D02*
X144342857Y-131971428D01*
X145542857Y-131571428D01*
X144342857Y-130600000D02*
X144342857Y-131171428D01*
X144914285Y-131228571D01*
X144857142Y-131171428D01*
X144800000Y-131057142D01*
X144800000Y-130771428D01*
X144857142Y-130657142D01*
X144914285Y-130600000D01*
X145028571Y-130542857D01*
X145314285Y-130542857D01*
X145428571Y-130600000D01*
X145485714Y-130657142D01*
X145542857Y-130771428D01*
X145542857Y-131057142D01*
X145485714Y-131171428D01*
X145428571Y-131228571D01*
X143042857Y-133400000D02*
X141842857Y-133400000D01*
X141842857Y-132942857D01*
X141900000Y-132828571D01*
X141957142Y-132771428D01*
X142071428Y-132714285D01*
X142242857Y-132714285D01*
X142357142Y-132771428D01*
X142414285Y-132828571D01*
X142471428Y-132942857D01*
X142471428Y-133400000D01*
X142700000Y-132257142D02*
X142700000Y-131685714D01*
X143042857Y-132371428D02*
X141842857Y-131971428D01*
X143042857Y-131571428D01*
X142242857Y-130657142D02*
X143042857Y-130657142D01*
X141785714Y-130942857D02*
X142642857Y-131228571D01*
X142642857Y-130485714D01*
X140542857Y-133400000D02*
X139342857Y-133400000D01*
X139342857Y-132942857D01*
X139400000Y-132828571D01*
X139457142Y-132771428D01*
X139571428Y-132714285D01*
X139742857Y-132714285D01*
X139857142Y-132771428D01*
X139914285Y-132828571D01*
X139971428Y-132942857D01*
X139971428Y-133400000D01*
X140200000Y-132257142D02*
X140200000Y-131685714D01*
X140542857Y-132371428D02*
X139342857Y-131971428D01*
X140542857Y-131571428D01*
X139342857Y-131285714D02*
X139342857Y-130542857D01*
X139800000Y-130942857D01*
X139800000Y-130771428D01*
X139857142Y-130657142D01*
X139914285Y-130600000D01*
X140028571Y-130542857D01*
X140314285Y-130542857D01*
X140428571Y-130600000D01*
X140485714Y-130657142D01*
X140542857Y-130771428D01*
X140542857Y-131114285D01*
X140485714Y-131228571D01*
X140428571Y-131285714D01*
X138042857Y-133400000D02*
X136842857Y-133400000D01*
X136842857Y-132942857D01*
X136900000Y-132828571D01*
X136957142Y-132771428D01*
X137071428Y-132714285D01*
X137242857Y-132714285D01*
X137357142Y-132771428D01*
X137414285Y-132828571D01*
X137471428Y-132942857D01*
X137471428Y-133400000D01*
X137700000Y-132257142D02*
X137700000Y-131685714D01*
X138042857Y-132371428D02*
X136842857Y-131971428D01*
X138042857Y-131571428D01*
X136957142Y-131228571D02*
X136900000Y-131171428D01*
X136842857Y-131057142D01*
X136842857Y-130771428D01*
X136900000Y-130657142D01*
X136957142Y-130600000D01*
X137071428Y-130542857D01*
X137185714Y-130542857D01*
X137357142Y-130600000D01*
X138042857Y-131285714D01*
X138042857Y-130542857D01*
X135542857Y-133400000D02*
X134342857Y-133400000D01*
X134342857Y-132942857D01*
X134400000Y-132828571D01*
X134457142Y-132771428D01*
X134571428Y-132714285D01*
X134742857Y-132714285D01*
X134857142Y-132771428D01*
X134914285Y-132828571D01*
X134971428Y-132942857D01*
X134971428Y-133400000D01*
X135200000Y-132257142D02*
X135200000Y-131685714D01*
X135542857Y-132371428D02*
X134342857Y-131971428D01*
X135542857Y-131571428D01*
X135542857Y-130542857D02*
X135542857Y-131228571D01*
X135542857Y-130885714D02*
X134342857Y-130885714D01*
X134514285Y-131000000D01*
X134628571Y-131114285D01*
X134685714Y-131228571D01*
X133042857Y-133400000D02*
X131842857Y-133400000D01*
X131842857Y-132942857D01*
X131900000Y-132828571D01*
X131957142Y-132771428D01*
X132071428Y-132714285D01*
X132242857Y-132714285D01*
X132357142Y-132771428D01*
X132414285Y-132828571D01*
X132471428Y-132942857D01*
X132471428Y-133400000D01*
X132700000Y-132257142D02*
X132700000Y-131685714D01*
X133042857Y-132371428D02*
X131842857Y-131971428D01*
X133042857Y-131571428D01*
X131842857Y-130942857D02*
X131842857Y-130828571D01*
X131900000Y-130714285D01*
X131957142Y-130657142D01*
X132071428Y-130600000D01*
X132300000Y-130542857D01*
X132585714Y-130542857D01*
X132814285Y-130600000D01*
X132928571Y-130657142D01*
X132985714Y-130714285D01*
X133042857Y-130828571D01*
X133042857Y-130942857D01*
X132985714Y-131057142D01*
X132928571Y-131114285D01*
X132814285Y-131171428D01*
X132585714Y-131228571D01*
X132300000Y-131228571D01*
X132071428Y-131171428D01*
X131957142Y-131114285D01*
X131900000Y-131057142D01*
X131842857Y-130942857D01*
X126264285Y-113292857D02*
X126264285Y-112092857D01*
X126721428Y-112092857D01*
X126835714Y-112150000D01*
X126892857Y-112207142D01*
X126950000Y-112321428D01*
X126950000Y-112492857D01*
X126892857Y-112607142D01*
X126835714Y-112664285D01*
X126721428Y-112721428D01*
X126264285Y-112721428D01*
X127864285Y-112664285D02*
X128035714Y-112721428D01*
X128092857Y-112778571D01*
X128150000Y-112892857D01*
X128150000Y-113064285D01*
X128092857Y-113178571D01*
X128035714Y-113235714D01*
X127921428Y-113292857D01*
X127464285Y-113292857D01*
X127464285Y-112092857D01*
X127864285Y-112092857D01*
X127978571Y-112150000D01*
X128035714Y-112207142D01*
X128092857Y-112321428D01*
X128092857Y-112435714D01*
X128035714Y-112550000D01*
X127978571Y-112607142D01*
X127864285Y-112664285D01*
X127464285Y-112664285D01*
X128835714Y-112607142D02*
X128721428Y-112550000D01*
X128664285Y-112492857D01*
X128607142Y-112378571D01*
X128607142Y-112321428D01*
X128664285Y-112207142D01*
X128721428Y-112150000D01*
X128835714Y-112092857D01*
X129064285Y-112092857D01*
X129178571Y-112150000D01*
X129235714Y-112207142D01*
X129292857Y-112321428D01*
X129292857Y-112378571D01*
X129235714Y-112492857D01*
X129178571Y-112550000D01*
X129064285Y-112607142D01*
X128835714Y-112607142D01*
X128721428Y-112664285D01*
X128664285Y-112721428D01*
X128607142Y-112835714D01*
X128607142Y-113064285D01*
X128664285Y-113178571D01*
X128721428Y-113235714D01*
X128835714Y-113292857D01*
X129064285Y-113292857D01*
X129178571Y-113235714D01*
X129235714Y-113178571D01*
X129292857Y-113064285D01*
X129292857Y-112835714D01*
X129235714Y-112721428D01*
X129178571Y-112664285D01*
X129064285Y-112607142D01*
X126264285Y-110792857D02*
X126264285Y-109592857D01*
X126721428Y-109592857D01*
X126835714Y-109650000D01*
X126892857Y-109707142D01*
X126950000Y-109821428D01*
X126950000Y-109992857D01*
X126892857Y-110107142D01*
X126835714Y-110164285D01*
X126721428Y-110221428D01*
X126264285Y-110221428D01*
X127864285Y-110164285D02*
X128035714Y-110221428D01*
X128092857Y-110278571D01*
X128150000Y-110392857D01*
X128150000Y-110564285D01*
X128092857Y-110678571D01*
X128035714Y-110735714D01*
X127921428Y-110792857D01*
X127464285Y-110792857D01*
X127464285Y-109592857D01*
X127864285Y-109592857D01*
X127978571Y-109650000D01*
X128035714Y-109707142D01*
X128092857Y-109821428D01*
X128092857Y-109935714D01*
X128035714Y-110050000D01*
X127978571Y-110107142D01*
X127864285Y-110164285D01*
X127464285Y-110164285D01*
X128721428Y-110792857D02*
X128950000Y-110792857D01*
X129064285Y-110735714D01*
X129121428Y-110678571D01*
X129235714Y-110507142D01*
X129292857Y-110278571D01*
X129292857Y-109821428D01*
X129235714Y-109707142D01*
X129178571Y-109650000D01*
X129064285Y-109592857D01*
X128835714Y-109592857D01*
X128721428Y-109650000D01*
X128664285Y-109707142D01*
X128607142Y-109821428D01*
X128607142Y-110107142D01*
X128664285Y-110221428D01*
X128721428Y-110278571D01*
X128835714Y-110335714D01*
X129064285Y-110335714D01*
X129178571Y-110278571D01*
X129235714Y-110221428D01*
X129292857Y-110107142D01*
X126264285Y-108292857D02*
X126264285Y-107092857D01*
X126721428Y-107092857D01*
X126835714Y-107150000D01*
X126892857Y-107207142D01*
X126950000Y-107321428D01*
X126950000Y-107492857D01*
X126892857Y-107607142D01*
X126835714Y-107664285D01*
X126721428Y-107721428D01*
X126264285Y-107721428D01*
X127864285Y-107664285D02*
X128035714Y-107721428D01*
X128092857Y-107778571D01*
X128150000Y-107892857D01*
X128150000Y-108064285D01*
X128092857Y-108178571D01*
X128035714Y-108235714D01*
X127921428Y-108292857D01*
X127464285Y-108292857D01*
X127464285Y-107092857D01*
X127864285Y-107092857D01*
X127978571Y-107150000D01*
X128035714Y-107207142D01*
X128092857Y-107321428D01*
X128092857Y-107435714D01*
X128035714Y-107550000D01*
X127978571Y-107607142D01*
X127864285Y-107664285D01*
X127464285Y-107664285D01*
X128550000Y-107092857D02*
X129350000Y-107092857D01*
X128835714Y-108292857D01*
X126835714Y-104650000D02*
X126721428Y-104592857D01*
X126550000Y-104592857D01*
X126378571Y-104650000D01*
X126264285Y-104764285D01*
X126207142Y-104878571D01*
X126150000Y-105107142D01*
X126150000Y-105278571D01*
X126207142Y-105507142D01*
X126264285Y-105621428D01*
X126378571Y-105735714D01*
X126550000Y-105792857D01*
X126664285Y-105792857D01*
X126835714Y-105735714D01*
X126892857Y-105678571D01*
X126892857Y-105278571D01*
X126664285Y-105278571D01*
X127407142Y-105792857D02*
X127407142Y-104592857D01*
X128092857Y-105792857D01*
X128092857Y-104592857D01*
X128664285Y-105792857D02*
X128664285Y-104592857D01*
X128950000Y-104592857D01*
X129121428Y-104650000D01*
X129235714Y-104764285D01*
X129292857Y-104878571D01*
X129350000Y-105107142D01*
X129350000Y-105278571D01*
X129292857Y-105507142D01*
X129235714Y-105621428D01*
X129121428Y-105735714D01*
X128950000Y-105792857D01*
X128664285Y-105792857D01*
X124150000Y-97414285D02*
X124550000Y-97414285D01*
X124721428Y-98042857D02*
X124150000Y-98042857D01*
X124150000Y-96842857D01*
X124721428Y-96842857D01*
X125178571Y-97985714D02*
X125350000Y-98042857D01*
X125635714Y-98042857D01*
X125750000Y-97985714D01*
X125807142Y-97928571D01*
X125864285Y-97814285D01*
X125864285Y-97700000D01*
X125807142Y-97585714D01*
X125750000Y-97528571D01*
X125635714Y-97471428D01*
X125407142Y-97414285D01*
X125292857Y-97357142D01*
X125235714Y-97300000D01*
X125178571Y-97185714D01*
X125178571Y-97071428D01*
X125235714Y-96957142D01*
X125292857Y-96900000D01*
X125407142Y-96842857D01*
X125692857Y-96842857D01*
X125864285Y-96900000D01*
X126378571Y-98042857D02*
X126378571Y-96842857D01*
X126835714Y-96842857D01*
X126950000Y-96900000D01*
X127007142Y-96957142D01*
X127064285Y-97071428D01*
X127064285Y-97242857D01*
X127007142Y-97357142D01*
X126950000Y-97414285D01*
X126835714Y-97471428D01*
X126378571Y-97471428D01*
X127292857Y-98157142D02*
X128207142Y-98157142D01*
X128435714Y-97700000D02*
X129007142Y-97700000D01*
X128321428Y-98042857D02*
X128721428Y-96842857D01*
X129121428Y-98042857D01*
X129521428Y-98042857D02*
X129521428Y-96842857D01*
X129807142Y-96842857D01*
X129978571Y-96900000D01*
X130092857Y-97014285D01*
X130150000Y-97128571D01*
X130207142Y-97357142D01*
X130207142Y-97528571D01*
X130150000Y-97757142D01*
X130092857Y-97871428D01*
X129978571Y-97985714D01*
X129807142Y-98042857D01*
X129521428Y-98042857D01*
X131407142Y-97928571D02*
X131350000Y-97985714D01*
X131178571Y-98042857D01*
X131064285Y-98042857D01*
X130892857Y-97985714D01*
X130778571Y-97871428D01*
X130721428Y-97757142D01*
X130664285Y-97528571D01*
X130664285Y-97357142D01*
X130721428Y-97128571D01*
X130778571Y-97014285D01*
X130892857Y-96900000D01*
X131064285Y-96842857D01*
X131178571Y-96842857D01*
X131350000Y-96900000D01*
X131407142Y-96957142D01*
X124107142Y-94664285D02*
X124507142Y-94664285D01*
X124678571Y-95292857D02*
X124107142Y-95292857D01*
X124107142Y-94092857D01*
X124678571Y-94092857D01*
X125135714Y-95235714D02*
X125307142Y-95292857D01*
X125592857Y-95292857D01*
X125707142Y-95235714D01*
X125764285Y-95178571D01*
X125821428Y-95064285D01*
X125821428Y-94950000D01*
X125764285Y-94835714D01*
X125707142Y-94778571D01*
X125592857Y-94721428D01*
X125364285Y-94664285D01*
X125250000Y-94607142D01*
X125192857Y-94550000D01*
X125135714Y-94435714D01*
X125135714Y-94321428D01*
X125192857Y-94207142D01*
X125250000Y-94150000D01*
X125364285Y-94092857D01*
X125650000Y-94092857D01*
X125821428Y-94150000D01*
X126335714Y-95292857D02*
X126335714Y-94092857D01*
X126792857Y-94092857D01*
X126907142Y-94150000D01*
X126964285Y-94207142D01*
X127021428Y-94321428D01*
X127021428Y-94492857D01*
X126964285Y-94607142D01*
X126907142Y-94664285D01*
X126792857Y-94721428D01*
X126335714Y-94721428D01*
X127250000Y-95407142D02*
X128164285Y-95407142D01*
X128392857Y-95235714D02*
X128564285Y-95292857D01*
X128850000Y-95292857D01*
X128964285Y-95235714D01*
X129021428Y-95178571D01*
X129078571Y-95064285D01*
X129078571Y-94950000D01*
X129021428Y-94835714D01*
X128964285Y-94778571D01*
X128850000Y-94721428D01*
X128621428Y-94664285D01*
X128507142Y-94607142D01*
X128450000Y-94550000D01*
X128392857Y-94435714D01*
X128392857Y-94321428D01*
X128450000Y-94207142D01*
X128507142Y-94150000D01*
X128621428Y-94092857D01*
X128907142Y-94092857D01*
X129078571Y-94150000D01*
X130278571Y-95178571D02*
X130221428Y-95235714D01*
X130050000Y-95292857D01*
X129935714Y-95292857D01*
X129764285Y-95235714D01*
X129650000Y-95121428D01*
X129592857Y-95007142D01*
X129535714Y-94778571D01*
X129535714Y-94607142D01*
X129592857Y-94378571D01*
X129650000Y-94264285D01*
X129764285Y-94150000D01*
X129935714Y-94092857D01*
X130050000Y-94092857D01*
X130221428Y-94150000D01*
X130278571Y-94207142D01*
X131364285Y-95292857D02*
X130792857Y-95292857D01*
X130792857Y-94092857D01*
X131764285Y-95292857D02*
X131764285Y-94092857D01*
X132450000Y-95292857D02*
X131935714Y-94607142D01*
X132450000Y-94092857D02*
X131764285Y-94778571D01*
X124192857Y-92164285D02*
X124592857Y-92164285D01*
X124764285Y-92792857D02*
X124192857Y-92792857D01*
X124192857Y-91592857D01*
X124764285Y-91592857D01*
X125221428Y-92735714D02*
X125392857Y-92792857D01*
X125678571Y-92792857D01*
X125792857Y-92735714D01*
X125850000Y-92678571D01*
X125907142Y-92564285D01*
X125907142Y-92450000D01*
X125850000Y-92335714D01*
X125792857Y-92278571D01*
X125678571Y-92221428D01*
X125450000Y-92164285D01*
X125335714Y-92107142D01*
X125278571Y-92050000D01*
X125221428Y-91935714D01*
X125221428Y-91821428D01*
X125278571Y-91707142D01*
X125335714Y-91650000D01*
X125450000Y-91592857D01*
X125735714Y-91592857D01*
X125907142Y-91650000D01*
X126421428Y-92792857D02*
X126421428Y-91592857D01*
X126878571Y-91592857D01*
X126992857Y-91650000D01*
X127050000Y-91707142D01*
X127107142Y-91821428D01*
X127107142Y-91992857D01*
X127050000Y-92107142D01*
X126992857Y-92164285D01*
X126878571Y-92221428D01*
X126421428Y-92221428D01*
X127335714Y-92907142D02*
X128250000Y-92907142D01*
X128535714Y-92792857D02*
X128535714Y-91592857D01*
X128935714Y-92450000D01*
X129335714Y-91592857D01*
X129335714Y-92792857D01*
X130135714Y-91592857D02*
X130364285Y-91592857D01*
X130478571Y-91650000D01*
X130592857Y-91764285D01*
X130650000Y-91992857D01*
X130650000Y-92392857D01*
X130592857Y-92621428D01*
X130478571Y-92735714D01*
X130364285Y-92792857D01*
X130135714Y-92792857D01*
X130021428Y-92735714D01*
X129907142Y-92621428D01*
X129850000Y-92392857D01*
X129850000Y-91992857D01*
X129907142Y-91764285D01*
X130021428Y-91650000D01*
X130135714Y-91592857D01*
X131107142Y-92735714D02*
X131278571Y-92792857D01*
X131564285Y-92792857D01*
X131678571Y-92735714D01*
X131735714Y-92678571D01*
X131792857Y-92564285D01*
X131792857Y-92450000D01*
X131735714Y-92335714D01*
X131678571Y-92278571D01*
X131564285Y-92221428D01*
X131335714Y-92164285D01*
X131221428Y-92107142D01*
X131164285Y-92050000D01*
X131107142Y-91935714D01*
X131107142Y-91821428D01*
X131164285Y-91707142D01*
X131221428Y-91650000D01*
X131335714Y-91592857D01*
X131621428Y-91592857D01*
X131792857Y-91650000D01*
X132307142Y-92792857D02*
X132307142Y-91592857D01*
X124041428Y-89664285D02*
X124441428Y-89664285D01*
X124612857Y-90292857D02*
X124041428Y-90292857D01*
X124041428Y-89092857D01*
X124612857Y-89092857D01*
X125070000Y-90235714D02*
X125241428Y-90292857D01*
X125527142Y-90292857D01*
X125641428Y-90235714D01*
X125698571Y-90178571D01*
X125755714Y-90064285D01*
X125755714Y-89950000D01*
X125698571Y-89835714D01*
X125641428Y-89778571D01*
X125527142Y-89721428D01*
X125298571Y-89664285D01*
X125184285Y-89607142D01*
X125127142Y-89550000D01*
X125070000Y-89435714D01*
X125070000Y-89321428D01*
X125127142Y-89207142D01*
X125184285Y-89150000D01*
X125298571Y-89092857D01*
X125584285Y-89092857D01*
X125755714Y-89150000D01*
X126270000Y-90292857D02*
X126270000Y-89092857D01*
X126727142Y-89092857D01*
X126841428Y-89150000D01*
X126898571Y-89207142D01*
X126955714Y-89321428D01*
X126955714Y-89492857D01*
X126898571Y-89607142D01*
X126841428Y-89664285D01*
X126727142Y-89721428D01*
X126270000Y-89721428D01*
X127184285Y-90407142D02*
X128098571Y-90407142D01*
X128327142Y-90235714D02*
X128498571Y-90292857D01*
X128784285Y-90292857D01*
X128898571Y-90235714D01*
X128955714Y-90178571D01*
X129012857Y-90064285D01*
X129012857Y-89950000D01*
X128955714Y-89835714D01*
X128898571Y-89778571D01*
X128784285Y-89721428D01*
X128555714Y-89664285D01*
X128441428Y-89607142D01*
X128384285Y-89550000D01*
X128327142Y-89435714D01*
X128327142Y-89321428D01*
X128384285Y-89207142D01*
X128441428Y-89150000D01*
X128555714Y-89092857D01*
X128841428Y-89092857D01*
X129012857Y-89150000D01*
X129527142Y-90292857D02*
X129527142Y-89092857D01*
X129812857Y-89092857D01*
X129984285Y-89150000D01*
X130098571Y-89264285D01*
X130155714Y-89378571D01*
X130212857Y-89607142D01*
X130212857Y-89778571D01*
X130155714Y-90007142D01*
X130098571Y-90121428D01*
X129984285Y-90235714D01*
X129812857Y-90292857D01*
X129527142Y-90292857D01*
X130727142Y-90292857D02*
X130727142Y-89092857D01*
X131012857Y-89092857D01*
X131184285Y-89150000D01*
X131298571Y-89264285D01*
X131355714Y-89378571D01*
X131412857Y-89607142D01*
X131412857Y-89778571D01*
X131355714Y-90007142D01*
X131298571Y-90121428D01*
X131184285Y-90235714D01*
X131012857Y-90292857D01*
X130727142Y-90292857D01*
X131812857Y-89092857D02*
X132555714Y-89092857D01*
X132155714Y-89550000D01*
X132327142Y-89550000D01*
X132441428Y-89607142D01*
X132498571Y-89664285D01*
X132555714Y-89778571D01*
X132555714Y-90064285D01*
X132498571Y-90178571D01*
X132441428Y-90235714D01*
X132327142Y-90292857D01*
X131984285Y-90292857D01*
X131870000Y-90235714D01*
X131812857Y-90178571D01*
X124041428Y-87290285D02*
X124441428Y-87290285D01*
X124612857Y-87918857D02*
X124041428Y-87918857D01*
X124041428Y-86718857D01*
X124612857Y-86718857D01*
X125070000Y-87861714D02*
X125241428Y-87918857D01*
X125527142Y-87918857D01*
X125641428Y-87861714D01*
X125698571Y-87804571D01*
X125755714Y-87690285D01*
X125755714Y-87576000D01*
X125698571Y-87461714D01*
X125641428Y-87404571D01*
X125527142Y-87347428D01*
X125298571Y-87290285D01*
X125184285Y-87233142D01*
X125127142Y-87176000D01*
X125070000Y-87061714D01*
X125070000Y-86947428D01*
X125127142Y-86833142D01*
X125184285Y-86776000D01*
X125298571Y-86718857D01*
X125584285Y-86718857D01*
X125755714Y-86776000D01*
X126270000Y-87918857D02*
X126270000Y-86718857D01*
X126727142Y-86718857D01*
X126841428Y-86776000D01*
X126898571Y-86833142D01*
X126955714Y-86947428D01*
X126955714Y-87118857D01*
X126898571Y-87233142D01*
X126841428Y-87290285D01*
X126727142Y-87347428D01*
X126270000Y-87347428D01*
X127184285Y-88033142D02*
X128098571Y-88033142D01*
X128327142Y-87861714D02*
X128498571Y-87918857D01*
X128784285Y-87918857D01*
X128898571Y-87861714D01*
X128955714Y-87804571D01*
X129012857Y-87690285D01*
X129012857Y-87576000D01*
X128955714Y-87461714D01*
X128898571Y-87404571D01*
X128784285Y-87347428D01*
X128555714Y-87290285D01*
X128441428Y-87233142D01*
X128384285Y-87176000D01*
X128327142Y-87061714D01*
X128327142Y-86947428D01*
X128384285Y-86833142D01*
X128441428Y-86776000D01*
X128555714Y-86718857D01*
X128841428Y-86718857D01*
X129012857Y-86776000D01*
X129527142Y-87918857D02*
X129527142Y-86718857D01*
X129812857Y-86718857D01*
X129984285Y-86776000D01*
X130098571Y-86890285D01*
X130155714Y-87004571D01*
X130212857Y-87233142D01*
X130212857Y-87404571D01*
X130155714Y-87633142D01*
X130098571Y-87747428D01*
X129984285Y-87861714D01*
X129812857Y-87918857D01*
X129527142Y-87918857D01*
X130727142Y-87918857D02*
X130727142Y-86718857D01*
X131012857Y-86718857D01*
X131184285Y-86776000D01*
X131298571Y-86890285D01*
X131355714Y-87004571D01*
X131412857Y-87233142D01*
X131412857Y-87404571D01*
X131355714Y-87633142D01*
X131298571Y-87747428D01*
X131184285Y-87861714D01*
X131012857Y-87918857D01*
X130727142Y-87918857D01*
X131870000Y-86833142D02*
X131927142Y-86776000D01*
X132041428Y-86718857D01*
X132327142Y-86718857D01*
X132441428Y-86776000D01*
X132498571Y-86833142D01*
X132555714Y-86947428D01*
X132555714Y-87061714D01*
X132498571Y-87233142D01*
X131812857Y-87918857D01*
X132555714Y-87918857D01*
X123958857Y-84623285D02*
X124358857Y-84623285D01*
X124530285Y-85251857D02*
X123958857Y-85251857D01*
X123958857Y-84051857D01*
X124530285Y-84051857D01*
X124987428Y-85194714D02*
X125158857Y-85251857D01*
X125444571Y-85251857D01*
X125558857Y-85194714D01*
X125616000Y-85137571D01*
X125673142Y-85023285D01*
X125673142Y-84909000D01*
X125616000Y-84794714D01*
X125558857Y-84737571D01*
X125444571Y-84680428D01*
X125216000Y-84623285D01*
X125101714Y-84566142D01*
X125044571Y-84509000D01*
X124987428Y-84394714D01*
X124987428Y-84280428D01*
X125044571Y-84166142D01*
X125101714Y-84109000D01*
X125216000Y-84051857D01*
X125501714Y-84051857D01*
X125673142Y-84109000D01*
X126187428Y-85251857D02*
X126187428Y-84051857D01*
X126644571Y-84051857D01*
X126758857Y-84109000D01*
X126816000Y-84166142D01*
X126873142Y-84280428D01*
X126873142Y-84451857D01*
X126816000Y-84566142D01*
X126758857Y-84623285D01*
X126644571Y-84680428D01*
X126187428Y-84680428D01*
X127101714Y-85366142D02*
X128016000Y-85366142D01*
X128301714Y-85251857D02*
X128301714Y-84051857D01*
X128701714Y-84909000D01*
X129101714Y-84051857D01*
X129101714Y-85251857D01*
X129673142Y-85251857D02*
X129673142Y-84051857D01*
X130187428Y-85194714D02*
X130358857Y-85251857D01*
X130644571Y-85251857D01*
X130758857Y-85194714D01*
X130816000Y-85137571D01*
X130873142Y-85023285D01*
X130873142Y-84909000D01*
X130816000Y-84794714D01*
X130758857Y-84737571D01*
X130644571Y-84680428D01*
X130416000Y-84623285D01*
X130301714Y-84566142D01*
X130244571Y-84509000D01*
X130187428Y-84394714D01*
X130187428Y-84280428D01*
X130244571Y-84166142D01*
X130301714Y-84109000D01*
X130416000Y-84051857D01*
X130701714Y-84051857D01*
X130873142Y-84109000D01*
X131616000Y-84051857D02*
X131844571Y-84051857D01*
X131958857Y-84109000D01*
X132073142Y-84223285D01*
X132130285Y-84451857D01*
X132130285Y-84851857D01*
X132073142Y-85080428D01*
X131958857Y-85194714D01*
X131844571Y-85251857D01*
X131616000Y-85251857D01*
X131501714Y-85194714D01*
X131387428Y-85080428D01*
X131330285Y-84851857D01*
X131330285Y-84451857D01*
X131387428Y-84223285D01*
X131501714Y-84109000D01*
X131616000Y-84051857D01*
X124012785Y-82083285D02*
X124412785Y-82083285D01*
X124584214Y-82711857D02*
X124012785Y-82711857D01*
X124012785Y-81511857D01*
X124584214Y-81511857D01*
X125041357Y-82654714D02*
X125212785Y-82711857D01*
X125498500Y-82711857D01*
X125612785Y-82654714D01*
X125669928Y-82597571D01*
X125727071Y-82483285D01*
X125727071Y-82369000D01*
X125669928Y-82254714D01*
X125612785Y-82197571D01*
X125498500Y-82140428D01*
X125269928Y-82083285D01*
X125155642Y-82026142D01*
X125098500Y-81969000D01*
X125041357Y-81854714D01*
X125041357Y-81740428D01*
X125098500Y-81626142D01*
X125155642Y-81569000D01*
X125269928Y-81511857D01*
X125555642Y-81511857D01*
X125727071Y-81569000D01*
X126241357Y-82711857D02*
X126241357Y-81511857D01*
X126698500Y-81511857D01*
X126812785Y-81569000D01*
X126869928Y-81626142D01*
X126927071Y-81740428D01*
X126927071Y-81911857D01*
X126869928Y-82026142D01*
X126812785Y-82083285D01*
X126698500Y-82140428D01*
X126241357Y-82140428D01*
X127155642Y-82826142D02*
X128069928Y-82826142D01*
X129041357Y-82597571D02*
X128984214Y-82654714D01*
X128812785Y-82711857D01*
X128698500Y-82711857D01*
X128527071Y-82654714D01*
X128412785Y-82540428D01*
X128355642Y-82426142D01*
X128298500Y-82197571D01*
X128298500Y-82026142D01*
X128355642Y-81797571D01*
X128412785Y-81683285D01*
X128527071Y-81569000D01*
X128698500Y-81511857D01*
X128812785Y-81511857D01*
X128984214Y-81569000D01*
X129041357Y-81626142D01*
X129498500Y-82654714D02*
X129669928Y-82711857D01*
X129955642Y-82711857D01*
X130069928Y-82654714D01*
X130127071Y-82597571D01*
X130184214Y-82483285D01*
X130184214Y-82369000D01*
X130127071Y-82254714D01*
X130069928Y-82197571D01*
X129955642Y-82140428D01*
X129727071Y-82083285D01*
X129612785Y-82026142D01*
X129555642Y-81969000D01*
X129498500Y-81854714D01*
X129498500Y-81740428D01*
X129555642Y-81626142D01*
X129612785Y-81569000D01*
X129727071Y-81511857D01*
X130012785Y-81511857D01*
X130184214Y-81569000D01*
X130927071Y-81511857D02*
X131155642Y-81511857D01*
X131269928Y-81569000D01*
X131384214Y-81683285D01*
X131441357Y-81911857D01*
X131441357Y-82311857D01*
X131384214Y-82540428D01*
X131269928Y-82654714D01*
X131155642Y-82711857D01*
X130927071Y-82711857D01*
X130812785Y-82654714D01*
X130698500Y-82540428D01*
X130641357Y-82311857D01*
X130641357Y-81911857D01*
X130698500Y-81683285D01*
X130812785Y-81569000D01*
X130927071Y-81511857D01*
X124752214Y-79092500D02*
X124637928Y-79035357D01*
X124466500Y-79035357D01*
X124295071Y-79092500D01*
X124180785Y-79206785D01*
X124123642Y-79321071D01*
X124066500Y-79549642D01*
X124066500Y-79721071D01*
X124123642Y-79949642D01*
X124180785Y-80063928D01*
X124295071Y-80178214D01*
X124466500Y-80235357D01*
X124580785Y-80235357D01*
X124752214Y-80178214D01*
X124809357Y-80121071D01*
X124809357Y-79721071D01*
X124580785Y-79721071D01*
X125323642Y-80235357D02*
X125323642Y-79035357D01*
X126009357Y-80235357D01*
X126009357Y-79035357D01*
X126580785Y-80235357D02*
X126580785Y-79035357D01*
X126866500Y-79035357D01*
X127037928Y-79092500D01*
X127152214Y-79206785D01*
X127209357Y-79321071D01*
X127266500Y-79549642D01*
X127266500Y-79721071D01*
X127209357Y-79949642D01*
X127152214Y-80063928D01*
X127037928Y-80178214D01*
X126866500Y-80235357D01*
X126580785Y-80235357D01*
X139113071Y-98402714D02*
X139284500Y-98459857D01*
X139570214Y-98459857D01*
X139684500Y-98402714D01*
X139741642Y-98345571D01*
X139798785Y-98231285D01*
X139798785Y-98117000D01*
X139741642Y-98002714D01*
X139684500Y-97945571D01*
X139570214Y-97888428D01*
X139341642Y-97831285D01*
X139227357Y-97774142D01*
X139170214Y-97717000D01*
X139113071Y-97602714D01*
X139113071Y-97488428D01*
X139170214Y-97374142D01*
X139227357Y-97317000D01*
X139341642Y-97259857D01*
X139627357Y-97259857D01*
X139798785Y-97317000D01*
X140141642Y-97259857D02*
X140827357Y-97259857D01*
X140484500Y-98459857D02*
X140484500Y-97259857D01*
X141227357Y-98459857D02*
X141227357Y-97259857D01*
X141627357Y-98117000D01*
X142027357Y-97259857D01*
X142027357Y-98459857D01*
X142313071Y-98574142D02*
X143227357Y-98574142D01*
X144198785Y-98459857D02*
X143798785Y-97888428D01*
X143513071Y-98459857D02*
X143513071Y-97259857D01*
X143970214Y-97259857D01*
X144084500Y-97317000D01*
X144141642Y-97374142D01*
X144198785Y-97488428D01*
X144198785Y-97659857D01*
X144141642Y-97774142D01*
X144084500Y-97831285D01*
X143970214Y-97888428D01*
X143513071Y-97888428D01*
X144655928Y-98402714D02*
X144827357Y-98459857D01*
X145113071Y-98459857D01*
X145227357Y-98402714D01*
X145284500Y-98345571D01*
X145341642Y-98231285D01*
X145341642Y-98117000D01*
X145284500Y-98002714D01*
X145227357Y-97945571D01*
X145113071Y-97888428D01*
X144884500Y-97831285D01*
X144770214Y-97774142D01*
X144713071Y-97717000D01*
X144655928Y-97602714D01*
X144655928Y-97488428D01*
X144713071Y-97374142D01*
X144770214Y-97317000D01*
X144884500Y-97259857D01*
X145170214Y-97259857D01*
X145341642Y-97317000D01*
X145684500Y-97259857D02*
X146370214Y-97259857D01*
X146027357Y-98459857D02*
X146027357Y-97259857D01*
X149266714Y-62207785D02*
X149666714Y-62207785D01*
X149838142Y-62836357D02*
X149266714Y-62836357D01*
X149266714Y-61636357D01*
X149838142Y-61636357D01*
X150295285Y-62779214D02*
X150466714Y-62836357D01*
X150752428Y-62836357D01*
X150866714Y-62779214D01*
X150923857Y-62722071D01*
X150981000Y-62607785D01*
X150981000Y-62493500D01*
X150923857Y-62379214D01*
X150866714Y-62322071D01*
X150752428Y-62264928D01*
X150523857Y-62207785D01*
X150409571Y-62150642D01*
X150352428Y-62093500D01*
X150295285Y-61979214D01*
X150295285Y-61864928D01*
X150352428Y-61750642D01*
X150409571Y-61693500D01*
X150523857Y-61636357D01*
X150809571Y-61636357D01*
X150981000Y-61693500D01*
X151495285Y-62836357D02*
X151495285Y-61636357D01*
X151952428Y-61636357D01*
X152066714Y-61693500D01*
X152123857Y-61750642D01*
X152181000Y-61864928D01*
X152181000Y-62036357D01*
X152123857Y-62150642D01*
X152066714Y-62207785D01*
X151952428Y-62264928D01*
X151495285Y-62264928D01*
X152409571Y-62950642D02*
X153323857Y-62950642D01*
X154295285Y-62836357D02*
X153895285Y-62264928D01*
X153609571Y-62836357D02*
X153609571Y-61636357D01*
X154066714Y-61636357D01*
X154181000Y-61693500D01*
X154238142Y-61750642D01*
X154295285Y-61864928D01*
X154295285Y-62036357D01*
X154238142Y-62150642D01*
X154181000Y-62207785D01*
X154066714Y-62264928D01*
X153609571Y-62264928D01*
X154752428Y-62779214D02*
X154923857Y-62836357D01*
X155209571Y-62836357D01*
X155323857Y-62779214D01*
X155381000Y-62722071D01*
X155438142Y-62607785D01*
X155438142Y-62493500D01*
X155381000Y-62379214D01*
X155323857Y-62322071D01*
X155209571Y-62264928D01*
X154981000Y-62207785D01*
X154866714Y-62150642D01*
X154809571Y-62093500D01*
X154752428Y-61979214D01*
X154752428Y-61864928D01*
X154809571Y-61750642D01*
X154866714Y-61693500D01*
X154981000Y-61636357D01*
X155266714Y-61636357D01*
X155438142Y-61693500D01*
X155781000Y-61636357D02*
X156466714Y-61636357D01*
X156123857Y-62836357D02*
X156123857Y-61636357D01*
X203492214Y-98142500D02*
X203377928Y-98085357D01*
X203206500Y-98085357D01*
X203035071Y-98142500D01*
X202920785Y-98256785D01*
X202863642Y-98371071D01*
X202806500Y-98599642D01*
X202806500Y-98771071D01*
X202863642Y-98999642D01*
X202920785Y-99113928D01*
X203035071Y-99228214D01*
X203206500Y-99285357D01*
X203320785Y-99285357D01*
X203492214Y-99228214D01*
X203549357Y-99171071D01*
X203549357Y-98771071D01*
X203320785Y-98771071D01*
X204063642Y-99285357D02*
X204063642Y-98085357D01*
X204749357Y-99285357D01*
X204749357Y-98085357D01*
X205320785Y-99285357D02*
X205320785Y-98085357D01*
X205606500Y-98085357D01*
X205777928Y-98142500D01*
X205892214Y-98256785D01*
X205949357Y-98371071D01*
X206006500Y-98599642D01*
X206006500Y-98771071D01*
X205949357Y-98999642D01*
X205892214Y-99113928D01*
X205777928Y-99228214D01*
X205606500Y-99285357D01*
X205320785Y-99285357D01*
X203492214Y-83156500D02*
X203377928Y-83099357D01*
X203206500Y-83099357D01*
X203035071Y-83156500D01*
X202920785Y-83270785D01*
X202863642Y-83385071D01*
X202806500Y-83613642D01*
X202806500Y-83785071D01*
X202863642Y-84013642D01*
X202920785Y-84127928D01*
X203035071Y-84242214D01*
X203206500Y-84299357D01*
X203320785Y-84299357D01*
X203492214Y-84242214D01*
X203549357Y-84185071D01*
X203549357Y-83785071D01*
X203320785Y-83785071D01*
X204063642Y-84299357D02*
X204063642Y-83099357D01*
X204749357Y-84299357D01*
X204749357Y-83099357D01*
X205320785Y-84299357D02*
X205320785Y-83099357D01*
X205606500Y-83099357D01*
X205777928Y-83156500D01*
X205892214Y-83270785D01*
X205949357Y-83385071D01*
X206006500Y-83613642D01*
X206006500Y-83785071D01*
X205949357Y-84013642D01*
X205892214Y-84127928D01*
X205777928Y-84242214D01*
X205606500Y-84299357D01*
X205320785Y-84299357D01*
D11*
X201557214Y-90174071D02*
X202485785Y-90174071D01*
X201985785Y-90745500D01*
X202200071Y-90745500D01*
X202342928Y-90816928D01*
X202414357Y-90888357D01*
X202485785Y-91031214D01*
X202485785Y-91388357D01*
X202414357Y-91531214D01*
X202342928Y-91602642D01*
X202200071Y-91674071D01*
X201771500Y-91674071D01*
X201628642Y-91602642D01*
X201557214Y-91531214D01*
X203128642Y-91531214D02*
X203200071Y-91602642D01*
X203128642Y-91674071D01*
X203057214Y-91602642D01*
X203128642Y-91531214D01*
X203128642Y-91674071D01*
X203700071Y-90174071D02*
X204628642Y-90174071D01*
X204128642Y-90745500D01*
X204342928Y-90745500D01*
X204485785Y-90816928D01*
X204557214Y-90888357D01*
X204628642Y-91031214D01*
X204628642Y-91388357D01*
X204557214Y-91531214D01*
X204485785Y-91602642D01*
X204342928Y-91674071D01*
X203914357Y-91674071D01*
X203771500Y-91602642D01*
X203700071Y-91531214D01*
X205057214Y-90174071D02*
X205557214Y-91674071D01*
X206057214Y-90174071D01*
X203581142Y-95190571D02*
X204438285Y-95190571D01*
X204009714Y-96690571D02*
X204009714Y-95190571D01*
X204795428Y-95190571D02*
X205795428Y-96690571D01*
X205795428Y-95190571D02*
X204795428Y-96690571D01*
X204474000Y-94277571D02*
X203974000Y-93563285D01*
X203616857Y-94277571D02*
X203616857Y-92777571D01*
X204188285Y-92777571D01*
X204331142Y-92849000D01*
X204402571Y-92920428D01*
X204474000Y-93063285D01*
X204474000Y-93277571D01*
X204402571Y-93420428D01*
X204331142Y-93491857D01*
X204188285Y-93563285D01*
X203616857Y-93563285D01*
X204974000Y-92777571D02*
X205974000Y-94277571D01*
X205974000Y-92777571D02*
X204974000Y-94277571D01*
X198219142Y-91646142D02*
X198290571Y-91431857D01*
X198290571Y-91074714D01*
X198219142Y-90931857D01*
X198147714Y-90860428D01*
X198004857Y-90789000D01*
X197862000Y-90789000D01*
X197719142Y-90860428D01*
X197647714Y-90931857D01*
X197576285Y-91074714D01*
X197504857Y-91360428D01*
X197433428Y-91503285D01*
X197362000Y-91574714D01*
X197219142Y-91646142D01*
X197076285Y-91646142D01*
X196933428Y-91574714D01*
X196862000Y-91503285D01*
X196790571Y-91360428D01*
X196790571Y-91003285D01*
X196862000Y-90789000D01*
X196790571Y-90360428D02*
X196790571Y-89503285D01*
X198290571Y-89931857D02*
X196790571Y-89931857D01*
X198290571Y-89003285D02*
X196790571Y-89003285D01*
X197862000Y-88503285D01*
X196790571Y-88003285D01*
X198290571Y-88003285D01*
X192361357Y-91638214D02*
X192361357Y-91138214D01*
X193147071Y-90923928D02*
X193147071Y-91638214D01*
X191647071Y-91638214D01*
X191647071Y-90923928D01*
X193075642Y-90352500D02*
X193147071Y-90138214D01*
X193147071Y-89781071D01*
X193075642Y-89638214D01*
X193004214Y-89566785D01*
X192861357Y-89495357D01*
X192718500Y-89495357D01*
X192575642Y-89566785D01*
X192504214Y-89638214D01*
X192432785Y-89781071D01*
X192361357Y-90066785D01*
X192289928Y-90209642D01*
X192218500Y-90281071D01*
X192075642Y-90352500D01*
X191932785Y-90352500D01*
X191789928Y-90281071D01*
X191718500Y-90209642D01*
X191647071Y-90066785D01*
X191647071Y-89709642D01*
X191718500Y-89495357D01*
X193147071Y-88852500D02*
X191647071Y-88852500D01*
X191647071Y-88281071D01*
X191718500Y-88138214D01*
X191789928Y-88066785D01*
X191932785Y-87995357D01*
X192147071Y-87995357D01*
X192289928Y-88066785D01*
X192361357Y-88138214D01*
X192432785Y-88281071D01*
X192432785Y-88852500D01*
X189567357Y-100841285D02*
X189567357Y-100341285D01*
X190353071Y-100127000D02*
X190353071Y-100841285D01*
X188853071Y-100841285D01*
X188853071Y-100127000D01*
X190281642Y-99555571D02*
X190353071Y-99341285D01*
X190353071Y-98984142D01*
X190281642Y-98841285D01*
X190210214Y-98769857D01*
X190067357Y-98698428D01*
X189924500Y-98698428D01*
X189781642Y-98769857D01*
X189710214Y-98841285D01*
X189638785Y-98984142D01*
X189567357Y-99269857D01*
X189495928Y-99412714D01*
X189424500Y-99484142D01*
X189281642Y-99555571D01*
X189138785Y-99555571D01*
X188995928Y-99484142D01*
X188924500Y-99412714D01*
X188853071Y-99269857D01*
X188853071Y-98912714D01*
X188924500Y-98698428D01*
X190353071Y-98055571D02*
X188853071Y-98055571D01*
X188853071Y-97484142D01*
X188924500Y-97341285D01*
X188995928Y-97269857D01*
X189138785Y-97198428D01*
X189353071Y-97198428D01*
X189495928Y-97269857D01*
X189567357Y-97341285D01*
X189638785Y-97484142D01*
X189638785Y-98055571D01*
X189781642Y-96555571D02*
X189781642Y-95412714D01*
X188853071Y-94698428D02*
X190067357Y-94698428D01*
X190210214Y-94627000D01*
X190281642Y-94555571D01*
X190353071Y-94412714D01*
X190353071Y-94127000D01*
X190281642Y-93984142D01*
X190210214Y-93912714D01*
X190067357Y-93841285D01*
X188853071Y-93841285D01*
X189924500Y-93198428D02*
X189924500Y-92484142D01*
X190353071Y-93341285D02*
X188853071Y-92841285D01*
X190353071Y-92341285D01*
X190353071Y-90984142D02*
X189638785Y-91484142D01*
X190353071Y-91841285D02*
X188853071Y-91841285D01*
X188853071Y-91269857D01*
X188924500Y-91127000D01*
X188995928Y-91055571D01*
X189138785Y-90984142D01*
X189353071Y-90984142D01*
X189495928Y-91055571D01*
X189567357Y-91127000D01*
X189638785Y-91269857D01*
X189638785Y-91841285D01*
X188853071Y-90555571D02*
X188853071Y-89698428D01*
X190353071Y-90127000D02*
X188853071Y-90127000D01*
D10*
X196967428Y-83392095D02*
X196224571Y-83392095D01*
X196596000Y-83392095D02*
X196596000Y-82092095D01*
X196472190Y-82277809D01*
X196348380Y-82401619D01*
X196224571Y-82463523D01*
X196534095Y-77012095D02*
X196657904Y-77012095D01*
X196781714Y-77074000D01*
X196843619Y-77135904D01*
X196905523Y-77259714D01*
X196967428Y-77507333D01*
X196967428Y-77816857D01*
X196905523Y-78064476D01*
X196843619Y-78188285D01*
X196781714Y-78250190D01*
X196657904Y-78312095D01*
X196534095Y-78312095D01*
X196410285Y-78250190D01*
X196348380Y-78188285D01*
X196286476Y-78064476D01*
X196224571Y-77816857D01*
X196224571Y-77507333D01*
X196286476Y-77259714D01*
X196348380Y-77135904D01*
X196410285Y-77074000D01*
X196534095Y-77012095D01*
X203954976Y-78820095D02*
X203954976Y-77520095D01*
X204264500Y-77520095D01*
X204450214Y-77582000D01*
X204574023Y-77705809D01*
X204635928Y-77829619D01*
X204697833Y-78077238D01*
X204697833Y-78262952D01*
X204635928Y-78510571D01*
X204574023Y-78634380D01*
X204450214Y-78758190D01*
X204264500Y-78820095D01*
X203954976Y-78820095D01*
X205440690Y-78077238D02*
X205316880Y-78015333D01*
X205254976Y-77953428D01*
X205193071Y-77829619D01*
X205193071Y-77767714D01*
X205254976Y-77643904D01*
X205316880Y-77582000D01*
X205440690Y-77520095D01*
X205688309Y-77520095D01*
X205812119Y-77582000D01*
X205874023Y-77643904D01*
X205935928Y-77767714D01*
X205935928Y-77829619D01*
X205874023Y-77953428D01*
X205812119Y-78015333D01*
X205688309Y-78077238D01*
X205440690Y-78077238D01*
X205316880Y-78139142D01*
X205254976Y-78201047D01*
X205193071Y-78324857D01*
X205193071Y-78572476D01*
X205254976Y-78696285D01*
X205316880Y-78758190D01*
X205440690Y-78820095D01*
X205688309Y-78820095D01*
X205812119Y-78758190D01*
X205874023Y-78696285D01*
X205935928Y-78572476D01*
X205935928Y-78324857D01*
X205874023Y-78201047D01*
X205812119Y-78139142D01*
X205688309Y-78077238D01*
X203954976Y-76153095D02*
X203954976Y-74853095D01*
X204264500Y-74853095D01*
X204450214Y-74915000D01*
X204574023Y-75038809D01*
X204635928Y-75162619D01*
X204697833Y-75410238D01*
X204697833Y-75595952D01*
X204635928Y-75843571D01*
X204574023Y-75967380D01*
X204450214Y-76091190D01*
X204264500Y-76153095D01*
X203954976Y-76153095D01*
X205131166Y-74853095D02*
X205997833Y-74853095D01*
X205440690Y-76153095D01*
X203954976Y-73676595D02*
X203954976Y-72376595D01*
X204264500Y-72376595D01*
X204450214Y-72438500D01*
X204574023Y-72562309D01*
X204635928Y-72686119D01*
X204697833Y-72933738D01*
X204697833Y-73119452D01*
X204635928Y-73367071D01*
X204574023Y-73490880D01*
X204450214Y-73614690D01*
X204264500Y-73676595D01*
X203954976Y-73676595D01*
X205812119Y-72376595D02*
X205564500Y-72376595D01*
X205440690Y-72438500D01*
X205378785Y-72500404D01*
X205254976Y-72686119D01*
X205193071Y-72933738D01*
X205193071Y-73428976D01*
X205254976Y-73552785D01*
X205316880Y-73614690D01*
X205440690Y-73676595D01*
X205688309Y-73676595D01*
X205812119Y-73614690D01*
X205874023Y-73552785D01*
X205935928Y-73428976D01*
X205935928Y-73119452D01*
X205874023Y-72995642D01*
X205812119Y-72933738D01*
X205688309Y-72871833D01*
X205440690Y-72871833D01*
X205316880Y-72933738D01*
X205254976Y-72995642D01*
X205193071Y-73119452D01*
X203954976Y-71073095D02*
X203954976Y-69773095D01*
X204264500Y-69773095D01*
X204450214Y-69835000D01*
X204574023Y-69958809D01*
X204635928Y-70082619D01*
X204697833Y-70330238D01*
X204697833Y-70515952D01*
X204635928Y-70763571D01*
X204574023Y-70887380D01*
X204450214Y-71011190D01*
X204264500Y-71073095D01*
X203954976Y-71073095D01*
X205874023Y-69773095D02*
X205254976Y-69773095D01*
X205193071Y-70392142D01*
X205254976Y-70330238D01*
X205378785Y-70268333D01*
X205688309Y-70268333D01*
X205812119Y-70330238D01*
X205874023Y-70392142D01*
X205935928Y-70515952D01*
X205935928Y-70825476D01*
X205874023Y-70949285D01*
X205812119Y-71011190D01*
X205688309Y-71073095D01*
X205378785Y-71073095D01*
X205254976Y-71011190D01*
X205193071Y-70949285D01*
X203891476Y-68406095D02*
X203891476Y-67106095D01*
X204201000Y-67106095D01*
X204386714Y-67168000D01*
X204510523Y-67291809D01*
X204572428Y-67415619D01*
X204634333Y-67663238D01*
X204634333Y-67848952D01*
X204572428Y-68096571D01*
X204510523Y-68220380D01*
X204386714Y-68344190D01*
X204201000Y-68406095D01*
X203891476Y-68406095D01*
X205067666Y-67106095D02*
X205872428Y-67106095D01*
X205439095Y-67601333D01*
X205624809Y-67601333D01*
X205748619Y-67663238D01*
X205810523Y-67725142D01*
X205872428Y-67848952D01*
X205872428Y-68158476D01*
X205810523Y-68282285D01*
X205748619Y-68344190D01*
X205624809Y-68406095D01*
X205253380Y-68406095D01*
X205129571Y-68344190D01*
X205067666Y-68282285D01*
D11*
X203616857Y-66083571D02*
X203616857Y-64583571D01*
X203974000Y-64583571D01*
X204188285Y-64655000D01*
X204331142Y-64797857D01*
X204402571Y-64940714D01*
X204474000Y-65226428D01*
X204474000Y-65440714D01*
X204402571Y-65726428D01*
X204331142Y-65869285D01*
X204188285Y-66012142D01*
X203974000Y-66083571D01*
X203616857Y-66083571D01*
X205045428Y-64726428D02*
X205116857Y-64655000D01*
X205259714Y-64583571D01*
X205616857Y-64583571D01*
X205759714Y-64655000D01*
X205831142Y-64726428D01*
X205902571Y-64869285D01*
X205902571Y-65012142D01*
X205831142Y-65226428D01*
X204974000Y-66083571D01*
X205902571Y-66083571D01*
X203616857Y-63543571D02*
X203616857Y-62043571D01*
X203974000Y-62043571D01*
X204188285Y-62115000D01*
X204331142Y-62257857D01*
X204402571Y-62400714D01*
X204474000Y-62686428D01*
X204474000Y-62900714D01*
X204402571Y-63186428D01*
X204331142Y-63329285D01*
X204188285Y-63472142D01*
X203974000Y-63543571D01*
X203616857Y-63543571D01*
X205902571Y-63543571D02*
X205045428Y-63543571D01*
X205474000Y-63543571D02*
X205474000Y-62043571D01*
X205331142Y-62257857D01*
X205188285Y-62400714D01*
X205045428Y-62472142D01*
X203616857Y-61067071D02*
X203616857Y-59567071D01*
X203974000Y-59567071D01*
X204188285Y-59638500D01*
X204331142Y-59781357D01*
X204402571Y-59924214D01*
X204474000Y-60209928D01*
X204474000Y-60424214D01*
X204402571Y-60709928D01*
X204331142Y-60852785D01*
X204188285Y-60995642D01*
X203974000Y-61067071D01*
X203616857Y-61067071D01*
X205402571Y-59567071D02*
X205545428Y-59567071D01*
X205688285Y-59638500D01*
X205759714Y-59709928D01*
X205831142Y-59852785D01*
X205902571Y-60138500D01*
X205902571Y-60495642D01*
X205831142Y-60781357D01*
X205759714Y-60924214D01*
X205688285Y-60995642D01*
X205545428Y-61067071D01*
X205402571Y-61067071D01*
X205259714Y-60995642D01*
X205188285Y-60924214D01*
X205116857Y-60781357D01*
X205045428Y-60495642D01*
X205045428Y-60138500D01*
X205116857Y-59852785D01*
X205188285Y-59709928D01*
X205259714Y-59638500D01*
X205402571Y-59567071D01*
X198678571Y-87407142D02*
X199821428Y-87407142D01*
X199250000Y-87978571D02*
X199250000Y-86835714D01*
D12*
X175852380Y-91652380D02*
X175947619Y-91652380D01*
X176042857Y-91700000D01*
X176090476Y-91747619D01*
X176138095Y-91842857D01*
X176185714Y-92033333D01*
X176185714Y-92271428D01*
X176138095Y-92461904D01*
X176090476Y-92557142D01*
X176042857Y-92604761D01*
X175947619Y-92652380D01*
X175852380Y-92652380D01*
X175757142Y-92604761D01*
X175709523Y-92557142D01*
X175661904Y-92461904D01*
X175614285Y-92271428D01*
X175614285Y-92033333D01*
X175661904Y-91842857D01*
X175709523Y-91747619D01*
X175757142Y-91700000D01*
X175852380Y-91652380D01*
X171085714Y-92672380D02*
X170514285Y-92672380D01*
X170800000Y-92672380D02*
X170800000Y-91672380D01*
X170704761Y-91815238D01*
X170609523Y-91910476D01*
X170514285Y-91958095D01*
X164936666Y-94538571D02*
X165079523Y-94586190D01*
X165127142Y-94633809D01*
X165174761Y-94729047D01*
X165174761Y-94871904D01*
X165127142Y-94967142D01*
X165079523Y-95014761D01*
X164984285Y-95062380D01*
X164603333Y-95062380D01*
X164603333Y-94062380D01*
X164936666Y-94062380D01*
X165031904Y-94110000D01*
X165079523Y-94157619D01*
X165127142Y-94252857D01*
X165127142Y-94348095D01*
X165079523Y-94443333D01*
X165031904Y-94490952D01*
X164936666Y-94538571D01*
X164603333Y-94538571D01*
X165793809Y-94062380D02*
X165984285Y-94062380D01*
X166079523Y-94110000D01*
X166174761Y-94205238D01*
X166222380Y-94395714D01*
X166222380Y-94729047D01*
X166174761Y-94919523D01*
X166079523Y-95014761D01*
X165984285Y-95062380D01*
X165793809Y-95062380D01*
X165698571Y-95014761D01*
X165603333Y-94919523D01*
X165555714Y-94729047D01*
X165555714Y-94395714D01*
X165603333Y-94205238D01*
X165698571Y-94110000D01*
X165793809Y-94062380D01*
X166841428Y-94062380D02*
X167031904Y-94062380D01*
X167127142Y-94110000D01*
X167222380Y-94205238D01*
X167270000Y-94395714D01*
X167270000Y-94729047D01*
X167222380Y-94919523D01*
X167127142Y-95014761D01*
X167031904Y-95062380D01*
X166841428Y-95062380D01*
X166746190Y-95014761D01*
X166650952Y-94919523D01*
X166603333Y-94729047D01*
X166603333Y-94395714D01*
X166650952Y-94205238D01*
X166746190Y-94110000D01*
X166841428Y-94062380D01*
X167555714Y-94062380D02*
X168127142Y-94062380D01*
X167841428Y-95062380D02*
X167841428Y-94062380D01*
X168984285Y-95062380D02*
X168412857Y-95062380D01*
X168698571Y-95062380D02*
X168698571Y-94062380D01*
X168603333Y-94205238D01*
X168508095Y-94300476D01*
X168412857Y-94348095D01*
X178363571Y-99559833D02*
X178411190Y-99416976D01*
X178458809Y-99369357D01*
X178554047Y-99321738D01*
X178696904Y-99321738D01*
X178792142Y-99369357D01*
X178839761Y-99416976D01*
X178887380Y-99512214D01*
X178887380Y-99893166D01*
X177887380Y-99893166D01*
X177887380Y-99559833D01*
X177935000Y-99464595D01*
X177982619Y-99416976D01*
X178077857Y-99369357D01*
X178173095Y-99369357D01*
X178268333Y-99416976D01*
X178315952Y-99464595D01*
X178363571Y-99559833D01*
X178363571Y-99893166D01*
X177887380Y-98702690D02*
X177887380Y-98512214D01*
X177935000Y-98416976D01*
X178030238Y-98321738D01*
X178220714Y-98274119D01*
X178554047Y-98274119D01*
X178744523Y-98321738D01*
X178839761Y-98416976D01*
X178887380Y-98512214D01*
X178887380Y-98702690D01*
X178839761Y-98797928D01*
X178744523Y-98893166D01*
X178554047Y-98940785D01*
X178220714Y-98940785D01*
X178030238Y-98893166D01*
X177935000Y-98797928D01*
X177887380Y-98702690D01*
X177887380Y-97655071D02*
X177887380Y-97464595D01*
X177935000Y-97369357D01*
X178030238Y-97274119D01*
X178220714Y-97226500D01*
X178554047Y-97226500D01*
X178744523Y-97274119D01*
X178839761Y-97369357D01*
X178887380Y-97464595D01*
X178887380Y-97655071D01*
X178839761Y-97750309D01*
X178744523Y-97845547D01*
X178554047Y-97893166D01*
X178220714Y-97893166D01*
X178030238Y-97845547D01*
X177935000Y-97750309D01*
X177887380Y-97655071D01*
X177887380Y-96940785D02*
X177887380Y-96369357D01*
X178887380Y-96655071D02*
X177887380Y-96655071D01*
X177887380Y-95845547D02*
X177887380Y-95750309D01*
X177935000Y-95655071D01*
X177982619Y-95607452D01*
X178077857Y-95559833D01*
X178268333Y-95512214D01*
X178506428Y-95512214D01*
X178696904Y-95559833D01*
X178792142Y-95607452D01*
X178839761Y-95655071D01*
X178887380Y-95750309D01*
X178887380Y-95845547D01*
X178839761Y-95940785D01*
X178792142Y-95988404D01*
X178696904Y-96036023D01*
X178506428Y-96083642D01*
X178268333Y-96083642D01*
X178077857Y-96036023D01*
X177982619Y-95988404D01*
X177935000Y-95940785D01*
X177887380Y-95845547D01*
X180688095Y-96950000D02*
X180592857Y-96902380D01*
X180450000Y-96902380D01*
X180307142Y-96950000D01*
X180211904Y-97045238D01*
X180164285Y-97140476D01*
X180116666Y-97330952D01*
X180116666Y-97473809D01*
X180164285Y-97664285D01*
X180211904Y-97759523D01*
X180307142Y-97854761D01*
X180450000Y-97902380D01*
X180545238Y-97902380D01*
X180688095Y-97854761D01*
X180735714Y-97807142D01*
X180735714Y-97473809D01*
X180545238Y-97473809D01*
X181164285Y-97902380D02*
X181164285Y-96902380D01*
X181735714Y-97902380D01*
X181735714Y-96902380D01*
X182211904Y-97902380D02*
X182211904Y-96902380D01*
X182450000Y-96902380D01*
X182592857Y-96950000D01*
X182688095Y-97045238D01*
X182735714Y-97140476D01*
X182783333Y-97330952D01*
X182783333Y-97473809D01*
X182735714Y-97664285D01*
X182688095Y-97759523D01*
X182592857Y-97854761D01*
X182450000Y-97902380D01*
X182211904Y-97902380D01*
X180083809Y-89482380D02*
X180702857Y-89482380D01*
X180369523Y-89863333D01*
X180512380Y-89863333D01*
X180607619Y-89910952D01*
X180655238Y-89958571D01*
X180702857Y-90053809D01*
X180702857Y-90291904D01*
X180655238Y-90387142D01*
X180607619Y-90434761D01*
X180512380Y-90482380D01*
X180226666Y-90482380D01*
X180131428Y-90434761D01*
X180083809Y-90387142D01*
X181179047Y-90434761D02*
X181179047Y-90482380D01*
X181131428Y-90577619D01*
X181083809Y-90625238D01*
X181512380Y-89482380D02*
X182131428Y-89482380D01*
X181798095Y-89863333D01*
X181940952Y-89863333D01*
X182036190Y-89910952D01*
X182083809Y-89958571D01*
X182131428Y-90053809D01*
X182131428Y-90291904D01*
X182083809Y-90387142D01*
X182036190Y-90434761D01*
X181940952Y-90482380D01*
X181655238Y-90482380D01*
X181560000Y-90434761D01*
X181512380Y-90387142D01*
X182417142Y-89482380D02*
X182750476Y-90482380D01*
X183083809Y-89482380D01*
X179060952Y-95424761D02*
X179203809Y-95472380D01*
X179441904Y-95472380D01*
X179537142Y-95424761D01*
X179584761Y-95377142D01*
X179632380Y-95281904D01*
X179632380Y-95186666D01*
X179584761Y-95091428D01*
X179537142Y-95043809D01*
X179441904Y-94996190D01*
X179251428Y-94948571D01*
X179156190Y-94900952D01*
X179108571Y-94853333D01*
X179060952Y-94758095D01*
X179060952Y-94662857D01*
X179108571Y-94567619D01*
X179156190Y-94520000D01*
X179251428Y-94472380D01*
X179489523Y-94472380D01*
X179632380Y-94520000D01*
X179965714Y-94472380D02*
X180203809Y-95472380D01*
X180394285Y-94758095D01*
X180584761Y-95472380D01*
X180822857Y-94472380D01*
X181203809Y-95472380D02*
X181203809Y-94472380D01*
X181441904Y-94472380D01*
X181584761Y-94520000D01*
X181680000Y-94615238D01*
X181727619Y-94710476D01*
X181775238Y-94900952D01*
X181775238Y-95043809D01*
X181727619Y-95234285D01*
X181680000Y-95329523D01*
X181584761Y-95424761D01*
X181441904Y-95472380D01*
X181203809Y-95472380D01*
X182203809Y-95472380D02*
X182203809Y-94472380D01*
X182870476Y-94472380D02*
X183060952Y-94472380D01*
X183156190Y-94520000D01*
X183251428Y-94615238D01*
X183299047Y-94805714D01*
X183299047Y-95139047D01*
X183251428Y-95329523D01*
X183156190Y-95424761D01*
X183060952Y-95472380D01*
X182870476Y-95472380D01*
X182775238Y-95424761D01*
X182680000Y-95329523D01*
X182632380Y-95139047D01*
X182632380Y-94805714D01*
X182680000Y-94615238D01*
X182775238Y-94520000D01*
X182870476Y-94472380D01*
X178808095Y-92944761D02*
X178950952Y-92992380D01*
X179189047Y-92992380D01*
X179284285Y-92944761D01*
X179331904Y-92897142D01*
X179379523Y-92801904D01*
X179379523Y-92706666D01*
X179331904Y-92611428D01*
X179284285Y-92563809D01*
X179189047Y-92516190D01*
X178998571Y-92468571D01*
X178903333Y-92420952D01*
X178855714Y-92373333D01*
X178808095Y-92278095D01*
X178808095Y-92182857D01*
X178855714Y-92087619D01*
X178903333Y-92040000D01*
X178998571Y-91992380D01*
X179236666Y-91992380D01*
X179379523Y-92040000D01*
X179712857Y-91992380D02*
X179950952Y-92992380D01*
X180141428Y-92278095D01*
X180331904Y-92992380D01*
X180570000Y-91992380D01*
X181522380Y-92897142D02*
X181474761Y-92944761D01*
X181331904Y-92992380D01*
X181236666Y-92992380D01*
X181093809Y-92944761D01*
X180998571Y-92849523D01*
X180950952Y-92754285D01*
X180903333Y-92563809D01*
X180903333Y-92420952D01*
X180950952Y-92230476D01*
X180998571Y-92135238D01*
X181093809Y-92040000D01*
X181236666Y-91992380D01*
X181331904Y-91992380D01*
X181474761Y-92040000D01*
X181522380Y-92087619D01*
X182427142Y-92992380D02*
X181950952Y-92992380D01*
X181950952Y-91992380D01*
X182760476Y-92992380D02*
X182760476Y-91992380D01*
X183331904Y-92992380D02*
X182903333Y-92420952D01*
X183331904Y-91992380D02*
X182760476Y-92563809D01*
D13*
X167680000Y-56900000D02*
X167070000Y-56900000D01*
X167680000Y-56900000D02*
X167680000Y-49280000D01*
X167680000Y-73520000D02*
X167680000Y-72900000D01*
X169800000Y-73520000D02*
X167680000Y-73520000D01*
X183920000Y-73520000D02*
X181800000Y-73520000D01*
X183920000Y-72900000D02*
X183920000Y-73520000D01*
X183920000Y-49280000D02*
X183920000Y-56900000D01*
X167680000Y-49280000D02*
X183920000Y-49280000D01*
X160490000Y-116863922D02*
X160490000Y-117381078D01*
X161910000Y-116863922D02*
X161910000Y-117381078D01*
X143751078Y-103820000D02*
X143233922Y-103820000D01*
X143751078Y-105240000D02*
X143233922Y-105240000D01*
X181800000Y-110296078D02*
X181800000Y-109778922D01*
X180380000Y-110296078D02*
X180380000Y-109778922D01*
X143811078Y-107620000D02*
X143293922Y-107620000D01*
X143811078Y-109040000D02*
X143293922Y-109040000D01*
X169210000Y-106373922D02*
X169210000Y-106891078D01*
X167790000Y-106373922D02*
X167790000Y-106891078D01*
X164100000Y-106218922D02*
X164100000Y-106736078D01*
X165520000Y-106218922D02*
X165520000Y-106736078D01*
X158350000Y-102046078D02*
X158350000Y-101528922D01*
X159770000Y-102046078D02*
X159770000Y-101528922D01*
X177420000Y-123056078D02*
X177420000Y-122538922D01*
X178840000Y-123056078D02*
X178840000Y-122538922D01*
X153460000Y-102131078D02*
X153460000Y-101613922D01*
X152040000Y-102131078D02*
X152040000Y-101613922D01*
X168738578Y-101970000D02*
X168221422Y-101970000D01*
X168738578Y-100550000D02*
X168221422Y-100550000D01*
X133530000Y-59724775D02*
X134030000Y-59724775D01*
X133780000Y-59974775D02*
X133780000Y-59474775D01*
X134971000Y-54569000D02*
X135539000Y-54569000D01*
X134737000Y-54609000D02*
X135773000Y-54609000D01*
X134578000Y-54649000D02*
X135932000Y-54649000D01*
X134450000Y-54689000D02*
X136060000Y-54689000D01*
X134340000Y-54729000D02*
X136170000Y-54729000D01*
X134244000Y-54769000D02*
X136266000Y-54769000D01*
X134157000Y-54809000D02*
X136353000Y-54809000D01*
X134077000Y-54849000D02*
X136433000Y-54849000D01*
X136295000Y-54889000D02*
X136506000Y-54889000D01*
X134004000Y-54889000D02*
X134215000Y-54889000D01*
X136295000Y-54929000D02*
X136574000Y-54929000D01*
X133936000Y-54929000D02*
X134215000Y-54929000D01*
X136295000Y-54969000D02*
X136638000Y-54969000D01*
X133872000Y-54969000D02*
X134215000Y-54969000D01*
X136295000Y-55009000D02*
X136698000Y-55009000D01*
X133812000Y-55009000D02*
X134215000Y-55009000D01*
X136295000Y-55049000D02*
X136755000Y-55049000D01*
X133755000Y-55049000D02*
X134215000Y-55049000D01*
X136295000Y-55089000D02*
X136809000Y-55089000D01*
X133701000Y-55089000D02*
X134215000Y-55089000D01*
X136295000Y-55129000D02*
X136860000Y-55129000D01*
X133650000Y-55129000D02*
X134215000Y-55129000D01*
X136295000Y-55169000D02*
X136908000Y-55169000D01*
X133602000Y-55169000D02*
X134215000Y-55169000D01*
X136295000Y-55209000D02*
X136954000Y-55209000D01*
X133556000Y-55209000D02*
X134215000Y-55209000D01*
X136295000Y-55249000D02*
X136998000Y-55249000D01*
X133512000Y-55249000D02*
X134215000Y-55249000D01*
X136295000Y-55289000D02*
X137040000Y-55289000D01*
X133470000Y-55289000D02*
X134215000Y-55289000D01*
X136295000Y-55329000D02*
X137081000Y-55329000D01*
X133429000Y-55329000D02*
X134215000Y-55329000D01*
X136295000Y-55369000D02*
X137119000Y-55369000D01*
X133391000Y-55369000D02*
X134215000Y-55369000D01*
X136295000Y-55409000D02*
X137156000Y-55409000D01*
X133354000Y-55409000D02*
X134215000Y-55409000D01*
X136295000Y-55449000D02*
X137192000Y-55449000D01*
X133318000Y-55449000D02*
X134215000Y-55449000D01*
X136295000Y-55489000D02*
X137226000Y-55489000D01*
X133284000Y-55489000D02*
X134215000Y-55489000D01*
X136295000Y-55529000D02*
X137259000Y-55529000D01*
X133251000Y-55529000D02*
X134215000Y-55529000D01*
X136295000Y-55569000D02*
X137290000Y-55569000D01*
X133220000Y-55569000D02*
X134215000Y-55569000D01*
X136295000Y-55609000D02*
X137320000Y-55609000D01*
X133190000Y-55609000D02*
X134215000Y-55609000D01*
X136295000Y-55649000D02*
X137350000Y-55649000D01*
X133160000Y-55649000D02*
X134215000Y-55649000D01*
X136295000Y-55689000D02*
X137377000Y-55689000D01*
X133133000Y-55689000D02*
X134215000Y-55689000D01*
X136295000Y-55729000D02*
X137404000Y-55729000D01*
X133106000Y-55729000D02*
X134215000Y-55729000D01*
X136295000Y-55769000D02*
X137430000Y-55769000D01*
X133080000Y-55769000D02*
X134215000Y-55769000D01*
X136295000Y-55809000D02*
X137455000Y-55809000D01*
X133055000Y-55809000D02*
X134215000Y-55809000D01*
X136295000Y-55849000D02*
X137479000Y-55849000D01*
X133031000Y-55849000D02*
X134215000Y-55849000D01*
X136295000Y-55889000D02*
X137502000Y-55889000D01*
X133008000Y-55889000D02*
X134215000Y-55889000D01*
X136295000Y-55929000D02*
X137523000Y-55929000D01*
X132987000Y-55929000D02*
X134215000Y-55929000D01*
X136295000Y-55969000D02*
X137545000Y-55969000D01*
X132965000Y-55969000D02*
X134215000Y-55969000D01*
X136295000Y-56009000D02*
X137565000Y-56009000D01*
X132945000Y-56009000D02*
X134215000Y-56009000D01*
X136295000Y-56049000D02*
X137584000Y-56049000D01*
X132926000Y-56049000D02*
X134215000Y-56049000D01*
X136295000Y-56089000D02*
X137603000Y-56089000D01*
X132907000Y-56089000D02*
X134215000Y-56089000D01*
X136295000Y-56129000D02*
X137620000Y-56129000D01*
X132890000Y-56129000D02*
X134215000Y-56129000D01*
X136295000Y-56169000D02*
X137637000Y-56169000D01*
X132873000Y-56169000D02*
X134215000Y-56169000D01*
X136295000Y-56209000D02*
X137653000Y-56209000D01*
X132857000Y-56209000D02*
X134215000Y-56209000D01*
X136295000Y-56249000D02*
X137669000Y-56249000D01*
X132841000Y-56249000D02*
X134215000Y-56249000D01*
X136295000Y-56289000D02*
X137683000Y-56289000D01*
X132827000Y-56289000D02*
X134215000Y-56289000D01*
X136295000Y-56329000D02*
X137697000Y-56329000D01*
X132813000Y-56329000D02*
X134215000Y-56329000D01*
X136295000Y-56369000D02*
X137710000Y-56369000D01*
X132800000Y-56369000D02*
X134215000Y-56369000D01*
X136295000Y-56409000D02*
X137723000Y-56409000D01*
X132787000Y-56409000D02*
X134215000Y-56409000D01*
X136295000Y-56449000D02*
X137735000Y-56449000D01*
X132775000Y-56449000D02*
X134215000Y-56449000D01*
X136295000Y-56490000D02*
X137746000Y-56490000D01*
X132764000Y-56490000D02*
X134215000Y-56490000D01*
X136295000Y-56530000D02*
X137756000Y-56530000D01*
X132754000Y-56530000D02*
X134215000Y-56530000D01*
X136295000Y-56570000D02*
X137766000Y-56570000D01*
X132744000Y-56570000D02*
X134215000Y-56570000D01*
X136295000Y-56610000D02*
X137775000Y-56610000D01*
X132735000Y-56610000D02*
X134215000Y-56610000D01*
X136295000Y-56650000D02*
X137783000Y-56650000D01*
X132727000Y-56650000D02*
X134215000Y-56650000D01*
X136295000Y-56690000D02*
X137791000Y-56690000D01*
X132719000Y-56690000D02*
X134215000Y-56690000D01*
X136295000Y-56730000D02*
X137798000Y-56730000D01*
X132712000Y-56730000D02*
X134215000Y-56730000D01*
X136295000Y-56770000D02*
X137805000Y-56770000D01*
X132705000Y-56770000D02*
X134215000Y-56770000D01*
X136295000Y-56810000D02*
X137811000Y-56810000D01*
X132699000Y-56810000D02*
X134215000Y-56810000D01*
X136295000Y-56850000D02*
X137816000Y-56850000D01*
X132694000Y-56850000D02*
X134215000Y-56850000D01*
X136295000Y-56890000D02*
X137820000Y-56890000D01*
X132690000Y-56890000D02*
X134215000Y-56890000D01*
X136295000Y-56930000D02*
X137824000Y-56930000D01*
X132686000Y-56930000D02*
X134215000Y-56930000D01*
X132682000Y-56970000D02*
X137828000Y-56970000D01*
X132679000Y-57010000D02*
X137831000Y-57010000D01*
X132677000Y-57050000D02*
X137833000Y-57050000D01*
X132676000Y-57090000D02*
X137834000Y-57090000D01*
X132675000Y-57130000D02*
X137835000Y-57130000D01*
X132675000Y-57170000D02*
X137835000Y-57170000D01*
X137875000Y-57170000D02*
G75*
G03*
X137875000Y-57170000I-2620000J0D01*
G01*
X151310000Y-57434775D02*
X151810000Y-57434775D01*
X151560000Y-57684775D02*
X151560000Y-57184775D01*
X152751000Y-52279000D02*
X153319000Y-52279000D01*
X152517000Y-52319000D02*
X153553000Y-52319000D01*
X152358000Y-52359000D02*
X153712000Y-52359000D01*
X152230000Y-52399000D02*
X153840000Y-52399000D01*
X152120000Y-52439000D02*
X153950000Y-52439000D01*
X152024000Y-52479000D02*
X154046000Y-52479000D01*
X151937000Y-52519000D02*
X154133000Y-52519000D01*
X151857000Y-52559000D02*
X154213000Y-52559000D01*
X151784000Y-52599000D02*
X154286000Y-52599000D01*
X151716000Y-52639000D02*
X154354000Y-52639000D01*
X151652000Y-52679000D02*
X154418000Y-52679000D01*
X151592000Y-52719000D02*
X154478000Y-52719000D01*
X151535000Y-52759000D02*
X154535000Y-52759000D01*
X151481000Y-52799000D02*
X154589000Y-52799000D01*
X151430000Y-52839000D02*
X154640000Y-52839000D01*
X154075000Y-52879000D02*
X154688000Y-52879000D01*
X151382000Y-52879000D02*
X151995000Y-52879000D01*
X154075000Y-52919000D02*
X154734000Y-52919000D01*
X151336000Y-52919000D02*
X151995000Y-52919000D01*
X154075000Y-52959000D02*
X154778000Y-52959000D01*
X151292000Y-52959000D02*
X151995000Y-52959000D01*
X154075000Y-52999000D02*
X154820000Y-52999000D01*
X151250000Y-52999000D02*
X151995000Y-52999000D01*
X154075000Y-53039000D02*
X154861000Y-53039000D01*
X151209000Y-53039000D02*
X151995000Y-53039000D01*
X154075000Y-53079000D02*
X154899000Y-53079000D01*
X151171000Y-53079000D02*
X151995000Y-53079000D01*
X154075000Y-53119000D02*
X154936000Y-53119000D01*
X151134000Y-53119000D02*
X151995000Y-53119000D01*
X154075000Y-53159000D02*
X154972000Y-53159000D01*
X151098000Y-53159000D02*
X151995000Y-53159000D01*
X154075000Y-53199000D02*
X155006000Y-53199000D01*
X151064000Y-53199000D02*
X151995000Y-53199000D01*
X154075000Y-53239000D02*
X155039000Y-53239000D01*
X151031000Y-53239000D02*
X151995000Y-53239000D01*
X154075000Y-53279000D02*
X155070000Y-53279000D01*
X151000000Y-53279000D02*
X151995000Y-53279000D01*
X154075000Y-53319000D02*
X155100000Y-53319000D01*
X150970000Y-53319000D02*
X151995000Y-53319000D01*
X154075000Y-53359000D02*
X155130000Y-53359000D01*
X150940000Y-53359000D02*
X151995000Y-53359000D01*
X154075000Y-53399000D02*
X155157000Y-53399000D01*
X150913000Y-53399000D02*
X151995000Y-53399000D01*
X154075000Y-53439000D02*
X155184000Y-53439000D01*
X150886000Y-53439000D02*
X151995000Y-53439000D01*
X154075000Y-53479000D02*
X155210000Y-53479000D01*
X150860000Y-53479000D02*
X151995000Y-53479000D01*
X154075000Y-53519000D02*
X155235000Y-53519000D01*
X150835000Y-53519000D02*
X151995000Y-53519000D01*
X154075000Y-53559000D02*
X155259000Y-53559000D01*
X150811000Y-53559000D02*
X151995000Y-53559000D01*
X154075000Y-53599000D02*
X155282000Y-53599000D01*
X150788000Y-53599000D02*
X151995000Y-53599000D01*
X154075000Y-53639000D02*
X155303000Y-53639000D01*
X150767000Y-53639000D02*
X151995000Y-53639000D01*
X154075000Y-53679000D02*
X155325000Y-53679000D01*
X150745000Y-53679000D02*
X151995000Y-53679000D01*
X154075000Y-53719000D02*
X155345000Y-53719000D01*
X150725000Y-53719000D02*
X151995000Y-53719000D01*
X154075000Y-53759000D02*
X155364000Y-53759000D01*
X150706000Y-53759000D02*
X151995000Y-53759000D01*
X154075000Y-53799000D02*
X155383000Y-53799000D01*
X150687000Y-53799000D02*
X151995000Y-53799000D01*
X154075000Y-53839000D02*
X155400000Y-53839000D01*
X150670000Y-53839000D02*
X151995000Y-53839000D01*
X154075000Y-53879000D02*
X155417000Y-53879000D01*
X150653000Y-53879000D02*
X151995000Y-53879000D01*
X154075000Y-53919000D02*
X155433000Y-53919000D01*
X150637000Y-53919000D02*
X151995000Y-53919000D01*
X154075000Y-53959000D02*
X155449000Y-53959000D01*
X150621000Y-53959000D02*
X151995000Y-53959000D01*
X154075000Y-53999000D02*
X155463000Y-53999000D01*
X150607000Y-53999000D02*
X151995000Y-53999000D01*
X154075000Y-54039000D02*
X155477000Y-54039000D01*
X150593000Y-54039000D02*
X151995000Y-54039000D01*
X154075000Y-54079000D02*
X155490000Y-54079000D01*
X150580000Y-54079000D02*
X151995000Y-54079000D01*
X154075000Y-54119000D02*
X155503000Y-54119000D01*
X150567000Y-54119000D02*
X151995000Y-54119000D01*
X154075000Y-54159000D02*
X155515000Y-54159000D01*
X150555000Y-54159000D02*
X151995000Y-54159000D01*
X154075000Y-54200000D02*
X155526000Y-54200000D01*
X150544000Y-54200000D02*
X151995000Y-54200000D01*
X154075000Y-54240000D02*
X155536000Y-54240000D01*
X150534000Y-54240000D02*
X151995000Y-54240000D01*
X154075000Y-54280000D02*
X155546000Y-54280000D01*
X150524000Y-54280000D02*
X151995000Y-54280000D01*
X154075000Y-54320000D02*
X155555000Y-54320000D01*
X150515000Y-54320000D02*
X151995000Y-54320000D01*
X154075000Y-54360000D02*
X155563000Y-54360000D01*
X150507000Y-54360000D02*
X151995000Y-54360000D01*
X154075000Y-54400000D02*
X155571000Y-54400000D01*
X150499000Y-54400000D02*
X151995000Y-54400000D01*
X154075000Y-54440000D02*
X155578000Y-54440000D01*
X150492000Y-54440000D02*
X151995000Y-54440000D01*
X154075000Y-54480000D02*
X155585000Y-54480000D01*
X150485000Y-54480000D02*
X151995000Y-54480000D01*
X154075000Y-54520000D02*
X155591000Y-54520000D01*
X150479000Y-54520000D02*
X151995000Y-54520000D01*
X154075000Y-54560000D02*
X155596000Y-54560000D01*
X150474000Y-54560000D02*
X151995000Y-54560000D01*
X154075000Y-54600000D02*
X155600000Y-54600000D01*
X150470000Y-54600000D02*
X151995000Y-54600000D01*
X154075000Y-54640000D02*
X155604000Y-54640000D01*
X150466000Y-54640000D02*
X151995000Y-54640000D01*
X154075000Y-54680000D02*
X155608000Y-54680000D01*
X150462000Y-54680000D02*
X151995000Y-54680000D01*
X154075000Y-54720000D02*
X155611000Y-54720000D01*
X150459000Y-54720000D02*
X151995000Y-54720000D01*
X154075000Y-54760000D02*
X155613000Y-54760000D01*
X150457000Y-54760000D02*
X151995000Y-54760000D01*
X154075000Y-54800000D02*
X155614000Y-54800000D01*
X150456000Y-54800000D02*
X151995000Y-54800000D01*
X150455000Y-54840000D02*
X151995000Y-54840000D01*
X154075000Y-54840000D02*
X155615000Y-54840000D01*
X150455000Y-54880000D02*
X151995000Y-54880000D01*
X154075000Y-54880000D02*
X155615000Y-54880000D01*
X155655000Y-54880000D02*
G75*
G03*
X155655000Y-54880000I-2620000J0D01*
G01*
X168241078Y-76320000D02*
X167723922Y-76320000D01*
X168241078Y-74900000D02*
X167723922Y-74900000D01*
X148164500Y-65842000D02*
X145479500Y-65842000D01*
X148164500Y-67762000D02*
X148164500Y-65842000D01*
X145479500Y-67762000D02*
X148164500Y-67762000D01*
X153224500Y-119944000D02*
X150539500Y-119944000D01*
X150539500Y-119944000D02*
X150539500Y-121864000D01*
X150539500Y-121864000D02*
X153224500Y-121864000D01*
X203492500Y-86470000D02*
X200807500Y-86470000D01*
X203492500Y-88390000D02*
X203492500Y-86470000D01*
X200807500Y-88390000D02*
X203492500Y-88390000D01*
X183670000Y-88660000D02*
X185000000Y-88660000D01*
X183670000Y-89990000D02*
X183670000Y-88660000D01*
X183670000Y-91260000D02*
X186330000Y-91260000D01*
X186330000Y-91260000D02*
X186330000Y-98940000D01*
X183670000Y-91260000D02*
X183670000Y-98940000D01*
X183670000Y-98940000D02*
X186330000Y-98940000D01*
X198930000Y-92270000D02*
X198930000Y-93600000D01*
X197600000Y-92270000D02*
X198930000Y-92270000D01*
X198930000Y-94870000D02*
X198930000Y-97470000D01*
X196330000Y-94870000D02*
X198930000Y-94870000D01*
X196330000Y-92270000D02*
X196330000Y-94870000D01*
X198930000Y-97470000D02*
X191190000Y-97470000D01*
X196330000Y-92270000D02*
X191190000Y-92270000D01*
X191190000Y-92270000D02*
X191190000Y-97470000D01*
X125282000Y-114106000D02*
X123952000Y-114106000D01*
X125282000Y-112776000D02*
X125282000Y-114106000D01*
X125282000Y-111506000D02*
X122622000Y-111506000D01*
X122622000Y-111506000D02*
X122622000Y-103826000D01*
X125282000Y-111506000D02*
X125282000Y-103826000D01*
X125282000Y-103826000D02*
X122622000Y-103826000D01*
X200466000Y-134306000D02*
X200466000Y-135636000D01*
X199136000Y-134306000D02*
X200466000Y-134306000D01*
X197866000Y-134306000D02*
X197866000Y-136966000D01*
X197866000Y-136966000D02*
X167326000Y-136966000D01*
X197866000Y-134306000D02*
X167326000Y-134306000D01*
X167326000Y-134306000D02*
X167326000Y-136966000D01*
X177260000Y-98720000D02*
X177260000Y-93520000D01*
X172120000Y-98720000D02*
X177260000Y-98720000D01*
X169520000Y-93520000D02*
X177260000Y-93520000D01*
X172120000Y-98720000D02*
X172120000Y-96120000D01*
X172120000Y-96120000D02*
X169520000Y-96120000D01*
X169520000Y-96120000D02*
X169520000Y-93520000D01*
X170850000Y-98720000D02*
X169520000Y-98720000D01*
X169520000Y-98720000D02*
X169520000Y-97390000D01*
X164144000Y-136966000D02*
X164144000Y-134306000D01*
X133604000Y-136966000D02*
X164144000Y-136966000D01*
X133604000Y-134306000D02*
X164144000Y-134306000D01*
X133604000Y-136966000D02*
X133604000Y-134306000D01*
X132334000Y-136966000D02*
X131004000Y-136966000D01*
X131004000Y-136966000D02*
X131004000Y-135636000D01*
X131360000Y-62710000D02*
X131360000Y-65310000D01*
X116660000Y-62710000D02*
X131360000Y-62710000D01*
X131360000Y-71910000D02*
X129460000Y-71910000D01*
X131360000Y-69210000D02*
X131360000Y-71910000D01*
X116660000Y-71910000D02*
X116660000Y-62710000D01*
X125460000Y-71910000D02*
X116660000Y-71910000D01*
X130510000Y-62510000D02*
X131560000Y-62510000D01*
X131560000Y-63560000D02*
X131560000Y-62510000D01*
X139132000Y-62678000D02*
X140462000Y-62678000D01*
X139132000Y-64008000D02*
X139132000Y-62678000D01*
X139132000Y-65278000D02*
X141792000Y-65278000D01*
X141792000Y-65278000D02*
X141792000Y-67878000D01*
X139132000Y-65278000D02*
X139132000Y-67878000D01*
X139132000Y-67878000D02*
X141792000Y-67878000D01*
X123330000Y-98730000D02*
X122000000Y-98730000D01*
X123330000Y-97400000D02*
X123330000Y-98730000D01*
X123330000Y-96130000D02*
X120670000Y-96130000D01*
X120670000Y-96130000D02*
X120670000Y-78290000D01*
X123330000Y-96130000D02*
X123330000Y-78290000D01*
X123330000Y-78290000D02*
X120670000Y-78290000D01*
X206670000Y-59070000D02*
X208000000Y-59070000D01*
X206670000Y-60400000D02*
X206670000Y-59070000D01*
X206670000Y-61670000D02*
X209330000Y-61670000D01*
X209330000Y-61670000D02*
X209330000Y-84590000D01*
X206670000Y-61670000D02*
X206670000Y-84590000D01*
X206670000Y-84590000D02*
X209330000Y-84590000D01*
X200530000Y-84160000D02*
X199200000Y-84160000D01*
X200530000Y-82830000D02*
X200530000Y-84160000D01*
X200530000Y-81560000D02*
X197870000Y-81560000D01*
X197870000Y-81560000D02*
X197870000Y-76420000D01*
X200530000Y-81560000D02*
X200530000Y-76420000D01*
X200530000Y-76420000D02*
X197870000Y-76420000D01*
X206670000Y-99950000D02*
X209330000Y-99950000D01*
X206670000Y-92270000D02*
X206670000Y-99950000D01*
X209330000Y-92270000D02*
X209330000Y-99950000D01*
X206670000Y-92270000D02*
X209330000Y-92270000D01*
X206670000Y-91000000D02*
X206670000Y-89670000D01*
X206670000Y-89670000D02*
X208000000Y-89670000D01*
X165686078Y-97840000D02*
X165168922Y-97840000D01*
X165686078Y-96420000D02*
X165168922Y-96420000D01*
X172700000Y-101196078D02*
X172700000Y-100678922D01*
X174120000Y-101196078D02*
X174120000Y-100678922D01*
X174970000Y-100663922D02*
X174970000Y-101181078D01*
X176390000Y-100663922D02*
X176390000Y-101181078D01*
X146778578Y-63310000D02*
X146261422Y-63310000D01*
X146778578Y-64730000D02*
X146261422Y-64730000D01*
X163271078Y-62560000D02*
X162753922Y-62560000D01*
X163271078Y-61140000D02*
X162753922Y-61140000D01*
X159978922Y-56610000D02*
X160496078Y-56610000D01*
X159978922Y-55190000D02*
X160496078Y-55190000D01*
X188221078Y-67090000D02*
X187703922Y-67090000D01*
X188221078Y-68510000D02*
X187703922Y-68510000D01*
X200980000Y-69226078D02*
X200980000Y-68708922D01*
X199560000Y-69226078D02*
X199560000Y-68708922D01*
X204671078Y-81360000D02*
X204153922Y-81360000D01*
X204671078Y-79940000D02*
X204153922Y-79940000D01*
X156644078Y-121614000D02*
X156126922Y-121614000D01*
X156644078Y-120194000D02*
X156126922Y-120194000D01*
X201918500Y-70020922D02*
X201918500Y-70538078D01*
X203338500Y-70020922D02*
X203338500Y-70538078D01*
X146230000Y-94080000D02*
X146230000Y-92580000D01*
X144980000Y-90080000D02*
X140480000Y-90080000D01*
X139230000Y-92580000D02*
X139230000Y-94080000D01*
X140480000Y-96580000D02*
X144980000Y-96580000D01*
X155825000Y-70225000D02*
X155825000Y-65725000D01*
X151825000Y-71475000D02*
X153325000Y-71475000D01*
X149325000Y-65725000D02*
X149325000Y-70225000D01*
X153325000Y-64475000D02*
X151825000Y-64475000D01*
X169240000Y-117760000D02*
X169660000Y-117760000D01*
X169240000Y-110640000D02*
X169240000Y-111060000D01*
X169240000Y-111060000D02*
X167860000Y-111060000D01*
X176360000Y-110640000D02*
X175940000Y-110640000D01*
X176360000Y-117760000D02*
X175940000Y-117760000D01*
X169240000Y-110640000D02*
X169660000Y-110640000D01*
X169240000Y-117760000D02*
X169240000Y-117340000D01*
X176360000Y-117760000D02*
X176360000Y-117340000D01*
X176360000Y-110640000D02*
X176360000Y-111060000D01*
X139410000Y-53105000D02*
X145420000Y-53105000D01*
X141660000Y-59925000D02*
X145420000Y-59925000D01*
X145420000Y-53105000D02*
X145420000Y-54365000D01*
X145420000Y-59925000D02*
X145420000Y-58665000D01*
X149500000Y-104070000D02*
X149500000Y-108770000D01*
X145800000Y-104070000D02*
X145800000Y-108770000D01*
X145800000Y-108770000D02*
G75*
G03*
X149500000Y-108770000I1850000J0D01*
G01*
X145800000Y-104070000D02*
G75*
G02*
X149500000Y-104070000I1850000J0D01*
G01*
X154950000Y-101940000D02*
X154950000Y-102140000D01*
X155550000Y-101040000D02*
X154950000Y-101940000D01*
X156850000Y-101940000D02*
X156850000Y-102140000D01*
X156250000Y-101040000D02*
X156850000Y-101940000D01*
X154450000Y-101040000D02*
X154450000Y-100540000D01*
X157350000Y-101040000D02*
X154450000Y-101040000D01*
X157350000Y-100540000D02*
X157350000Y-101040000D01*
D12*
X164478095Y-55592380D02*
X164478095Y-56401904D01*
X164525714Y-56497142D01*
X164573333Y-56544761D01*
X164668571Y-56592380D01*
X164859047Y-56592380D01*
X164954285Y-56544761D01*
X165001904Y-56497142D01*
X165049523Y-56401904D01*
X165049523Y-55592380D01*
X165430476Y-55592380D02*
X166049523Y-55592380D01*
X165716190Y-55973333D01*
X165859047Y-55973333D01*
X165954285Y-56020952D01*
X166001904Y-56068571D01*
X166049523Y-56163809D01*
X166049523Y-56401904D01*
X166001904Y-56497142D01*
X165954285Y-56544761D01*
X165859047Y-56592380D01*
X165573333Y-56592380D01*
X165478095Y-56544761D01*
X165430476Y-56497142D01*
X123761666Y-130237380D02*
X123428333Y-129761190D01*
X123190238Y-130237380D02*
X123190238Y-129237380D01*
X123571190Y-129237380D01*
X123666428Y-129285000D01*
X123714047Y-129332619D01*
X123761666Y-129427857D01*
X123761666Y-129570714D01*
X123714047Y-129665952D01*
X123666428Y-129713571D01*
X123571190Y-129761190D01*
X123190238Y-129761190D01*
X124190238Y-129713571D02*
X124523571Y-129713571D01*
X124666428Y-130237380D02*
X124190238Y-130237380D01*
X124190238Y-129237380D01*
X124666428Y-129237380D01*
X125428333Y-129713571D02*
X125095000Y-129713571D01*
X125095000Y-130237380D02*
X125095000Y-129237380D01*
X125571190Y-129237380D01*
X126095000Y-129237380D02*
X126095000Y-129475476D01*
X125856904Y-129380238D02*
X126095000Y-129475476D01*
X126333095Y-129380238D01*
X125952142Y-129665952D02*
X126095000Y-129475476D01*
X126237857Y-129665952D01*
X126856904Y-129237380D02*
X126856904Y-129475476D01*
X126618809Y-129380238D02*
X126856904Y-129475476D01*
X127095000Y-129380238D01*
X126714047Y-129665952D02*
X126856904Y-129475476D01*
X126999761Y-129665952D01*
X204406666Y-130237380D02*
X204073333Y-129761190D01*
X203835238Y-130237380D02*
X203835238Y-129237380D01*
X204216190Y-129237380D01*
X204311428Y-129285000D01*
X204359047Y-129332619D01*
X204406666Y-129427857D01*
X204406666Y-129570714D01*
X204359047Y-129665952D01*
X204311428Y-129713571D01*
X204216190Y-129761190D01*
X203835238Y-129761190D01*
X204835238Y-129713571D02*
X205168571Y-129713571D01*
X205311428Y-130237380D02*
X204835238Y-130237380D01*
X204835238Y-129237380D01*
X205311428Y-129237380D01*
X206073333Y-129713571D02*
X205740000Y-129713571D01*
X205740000Y-130237380D02*
X205740000Y-129237380D01*
X206216190Y-129237380D01*
X206740000Y-129237380D02*
X206740000Y-129475476D01*
X206501904Y-129380238D02*
X206740000Y-129475476D01*
X206978095Y-129380238D01*
X206597142Y-129665952D02*
X206740000Y-129475476D01*
X206882857Y-129665952D01*
X207501904Y-129237380D02*
X207501904Y-129475476D01*
X207263809Y-129380238D02*
X207501904Y-129475476D01*
X207740000Y-129380238D01*
X207359047Y-129665952D02*
X207501904Y-129475476D01*
X207644761Y-129665952D01*
X204406666Y-50227380D02*
X204073333Y-49751190D01*
X203835238Y-50227380D02*
X203835238Y-49227380D01*
X204216190Y-49227380D01*
X204311428Y-49275000D01*
X204359047Y-49322619D01*
X204406666Y-49417857D01*
X204406666Y-49560714D01*
X204359047Y-49655952D01*
X204311428Y-49703571D01*
X204216190Y-49751190D01*
X203835238Y-49751190D01*
X204835238Y-49703571D02*
X205168571Y-49703571D01*
X205311428Y-50227380D02*
X204835238Y-50227380D01*
X204835238Y-49227380D01*
X205311428Y-49227380D01*
X206073333Y-49703571D02*
X205740000Y-49703571D01*
X205740000Y-50227380D02*
X205740000Y-49227380D01*
X206216190Y-49227380D01*
X206740000Y-49227380D02*
X206740000Y-49465476D01*
X206501904Y-49370238D02*
X206740000Y-49465476D01*
X206978095Y-49370238D01*
X206597142Y-49655952D02*
X206740000Y-49465476D01*
X206882857Y-49655952D01*
X207501904Y-49227380D02*
X207501904Y-49465476D01*
X207263809Y-49370238D02*
X207501904Y-49465476D01*
X207740000Y-49370238D01*
X207359047Y-49655952D02*
X207501904Y-49465476D01*
X207644761Y-49655952D01*
X159525142Y-117289166D02*
X159572761Y-117336785D01*
X159620380Y-117479642D01*
X159620380Y-117574880D01*
X159572761Y-117717738D01*
X159477523Y-117812976D01*
X159382285Y-117860595D01*
X159191809Y-117908214D01*
X159048952Y-117908214D01*
X158858476Y-117860595D01*
X158763238Y-117812976D01*
X158668000Y-117717738D01*
X158620380Y-117574880D01*
X158620380Y-117479642D01*
X158668000Y-117336785D01*
X158715619Y-117289166D01*
X159620380Y-116336785D02*
X159620380Y-116908214D01*
X159620380Y-116622500D02*
X158620380Y-116622500D01*
X158763238Y-116717738D01*
X158858476Y-116812976D01*
X158906095Y-116908214D01*
X143325833Y-106537142D02*
X143278214Y-106584761D01*
X143135357Y-106632380D01*
X143040119Y-106632380D01*
X142897261Y-106584761D01*
X142802023Y-106489523D01*
X142754404Y-106394285D01*
X142706785Y-106203809D01*
X142706785Y-106060952D01*
X142754404Y-105870476D01*
X142802023Y-105775238D01*
X142897261Y-105680000D01*
X143040119Y-105632380D01*
X143135357Y-105632380D01*
X143278214Y-105680000D01*
X143325833Y-105727619D01*
X143706785Y-105727619D02*
X143754404Y-105680000D01*
X143849642Y-105632380D01*
X144087738Y-105632380D01*
X144182976Y-105680000D01*
X144230595Y-105727619D01*
X144278214Y-105822857D01*
X144278214Y-105918095D01*
X144230595Y-106060952D01*
X143659166Y-106632380D01*
X144278214Y-106632380D01*
X179797142Y-110204166D02*
X179844761Y-110251785D01*
X179892380Y-110394642D01*
X179892380Y-110489880D01*
X179844761Y-110632738D01*
X179749523Y-110727976D01*
X179654285Y-110775595D01*
X179463809Y-110823214D01*
X179320952Y-110823214D01*
X179130476Y-110775595D01*
X179035238Y-110727976D01*
X178940000Y-110632738D01*
X178892380Y-110489880D01*
X178892380Y-110394642D01*
X178940000Y-110251785D01*
X178987619Y-110204166D01*
X178892380Y-109870833D02*
X178892380Y-109251785D01*
X179273333Y-109585119D01*
X179273333Y-109442261D01*
X179320952Y-109347023D01*
X179368571Y-109299404D01*
X179463809Y-109251785D01*
X179701904Y-109251785D01*
X179797142Y-109299404D01*
X179844761Y-109347023D01*
X179892380Y-109442261D01*
X179892380Y-109727976D01*
X179844761Y-109823214D01*
X179797142Y-109870833D01*
X143385833Y-110337142D02*
X143338214Y-110384761D01*
X143195357Y-110432380D01*
X143100119Y-110432380D01*
X142957261Y-110384761D01*
X142862023Y-110289523D01*
X142814404Y-110194285D01*
X142766785Y-110003809D01*
X142766785Y-109860952D01*
X142814404Y-109670476D01*
X142862023Y-109575238D01*
X142957261Y-109480000D01*
X143100119Y-109432380D01*
X143195357Y-109432380D01*
X143338214Y-109480000D01*
X143385833Y-109527619D01*
X144242976Y-109765714D02*
X144242976Y-110432380D01*
X144004880Y-109384761D02*
X143766785Y-110099047D01*
X144385833Y-110099047D01*
X170507142Y-106799166D02*
X170554761Y-106846785D01*
X170602380Y-106989642D01*
X170602380Y-107084880D01*
X170554761Y-107227738D01*
X170459523Y-107322976D01*
X170364285Y-107370595D01*
X170173809Y-107418214D01*
X170030952Y-107418214D01*
X169840476Y-107370595D01*
X169745238Y-107322976D01*
X169650000Y-107227738D01*
X169602380Y-107084880D01*
X169602380Y-106989642D01*
X169650000Y-106846785D01*
X169697619Y-106799166D01*
X169602380Y-105894404D02*
X169602380Y-106370595D01*
X170078571Y-106418214D01*
X170030952Y-106370595D01*
X169983333Y-106275357D01*
X169983333Y-106037261D01*
X170030952Y-105942023D01*
X170078571Y-105894404D01*
X170173809Y-105846785D01*
X170411904Y-105846785D01*
X170507142Y-105894404D01*
X170554761Y-105942023D01*
X170602380Y-106037261D01*
X170602380Y-106275357D01*
X170554761Y-106370595D01*
X170507142Y-106418214D01*
X166817142Y-106644166D02*
X166864761Y-106691785D01*
X166912380Y-106834642D01*
X166912380Y-106929880D01*
X166864761Y-107072738D01*
X166769523Y-107167976D01*
X166674285Y-107215595D01*
X166483809Y-107263214D01*
X166340952Y-107263214D01*
X166150476Y-107215595D01*
X166055238Y-107167976D01*
X165960000Y-107072738D01*
X165912380Y-106929880D01*
X165912380Y-106834642D01*
X165960000Y-106691785D01*
X166007619Y-106644166D01*
X165912380Y-105787023D02*
X165912380Y-105977500D01*
X165960000Y-106072738D01*
X166007619Y-106120357D01*
X166150476Y-106215595D01*
X166340952Y-106263214D01*
X166721904Y-106263214D01*
X166817142Y-106215595D01*
X166864761Y-106167976D01*
X166912380Y-106072738D01*
X166912380Y-105882261D01*
X166864761Y-105787023D01*
X166817142Y-105739404D01*
X166721904Y-105691785D01*
X166483809Y-105691785D01*
X166388571Y-105739404D01*
X166340952Y-105787023D01*
X166293333Y-105882261D01*
X166293333Y-106072738D01*
X166340952Y-106167976D01*
X166388571Y-106215595D01*
X166483809Y-106263214D01*
X161139142Y-101957166D02*
X161186761Y-102004785D01*
X161234380Y-102147642D01*
X161234380Y-102242880D01*
X161186761Y-102385738D01*
X161091523Y-102480976D01*
X160996285Y-102528595D01*
X160805809Y-102576214D01*
X160662952Y-102576214D01*
X160472476Y-102528595D01*
X160377238Y-102480976D01*
X160282000Y-102385738D01*
X160234380Y-102242880D01*
X160234380Y-102147642D01*
X160282000Y-102004785D01*
X160329619Y-101957166D01*
X160234380Y-101623833D02*
X160234380Y-100957166D01*
X161234380Y-101385738D01*
X178487142Y-125582666D02*
X178534761Y-125630285D01*
X178582380Y-125773142D01*
X178582380Y-125868380D01*
X178534761Y-126011238D01*
X178439523Y-126106476D01*
X178344285Y-126154095D01*
X178153809Y-126201714D01*
X178010952Y-126201714D01*
X177820476Y-126154095D01*
X177725238Y-126106476D01*
X177630000Y-126011238D01*
X177582380Y-125868380D01*
X177582380Y-125773142D01*
X177630000Y-125630285D01*
X177677619Y-125582666D01*
X178010952Y-125011238D02*
X177963333Y-125106476D01*
X177915714Y-125154095D01*
X177820476Y-125201714D01*
X177772857Y-125201714D01*
X177677619Y-125154095D01*
X177630000Y-125106476D01*
X177582380Y-125011238D01*
X177582380Y-124820761D01*
X177630000Y-124725523D01*
X177677619Y-124677904D01*
X177772857Y-124630285D01*
X177820476Y-124630285D01*
X177915714Y-124677904D01*
X177963333Y-124725523D01*
X178010952Y-124820761D01*
X178010952Y-125011238D01*
X178058571Y-125106476D01*
X178106190Y-125154095D01*
X178201428Y-125201714D01*
X178391904Y-125201714D01*
X178487142Y-125154095D01*
X178534761Y-125106476D01*
X178582380Y-125011238D01*
X178582380Y-124820761D01*
X178534761Y-124725523D01*
X178487142Y-124677904D01*
X178391904Y-124630285D01*
X178201428Y-124630285D01*
X178106190Y-124677904D01*
X178058571Y-124725523D01*
X178010952Y-124820761D01*
X151457142Y-102039166D02*
X151504761Y-102086785D01*
X151552380Y-102229642D01*
X151552380Y-102324880D01*
X151504761Y-102467738D01*
X151409523Y-102562976D01*
X151314285Y-102610595D01*
X151123809Y-102658214D01*
X150980952Y-102658214D01*
X150790476Y-102610595D01*
X150695238Y-102562976D01*
X150600000Y-102467738D01*
X150552380Y-102324880D01*
X150552380Y-102229642D01*
X150600000Y-102086785D01*
X150647619Y-102039166D01*
X151552380Y-101562976D02*
X151552380Y-101372500D01*
X151504761Y-101277261D01*
X151457142Y-101229642D01*
X151314285Y-101134404D01*
X151123809Y-101086785D01*
X150742857Y-101086785D01*
X150647619Y-101134404D01*
X150600000Y-101182023D01*
X150552380Y-101277261D01*
X150552380Y-101467738D01*
X150600000Y-101562976D01*
X150647619Y-101610595D01*
X150742857Y-101658214D01*
X150980952Y-101658214D01*
X151076190Y-101610595D01*
X151123809Y-101562976D01*
X151171428Y-101467738D01*
X151171428Y-101277261D01*
X151123809Y-101182023D01*
X151076190Y-101134404D01*
X150980952Y-101086785D01*
X167837142Y-103267142D02*
X167789523Y-103314761D01*
X167646666Y-103362380D01*
X167551428Y-103362380D01*
X167408571Y-103314761D01*
X167313333Y-103219523D01*
X167265714Y-103124285D01*
X167218095Y-102933809D01*
X167218095Y-102790952D01*
X167265714Y-102600476D01*
X167313333Y-102505238D01*
X167408571Y-102410000D01*
X167551428Y-102362380D01*
X167646666Y-102362380D01*
X167789523Y-102410000D01*
X167837142Y-102457619D01*
X168789523Y-103362380D02*
X168218095Y-103362380D01*
X168503809Y-103362380D02*
X168503809Y-102362380D01*
X168408571Y-102505238D01*
X168313333Y-102600476D01*
X168218095Y-102648095D01*
X169408571Y-102362380D02*
X169503809Y-102362380D01*
X169599047Y-102410000D01*
X169646666Y-102457619D01*
X169694285Y-102552857D01*
X169741904Y-102743333D01*
X169741904Y-102981428D01*
X169694285Y-103171904D01*
X169646666Y-103267142D01*
X169599047Y-103314761D01*
X169503809Y-103362380D01*
X169408571Y-103362380D01*
X169313333Y-103314761D01*
X169265714Y-103267142D01*
X169218095Y-103171904D01*
X169170476Y-102981428D01*
X169170476Y-102743333D01*
X169218095Y-102552857D01*
X169265714Y-102457619D01*
X169313333Y-102410000D01*
X169408571Y-102362380D01*
X131862142Y-57812857D02*
X131909761Y-57860476D01*
X131957380Y-58003333D01*
X131957380Y-58098571D01*
X131909761Y-58241428D01*
X131814523Y-58336666D01*
X131719285Y-58384285D01*
X131528809Y-58431904D01*
X131385952Y-58431904D01*
X131195476Y-58384285D01*
X131100238Y-58336666D01*
X131005000Y-58241428D01*
X130957380Y-58098571D01*
X130957380Y-58003333D01*
X131005000Y-57860476D01*
X131052619Y-57812857D01*
X131957380Y-56860476D02*
X131957380Y-57431904D01*
X131957380Y-57146190D02*
X130957380Y-57146190D01*
X131100238Y-57241428D01*
X131195476Y-57336666D01*
X131243095Y-57431904D01*
X131957380Y-55908095D02*
X131957380Y-56479523D01*
X131957380Y-56193809D02*
X130957380Y-56193809D01*
X131100238Y-56289047D01*
X131195476Y-56384285D01*
X131243095Y-56479523D01*
X149642142Y-55522857D02*
X149689761Y-55570476D01*
X149737380Y-55713333D01*
X149737380Y-55808571D01*
X149689761Y-55951428D01*
X149594523Y-56046666D01*
X149499285Y-56094285D01*
X149308809Y-56141904D01*
X149165952Y-56141904D01*
X148975476Y-56094285D01*
X148880238Y-56046666D01*
X148785000Y-55951428D01*
X148737380Y-55808571D01*
X148737380Y-55713333D01*
X148785000Y-55570476D01*
X148832619Y-55522857D01*
X149737380Y-54570476D02*
X149737380Y-55141904D01*
X149737380Y-54856190D02*
X148737380Y-54856190D01*
X148880238Y-54951428D01*
X148975476Y-55046666D01*
X149023095Y-55141904D01*
X148832619Y-54189523D02*
X148785000Y-54141904D01*
X148737380Y-54046666D01*
X148737380Y-53808571D01*
X148785000Y-53713333D01*
X148832619Y-53665714D01*
X148927857Y-53618095D01*
X149023095Y-53618095D01*
X149165952Y-53665714D01*
X149737380Y-54237142D01*
X149737380Y-53618095D01*
X167339642Y-77617142D02*
X167292023Y-77664761D01*
X167149166Y-77712380D01*
X167053928Y-77712380D01*
X166911071Y-77664761D01*
X166815833Y-77569523D01*
X166768214Y-77474285D01*
X166720595Y-77283809D01*
X166720595Y-77140952D01*
X166768214Y-76950476D01*
X166815833Y-76855238D01*
X166911071Y-76760000D01*
X167053928Y-76712380D01*
X167149166Y-76712380D01*
X167292023Y-76760000D01*
X167339642Y-76807619D01*
X168292023Y-77712380D02*
X167720595Y-77712380D01*
X168006309Y-77712380D02*
X168006309Y-76712380D01*
X167911071Y-76855238D01*
X167815833Y-76950476D01*
X167720595Y-76998095D01*
X168625357Y-76712380D02*
X169244404Y-76712380D01*
X168911071Y-77093333D01*
X169053928Y-77093333D01*
X169149166Y-77140952D01*
X169196785Y-77188571D01*
X169244404Y-77283809D01*
X169244404Y-77521904D01*
X169196785Y-77617142D01*
X169149166Y-77664761D01*
X169053928Y-77712380D01*
X168768214Y-77712380D01*
X168672976Y-77664761D01*
X168625357Y-77617142D01*
X145741404Y-68904380D02*
X145741404Y-67904380D01*
X145979500Y-67904380D01*
X146122357Y-67952000D01*
X146217595Y-68047238D01*
X146265214Y-68142476D01*
X146312833Y-68332952D01*
X146312833Y-68475809D01*
X146265214Y-68666285D01*
X146217595Y-68761523D01*
X146122357Y-68856761D01*
X145979500Y-68904380D01*
X145741404Y-68904380D01*
X147265214Y-68904380D02*
X146693785Y-68904380D01*
X146979500Y-68904380D02*
X146979500Y-67904380D01*
X146884261Y-68047238D01*
X146789023Y-68142476D01*
X146693785Y-68190095D01*
X151486404Y-119706380D02*
X151486404Y-118706380D01*
X151724500Y-118706380D01*
X151867357Y-118754000D01*
X151962595Y-118849238D01*
X152010214Y-118944476D01*
X152057833Y-119134952D01*
X152057833Y-119277809D01*
X152010214Y-119468285D01*
X151962595Y-119563523D01*
X151867357Y-119658761D01*
X151724500Y-119706380D01*
X151486404Y-119706380D01*
X152438785Y-118801619D02*
X152486404Y-118754000D01*
X152581642Y-118706380D01*
X152819738Y-118706380D01*
X152914976Y-118754000D01*
X152962595Y-118801619D01*
X153010214Y-118896857D01*
X153010214Y-118992095D01*
X152962595Y-119134952D01*
X152391166Y-119706380D01*
X153010214Y-119706380D01*
X197488571Y-85568571D02*
X197821904Y-85568571D01*
X197964761Y-86092380D02*
X197488571Y-86092380D01*
X197488571Y-85092380D01*
X197964761Y-85092380D01*
X198345714Y-86044761D02*
X198488571Y-86092380D01*
X198726666Y-86092380D01*
X198821904Y-86044761D01*
X198869523Y-85997142D01*
X198917142Y-85901904D01*
X198917142Y-85806666D01*
X198869523Y-85711428D01*
X198821904Y-85663809D01*
X198726666Y-85616190D01*
X198536190Y-85568571D01*
X198440952Y-85520952D01*
X198393333Y-85473333D01*
X198345714Y-85378095D01*
X198345714Y-85282857D01*
X198393333Y-85187619D01*
X198440952Y-85140000D01*
X198536190Y-85092380D01*
X198774285Y-85092380D01*
X198917142Y-85140000D01*
X199345714Y-86092380D02*
X199345714Y-85092380D01*
X199726666Y-85092380D01*
X199821904Y-85140000D01*
X199869523Y-85187619D01*
X199917142Y-85282857D01*
X199917142Y-85425714D01*
X199869523Y-85520952D01*
X199821904Y-85568571D01*
X199726666Y-85616190D01*
X199345714Y-85616190D01*
X200107619Y-86187619D02*
X200869523Y-86187619D01*
X201583809Y-86092380D02*
X201107619Y-86092380D01*
X201107619Y-85092380D01*
X201917142Y-85568571D02*
X202250476Y-85568571D01*
X202393333Y-86092380D02*
X201917142Y-86092380D01*
X201917142Y-85092380D01*
X202393333Y-85092380D01*
X202821904Y-86092380D02*
X202821904Y-85092380D01*
X203060000Y-85092380D01*
X203202857Y-85140000D01*
X203298095Y-85235238D01*
X203345714Y-85330476D01*
X203393333Y-85520952D01*
X203393333Y-85663809D01*
X203345714Y-85854285D01*
X203298095Y-85949523D01*
X203202857Y-86044761D01*
X203060000Y-86092380D01*
X202821904Y-86092380D01*
X204107619Y-86473333D02*
X204060000Y-86425714D01*
X203964761Y-86282857D01*
X203917142Y-86187619D01*
X203869523Y-86044761D01*
X203821904Y-85806666D01*
X203821904Y-85616190D01*
X203869523Y-85378095D01*
X203917142Y-85235238D01*
X203964761Y-85140000D01*
X204060000Y-84997142D01*
X204107619Y-84949523D01*
X204488571Y-86092380D02*
X204488571Y-85092380D01*
X204726666Y-85092380D01*
X204869523Y-85140000D01*
X204964761Y-85235238D01*
X205012380Y-85330476D01*
X205060000Y-85520952D01*
X205060000Y-85663809D01*
X205012380Y-85854285D01*
X204964761Y-85949523D01*
X204869523Y-86044761D01*
X204726666Y-86092380D01*
X204488571Y-86092380D01*
X205393333Y-85092380D02*
X206012380Y-85092380D01*
X205679047Y-85473333D01*
X205821904Y-85473333D01*
X205917142Y-85520952D01*
X205964761Y-85568571D01*
X206012380Y-85663809D01*
X206012380Y-85901904D01*
X205964761Y-85997142D01*
X205917142Y-86044761D01*
X205821904Y-86092380D01*
X205536190Y-86092380D01*
X205440952Y-86044761D01*
X205393333Y-85997142D01*
X206345714Y-86473333D02*
X206393333Y-86425714D01*
X206488571Y-86282857D01*
X206536190Y-86187619D01*
X206583809Y-86044761D01*
X206631428Y-85806666D01*
X206631428Y-85616190D01*
X206583809Y-85378095D01*
X206536190Y-85235238D01*
X206488571Y-85140000D01*
X206393333Y-84997142D01*
X206345714Y-84949523D01*
X184666666Y-87112380D02*
X184666666Y-87826666D01*
X184619047Y-87969523D01*
X184523809Y-88064761D01*
X184380952Y-88112380D01*
X184285714Y-88112380D01*
X185666666Y-88112380D02*
X185095238Y-88112380D01*
X185380952Y-88112380D02*
X185380952Y-87112380D01*
X185285714Y-87255238D01*
X185190476Y-87350476D01*
X185095238Y-87398095D01*
X199382380Y-95203333D02*
X200096666Y-95203333D01*
X200239523Y-95250952D01*
X200334761Y-95346190D01*
X200382380Y-95489047D01*
X200382380Y-95584285D01*
X199477619Y-94774761D02*
X199430000Y-94727142D01*
X199382380Y-94631904D01*
X199382380Y-94393809D01*
X199430000Y-94298571D01*
X199477619Y-94250952D01*
X199572857Y-94203333D01*
X199668095Y-94203333D01*
X199810952Y-94250952D01*
X200382380Y-94822380D01*
X200382380Y-94203333D01*
X120864380Y-108029333D02*
X121578666Y-108029333D01*
X121721523Y-108076952D01*
X121816761Y-108172190D01*
X121864380Y-108315047D01*
X121864380Y-108410285D01*
X120864380Y-107648380D02*
X120864380Y-107029333D01*
X121245333Y-107362666D01*
X121245333Y-107219809D01*
X121292952Y-107124571D01*
X121340571Y-107076952D01*
X121435809Y-107029333D01*
X121673904Y-107029333D01*
X121769142Y-107076952D01*
X121816761Y-107124571D01*
X121864380Y-107219809D01*
X121864380Y-107505523D01*
X121816761Y-107600761D01*
X121769142Y-107648380D01*
X200918380Y-135969333D02*
X201632666Y-135969333D01*
X201775523Y-136016952D01*
X201870761Y-136112190D01*
X201918380Y-136255047D01*
X201918380Y-136350285D01*
X201251714Y-135064571D02*
X201918380Y-135064571D01*
X200870761Y-135302666D02*
X201585047Y-135540761D01*
X201585047Y-134921714D01*
X167972380Y-96453333D02*
X168686666Y-96453333D01*
X168829523Y-96500952D01*
X168924761Y-96596190D01*
X168972380Y-96739047D01*
X168972380Y-96834285D01*
X167972380Y-95500952D02*
X167972380Y-95977142D01*
X168448571Y-96024761D01*
X168400952Y-95977142D01*
X168353333Y-95881904D01*
X168353333Y-95643809D01*
X168400952Y-95548571D01*
X168448571Y-95500952D01*
X168543809Y-95453333D01*
X168781904Y-95453333D01*
X168877142Y-95500952D01*
X168924761Y-95548571D01*
X168972380Y-95643809D01*
X168972380Y-95881904D01*
X168924761Y-95977142D01*
X168877142Y-96024761D01*
X149780666Y-132548380D02*
X149780666Y-133262666D01*
X149733047Y-133405523D01*
X149637809Y-133500761D01*
X149494952Y-133548380D01*
X149399714Y-133548380D01*
X150685428Y-132548380D02*
X150494952Y-132548380D01*
X150399714Y-132596000D01*
X150352095Y-132643619D01*
X150256857Y-132786476D01*
X150209238Y-132976952D01*
X150209238Y-133357904D01*
X150256857Y-133453142D01*
X150304476Y-133500761D01*
X150399714Y-133548380D01*
X150590190Y-133548380D01*
X150685428Y-133500761D01*
X150733047Y-133453142D01*
X150780666Y-133357904D01*
X150780666Y-133119809D01*
X150733047Y-133024571D01*
X150685428Y-132976952D01*
X150590190Y-132929333D01*
X150399714Y-132929333D01*
X150304476Y-132976952D01*
X150256857Y-133024571D01*
X150209238Y-133119809D01*
X121676666Y-72512380D02*
X121676666Y-73226666D01*
X121629047Y-73369523D01*
X121533809Y-73464761D01*
X121390952Y-73512380D01*
X121295714Y-73512380D01*
X122057619Y-72512380D02*
X122724285Y-72512380D01*
X122295714Y-73512380D01*
X140128666Y-61130380D02*
X140128666Y-61844666D01*
X140081047Y-61987523D01*
X139985809Y-62082761D01*
X139842952Y-62130380D01*
X139747714Y-62130380D01*
X140747714Y-61558952D02*
X140652476Y-61511333D01*
X140604857Y-61463714D01*
X140557238Y-61368476D01*
X140557238Y-61320857D01*
X140604857Y-61225619D01*
X140652476Y-61178000D01*
X140747714Y-61130380D01*
X140938190Y-61130380D01*
X141033428Y-61178000D01*
X141081047Y-61225619D01*
X141128666Y-61320857D01*
X141128666Y-61368476D01*
X141081047Y-61463714D01*
X141033428Y-61511333D01*
X140938190Y-61558952D01*
X140747714Y-61558952D01*
X140652476Y-61606571D01*
X140604857Y-61654190D01*
X140557238Y-61749428D01*
X140557238Y-61939904D01*
X140604857Y-62035142D01*
X140652476Y-62082761D01*
X140747714Y-62130380D01*
X140938190Y-62130380D01*
X141033428Y-62082761D01*
X141081047Y-62035142D01*
X141128666Y-61939904D01*
X141128666Y-61749428D01*
X141081047Y-61654190D01*
X141033428Y-61606571D01*
X140938190Y-61558952D01*
X120838146Y-98751860D02*
X120838146Y-99466146D01*
X120790527Y-99609003D01*
X120695289Y-99704241D01*
X120552432Y-99751860D01*
X120457194Y-99751860D01*
X121361956Y-99751860D02*
X121552432Y-99751860D01*
X121647670Y-99704241D01*
X121695289Y-99656622D01*
X121790527Y-99513765D01*
X121838146Y-99323289D01*
X121838146Y-98942337D01*
X121790527Y-98847099D01*
X121742908Y-98799480D01*
X121647670Y-98751860D01*
X121457194Y-98751860D01*
X121361956Y-98799480D01*
X121314337Y-98847099D01*
X121266718Y-98942337D01*
X121266718Y-99180432D01*
X121314337Y-99275670D01*
X121361956Y-99323289D01*
X121457194Y-99370908D01*
X121647670Y-99370908D01*
X121742908Y-99323289D01*
X121790527Y-99275670D01*
X121838146Y-99180432D01*
X207190476Y-57522380D02*
X207190476Y-58236666D01*
X207142857Y-58379523D01*
X207047619Y-58474761D01*
X206904761Y-58522380D01*
X206809523Y-58522380D01*
X208190476Y-58522380D02*
X207619047Y-58522380D01*
X207904761Y-58522380D02*
X207904761Y-57522380D01*
X207809523Y-57665238D01*
X207714285Y-57760476D01*
X207619047Y-57808095D01*
X208809523Y-57522380D02*
X208904761Y-57522380D01*
X209000000Y-57570000D01*
X209047619Y-57617619D01*
X209095238Y-57712857D01*
X209142857Y-57903333D01*
X209142857Y-58141428D01*
X209095238Y-58331904D01*
X209047619Y-58427142D01*
X209000000Y-58474761D01*
X208904761Y-58522380D01*
X208809523Y-58522380D01*
X208714285Y-58474761D01*
X208666666Y-58427142D01*
X208619047Y-58331904D01*
X208571428Y-58141428D01*
X208571428Y-57903333D01*
X208619047Y-57712857D01*
X208666666Y-57617619D01*
X208714285Y-57570000D01*
X208809523Y-57522380D01*
X190048000Y-80192571D02*
X190381333Y-80192571D01*
X190524190Y-80716380D02*
X190048000Y-80716380D01*
X190048000Y-79716380D01*
X190524190Y-79716380D01*
X190905142Y-80668761D02*
X191048000Y-80716380D01*
X191286095Y-80716380D01*
X191381333Y-80668761D01*
X191428952Y-80621142D01*
X191476571Y-80525904D01*
X191476571Y-80430666D01*
X191428952Y-80335428D01*
X191381333Y-80287809D01*
X191286095Y-80240190D01*
X191095619Y-80192571D01*
X191000380Y-80144952D01*
X190952761Y-80097333D01*
X190905142Y-80002095D01*
X190905142Y-79906857D01*
X190952761Y-79811619D01*
X191000380Y-79764000D01*
X191095619Y-79716380D01*
X191333714Y-79716380D01*
X191476571Y-79764000D01*
X191905142Y-80716380D02*
X191905142Y-79716380D01*
X192286095Y-79716380D01*
X192381333Y-79764000D01*
X192428952Y-79811619D01*
X192476571Y-79906857D01*
X192476571Y-80049714D01*
X192428952Y-80144952D01*
X192381333Y-80192571D01*
X192286095Y-80240190D01*
X191905142Y-80240190D01*
X192667047Y-80811619D02*
X193428952Y-80811619D01*
X194000380Y-80192571D02*
X194143238Y-80240190D01*
X194190857Y-80287809D01*
X194238476Y-80383047D01*
X194238476Y-80525904D01*
X194190857Y-80621142D01*
X194143238Y-80668761D01*
X194048000Y-80716380D01*
X193667047Y-80716380D01*
X193667047Y-79716380D01*
X194000380Y-79716380D01*
X194095619Y-79764000D01*
X194143238Y-79811619D01*
X194190857Y-79906857D01*
X194190857Y-80002095D01*
X194143238Y-80097333D01*
X194095619Y-80144952D01*
X194000380Y-80192571D01*
X193667047Y-80192571D01*
X194857523Y-79716380D02*
X195048000Y-79716380D01*
X195143238Y-79764000D01*
X195238476Y-79859238D01*
X195286095Y-80049714D01*
X195286095Y-80383047D01*
X195238476Y-80573523D01*
X195143238Y-80668761D01*
X195048000Y-80716380D01*
X194857523Y-80716380D01*
X194762285Y-80668761D01*
X194667047Y-80573523D01*
X194619428Y-80383047D01*
X194619428Y-80049714D01*
X194667047Y-79859238D01*
X194762285Y-79764000D01*
X194857523Y-79716380D01*
X195905142Y-79716380D02*
X196095619Y-79716380D01*
X196190857Y-79764000D01*
X196286095Y-79859238D01*
X196333714Y-80049714D01*
X196333714Y-80383047D01*
X196286095Y-80573523D01*
X196190857Y-80668761D01*
X196095619Y-80716380D01*
X195905142Y-80716380D01*
X195809904Y-80668761D01*
X195714666Y-80573523D01*
X195667047Y-80383047D01*
X195667047Y-80049714D01*
X195714666Y-79859238D01*
X195809904Y-79764000D01*
X195905142Y-79716380D01*
X196619428Y-79716380D02*
X197190857Y-79716380D01*
X196905142Y-80716380D02*
X196905142Y-79716380D01*
X207190476Y-88122380D02*
X207190476Y-88836666D01*
X207142857Y-88979523D01*
X207047619Y-89074761D01*
X206904761Y-89122380D01*
X206809523Y-89122380D01*
X208190476Y-89122380D02*
X207619047Y-89122380D01*
X207904761Y-89122380D02*
X207904761Y-88122380D01*
X207809523Y-88265238D01*
X207714285Y-88360476D01*
X207619047Y-88408095D01*
X208571428Y-88217619D02*
X208619047Y-88170000D01*
X208714285Y-88122380D01*
X208952380Y-88122380D01*
X209047619Y-88170000D01*
X209095238Y-88217619D01*
X209142857Y-88312857D01*
X209142857Y-88408095D01*
X209095238Y-88550952D01*
X208523809Y-89122380D01*
X209142857Y-89122380D01*
X165260833Y-99232380D02*
X164927500Y-98756190D01*
X164689404Y-99232380D02*
X164689404Y-98232380D01*
X165070357Y-98232380D01*
X165165595Y-98280000D01*
X165213214Y-98327619D01*
X165260833Y-98422857D01*
X165260833Y-98565714D01*
X165213214Y-98660952D01*
X165165595Y-98708571D01*
X165070357Y-98756190D01*
X164689404Y-98756190D01*
X166213214Y-99232380D02*
X165641785Y-99232380D01*
X165927500Y-99232380D02*
X165927500Y-98232380D01*
X165832261Y-98375238D01*
X165737023Y-98470476D01*
X165641785Y-98518095D01*
X172212380Y-101104166D02*
X171736190Y-101437500D01*
X172212380Y-101675595D02*
X171212380Y-101675595D01*
X171212380Y-101294642D01*
X171260000Y-101199404D01*
X171307619Y-101151785D01*
X171402857Y-101104166D01*
X171545714Y-101104166D01*
X171640952Y-101151785D01*
X171688571Y-101199404D01*
X171736190Y-101294642D01*
X171736190Y-101675595D01*
X171307619Y-100723214D02*
X171260000Y-100675595D01*
X171212380Y-100580357D01*
X171212380Y-100342261D01*
X171260000Y-100247023D01*
X171307619Y-100199404D01*
X171402857Y-100151785D01*
X171498095Y-100151785D01*
X171640952Y-100199404D01*
X172212380Y-100770833D01*
X172212380Y-100151785D01*
X177782380Y-101089166D02*
X177306190Y-101422500D01*
X177782380Y-101660595D02*
X176782380Y-101660595D01*
X176782380Y-101279642D01*
X176830000Y-101184404D01*
X176877619Y-101136785D01*
X176972857Y-101089166D01*
X177115714Y-101089166D01*
X177210952Y-101136785D01*
X177258571Y-101184404D01*
X177306190Y-101279642D01*
X177306190Y-101660595D01*
X176782380Y-100755833D02*
X176782380Y-100136785D01*
X177163333Y-100470119D01*
X177163333Y-100327261D01*
X177210952Y-100232023D01*
X177258571Y-100184404D01*
X177353809Y-100136785D01*
X177591904Y-100136785D01*
X177687142Y-100184404D01*
X177734761Y-100232023D01*
X177782380Y-100327261D01*
X177782380Y-100612976D01*
X177734761Y-100708214D01*
X177687142Y-100755833D01*
X143851333Y-64460380D02*
X143518000Y-63984190D01*
X143279904Y-64460380D02*
X143279904Y-63460380D01*
X143660857Y-63460380D01*
X143756095Y-63508000D01*
X143803714Y-63555619D01*
X143851333Y-63650857D01*
X143851333Y-63793714D01*
X143803714Y-63888952D01*
X143756095Y-63936571D01*
X143660857Y-63984190D01*
X143279904Y-63984190D01*
X144708476Y-63793714D02*
X144708476Y-64460380D01*
X144470380Y-63412761D02*
X144232285Y-64127047D01*
X144851333Y-64127047D01*
X162845833Y-63952380D02*
X162512500Y-63476190D01*
X162274404Y-63952380D02*
X162274404Y-62952380D01*
X162655357Y-62952380D01*
X162750595Y-63000000D01*
X162798214Y-63047619D01*
X162845833Y-63142857D01*
X162845833Y-63285714D01*
X162798214Y-63380952D01*
X162750595Y-63428571D01*
X162655357Y-63476190D01*
X162274404Y-63476190D01*
X163750595Y-62952380D02*
X163274404Y-62952380D01*
X163226785Y-63428571D01*
X163274404Y-63380952D01*
X163369642Y-63333333D01*
X163607738Y-63333333D01*
X163702976Y-63380952D01*
X163750595Y-63428571D01*
X163798214Y-63523809D01*
X163798214Y-63761904D01*
X163750595Y-63857142D01*
X163702976Y-63904761D01*
X163607738Y-63952380D01*
X163369642Y-63952380D01*
X163274404Y-63904761D01*
X163226785Y-63857142D01*
X160070833Y-54702380D02*
X159737500Y-54226190D01*
X159499404Y-54702380D02*
X159499404Y-53702380D01*
X159880357Y-53702380D01*
X159975595Y-53750000D01*
X160023214Y-53797619D01*
X160070833Y-53892857D01*
X160070833Y-54035714D01*
X160023214Y-54130952D01*
X159975595Y-54178571D01*
X159880357Y-54226190D01*
X159499404Y-54226190D01*
X160927976Y-53702380D02*
X160737500Y-53702380D01*
X160642261Y-53750000D01*
X160594642Y-53797619D01*
X160499404Y-53940476D01*
X160451785Y-54130952D01*
X160451785Y-54511904D01*
X160499404Y-54607142D01*
X160547023Y-54654761D01*
X160642261Y-54702380D01*
X160832738Y-54702380D01*
X160927976Y-54654761D01*
X160975595Y-54607142D01*
X161023214Y-54511904D01*
X161023214Y-54273809D01*
X160975595Y-54178571D01*
X160927976Y-54130952D01*
X160832738Y-54083333D01*
X160642261Y-54083333D01*
X160547023Y-54130952D01*
X160499404Y-54178571D01*
X160451785Y-54273809D01*
X187795833Y-69902380D02*
X187462500Y-69426190D01*
X187224404Y-69902380D02*
X187224404Y-68902380D01*
X187605357Y-68902380D01*
X187700595Y-68950000D01*
X187748214Y-68997619D01*
X187795833Y-69092857D01*
X187795833Y-69235714D01*
X187748214Y-69330952D01*
X187700595Y-69378571D01*
X187605357Y-69426190D01*
X187224404Y-69426190D01*
X188129166Y-68902380D02*
X188795833Y-68902380D01*
X188367261Y-69902380D01*
X199072380Y-69134166D02*
X198596190Y-69467500D01*
X199072380Y-69705595D02*
X198072380Y-69705595D01*
X198072380Y-69324642D01*
X198120000Y-69229404D01*
X198167619Y-69181785D01*
X198262857Y-69134166D01*
X198405714Y-69134166D01*
X198500952Y-69181785D01*
X198548571Y-69229404D01*
X198596190Y-69324642D01*
X198596190Y-69705595D01*
X198500952Y-68562738D02*
X198453333Y-68657976D01*
X198405714Y-68705595D01*
X198310476Y-68753214D01*
X198262857Y-68753214D01*
X198167619Y-68705595D01*
X198120000Y-68657976D01*
X198072380Y-68562738D01*
X198072380Y-68372261D01*
X198120000Y-68277023D01*
X198167619Y-68229404D01*
X198262857Y-68181785D01*
X198310476Y-68181785D01*
X198405714Y-68229404D01*
X198453333Y-68277023D01*
X198500952Y-68372261D01*
X198500952Y-68562738D01*
X198548571Y-68657976D01*
X198596190Y-68705595D01*
X198691428Y-68753214D01*
X198881904Y-68753214D01*
X198977142Y-68705595D01*
X199024761Y-68657976D01*
X199072380Y-68562738D01*
X199072380Y-68372261D01*
X199024761Y-68277023D01*
X198977142Y-68229404D01*
X198881904Y-68181785D01*
X198691428Y-68181785D01*
X198596190Y-68229404D01*
X198548571Y-68277023D01*
X198500952Y-68372261D01*
X204245833Y-82752380D02*
X203912500Y-82276190D01*
X203674404Y-82752380D02*
X203674404Y-81752380D01*
X204055357Y-81752380D01*
X204150595Y-81800000D01*
X204198214Y-81847619D01*
X204245833Y-81942857D01*
X204245833Y-82085714D01*
X204198214Y-82180952D01*
X204150595Y-82228571D01*
X204055357Y-82276190D01*
X203674404Y-82276190D01*
X204722023Y-82752380D02*
X204912500Y-82752380D01*
X205007738Y-82704761D01*
X205055357Y-82657142D01*
X205150595Y-82514285D01*
X205198214Y-82323809D01*
X205198214Y-81942857D01*
X205150595Y-81847619D01*
X205102976Y-81800000D01*
X205007738Y-81752380D01*
X204817261Y-81752380D01*
X204722023Y-81800000D01*
X204674404Y-81847619D01*
X204626785Y-81942857D01*
X204626785Y-82180952D01*
X204674404Y-82276190D01*
X204722023Y-82323809D01*
X204817261Y-82371428D01*
X205007738Y-82371428D01*
X205102976Y-82323809D01*
X205150595Y-82276190D01*
X205198214Y-82180952D01*
X155742642Y-123006380D02*
X155409309Y-122530190D01*
X155171214Y-123006380D02*
X155171214Y-122006380D01*
X155552166Y-122006380D01*
X155647404Y-122054000D01*
X155695023Y-122101619D01*
X155742642Y-122196857D01*
X155742642Y-122339714D01*
X155695023Y-122434952D01*
X155647404Y-122482571D01*
X155552166Y-122530190D01*
X155171214Y-122530190D01*
X156695023Y-123006380D02*
X156123595Y-123006380D01*
X156409309Y-123006380D02*
X156409309Y-122006380D01*
X156314071Y-122149238D01*
X156218833Y-122244476D01*
X156123595Y-122292095D01*
X157314071Y-122006380D02*
X157409309Y-122006380D01*
X157504547Y-122054000D01*
X157552166Y-122101619D01*
X157599785Y-122196857D01*
X157647404Y-122387333D01*
X157647404Y-122625428D01*
X157599785Y-122815904D01*
X157552166Y-122911142D01*
X157504547Y-122958761D01*
X157409309Y-123006380D01*
X157314071Y-123006380D01*
X157218833Y-122958761D01*
X157171214Y-122911142D01*
X157123595Y-122815904D01*
X157075976Y-122625428D01*
X157075976Y-122387333D01*
X157123595Y-122196857D01*
X157171214Y-122101619D01*
X157218833Y-122054000D01*
X157314071Y-122006380D01*
X203080880Y-67952857D02*
X202604690Y-68286190D01*
X203080880Y-68524285D02*
X202080880Y-68524285D01*
X202080880Y-68143333D01*
X202128500Y-68048095D01*
X202176119Y-68000476D01*
X202271357Y-67952857D01*
X202414214Y-67952857D01*
X202509452Y-68000476D01*
X202557071Y-68048095D01*
X202604690Y-68143333D01*
X202604690Y-68524285D01*
X203080880Y-67000476D02*
X203080880Y-67571904D01*
X203080880Y-67286190D02*
X202080880Y-67286190D01*
X202223738Y-67381428D01*
X202318976Y-67476666D01*
X202366595Y-67571904D01*
X203080880Y-66048095D02*
X203080880Y-66619523D01*
X203080880Y-66333809D02*
X202080880Y-66333809D01*
X202223738Y-66429047D01*
X202318976Y-66524285D01*
X202366595Y-66619523D01*
X141396666Y-89484761D02*
X141539523Y-89532380D01*
X141777619Y-89532380D01*
X141872857Y-89484761D01*
X141920476Y-89437142D01*
X141968095Y-89341904D01*
X141968095Y-89246666D01*
X141920476Y-89151428D01*
X141872857Y-89103809D01*
X141777619Y-89056190D01*
X141587142Y-89008571D01*
X141491904Y-88960952D01*
X141444285Y-88913333D01*
X141396666Y-88818095D01*
X141396666Y-88722857D01*
X141444285Y-88627619D01*
X141491904Y-88580000D01*
X141587142Y-88532380D01*
X141825238Y-88532380D01*
X141968095Y-88580000D01*
X142301428Y-88532380D02*
X142539523Y-89532380D01*
X142730000Y-88818095D01*
X142920476Y-89532380D01*
X143158571Y-88532380D01*
X144063333Y-89532380D02*
X143491904Y-89532380D01*
X143777619Y-89532380D02*
X143777619Y-88532380D01*
X143682380Y-88675238D01*
X143587142Y-88770476D01*
X143491904Y-88818095D01*
X151616666Y-73994761D02*
X151759523Y-74042380D01*
X151997619Y-74042380D01*
X152092857Y-73994761D01*
X152140476Y-73947142D01*
X152188095Y-73851904D01*
X152188095Y-73756666D01*
X152140476Y-73661428D01*
X152092857Y-73613809D01*
X151997619Y-73566190D01*
X151807142Y-73518571D01*
X151711904Y-73470952D01*
X151664285Y-73423333D01*
X151616666Y-73328095D01*
X151616666Y-73232857D01*
X151664285Y-73137619D01*
X151711904Y-73090000D01*
X151807142Y-73042380D01*
X152045238Y-73042380D01*
X152188095Y-73090000D01*
X152521428Y-73042380D02*
X152759523Y-74042380D01*
X152950000Y-73328095D01*
X153140476Y-74042380D01*
X153378571Y-73042380D01*
X153711904Y-73137619D02*
X153759523Y-73090000D01*
X153854761Y-73042380D01*
X154092857Y-73042380D01*
X154188095Y-73090000D01*
X154235714Y-73137619D01*
X154283333Y-73232857D01*
X154283333Y-73328095D01*
X154235714Y-73470952D01*
X153664285Y-74042380D01*
X154283333Y-74042380D01*
X172038095Y-107652380D02*
X172038095Y-108461904D01*
X172085714Y-108557142D01*
X172133333Y-108604761D01*
X172228571Y-108652380D01*
X172419047Y-108652380D01*
X172514285Y-108604761D01*
X172561904Y-108557142D01*
X172609523Y-108461904D01*
X172609523Y-107652380D01*
X173609523Y-108652380D02*
X173038095Y-108652380D01*
X173323809Y-108652380D02*
X173323809Y-107652380D01*
X173228571Y-107795238D01*
X173133333Y-107890476D01*
X173038095Y-107938095D01*
X142748095Y-51467380D02*
X142748095Y-52276904D01*
X142795714Y-52372142D01*
X142843333Y-52419761D01*
X142938571Y-52467380D01*
X143129047Y-52467380D01*
X143224285Y-52419761D01*
X143271904Y-52372142D01*
X143319523Y-52276904D01*
X143319523Y-51467380D01*
X143748095Y-51562619D02*
X143795714Y-51515000D01*
X143890952Y-51467380D01*
X144129047Y-51467380D01*
X144224285Y-51515000D01*
X144271904Y-51562619D01*
X144319523Y-51657857D01*
X144319523Y-51753095D01*
X144271904Y-51895952D01*
X143700476Y-52467380D01*
X144319523Y-52467380D01*
X150476190Y-106896190D02*
X150952380Y-106896190D01*
X149952380Y-107229523D02*
X150476190Y-106896190D01*
X149952380Y-106562857D01*
X150952380Y-105705714D02*
X150952380Y-106277142D01*
X150952380Y-105991428D02*
X149952380Y-105991428D01*
X150095238Y-106086666D01*
X150190476Y-106181904D01*
X150238095Y-106277142D01*
X123761666Y-50227380D02*
X123428333Y-49751190D01*
X123190238Y-50227380D02*
X123190238Y-49227380D01*
X123571190Y-49227380D01*
X123666428Y-49275000D01*
X123714047Y-49322619D01*
X123761666Y-49417857D01*
X123761666Y-49560714D01*
X123714047Y-49655952D01*
X123666428Y-49703571D01*
X123571190Y-49751190D01*
X123190238Y-49751190D01*
X124190238Y-49703571D02*
X124523571Y-49703571D01*
X124666428Y-50227380D02*
X124190238Y-50227380D01*
X124190238Y-49227380D01*
X124666428Y-49227380D01*
X125428333Y-49703571D02*
X125095000Y-49703571D01*
X125095000Y-50227380D02*
X125095000Y-49227380D01*
X125571190Y-49227380D01*
X126095000Y-49227380D02*
X126095000Y-49465476D01*
X125856904Y-49370238D02*
X126095000Y-49465476D01*
X126333095Y-49370238D01*
X125952142Y-49655952D02*
X126095000Y-49465476D01*
X126237857Y-49655952D01*
X126856904Y-49227380D02*
X126856904Y-49465476D01*
X126618809Y-49370238D02*
X126856904Y-49465476D01*
X127095000Y-49370238D01*
X126714047Y-49655952D02*
X126856904Y-49465476D01*
X126999761Y-49655952D01*
X155352809Y-104624190D02*
X155352809Y-105100380D01*
X155019476Y-104100380D02*
X155352809Y-104624190D01*
X155686142Y-104100380D01*
X155971857Y-104195619D02*
X156019476Y-104148000D01*
X156114714Y-104100380D01*
X156352809Y-104100380D01*
X156448047Y-104148000D01*
X156495666Y-104195619D01*
X156543285Y-104290857D01*
X156543285Y-104386095D01*
X156495666Y-104528952D01*
X155924238Y-105100380D01*
X156543285Y-105100380D01*
M02*
