M48
INCH,LZ
T1C0.0157
T2C0.0197
T3C0.0315
T4C0.0394
T5C0.0433
T6C0.1260
%
G90
G05
T1
X05611Y-039858
X0568Y-0349
X0596Y-0422
X0596Y-0516
X0601Y-0468
X060146Y-038929
X0606Y-0422
X0614Y-0431
X062234Y-023327
X0625Y-042
X06253Y-027441
X062579Y-039035
X062622Y-044327
X062717Y-025157
X063Y-0425
X063028Y-045181
X06313Y-03438
X063543Y-025945
X0636Y-0516
X063622Y-026654
X063728Y-043232
X063913Y-038465
X064209Y-045303
X064252Y-027362
X064301Y-023533
X064656Y-027874
X0647Y-0431
X0648Y-0435
X064803Y-030906
X064823Y-031496
X064882Y-031978
X064902Y-040961
X0659Y-0392
X066335Y-041122
X06652Y-030465
X0666Y-0492
X066748Y-040709
X067Y-0518
X06704Y-041475
X0671Y-041
X0672Y-0512
X067224Y-032274
X067283Y-030906
X0674Y-0492
X0675Y-040709
X067795Y-032697
X068031Y-031299
X0681Y-033071
X0683Y-041
X0685Y-0492
X0688Y-0411
X068819Y-031388
X068898Y-041598
X0692Y-0411
X069606Y-031398
X070394Y-031407
X0705Y-0495
X0709Y-0498
X071Y-0503
X071Y-0508
X071Y-0514
X071Y-0518
X071171Y-031437
X0714Y-0474
X0715Y-0421
X0716Y-0417
X071709Y-038921
X0718Y-0474
X071925Y-041161
X0722Y-0474
X072295Y-043701
X072465Y-041244
X0726Y-0494
X0726Y-0498
X0726Y-0502
X0726Y-0506
X07263Y-042957
X072665Y-048701
X0734Y-0408
X073496Y-047984
X0738Y-0514
X0739Y-044577
X074Y-0518
X074224Y-042949
X0744Y-0443
X074764Y-02437
X074882Y-02815
X075Y-048
X075039Y-025157
X075079Y-025945
X076Y-0514
X0761Y-0518
X07622Y-029685
X0769Y-0486
X0769Y-0518
T2
X076378Y-032559
X061004Y-040488
X061752Y-040488
T3
X05325Y-022016
X05325Y-023
X05813Y-04115
X05813Y-042646
X06025Y-021213
X06025Y-022
T4
X078425Y-03061
X078425Y-03161
X078425Y-03261
X075795Y-03685
X075795Y-03785
X076795Y-03685
X076795Y-03785
X077795Y-03685
X077795Y-03785
X072835Y-035429
X072835Y-036429
X072835Y-037429
X072835Y-038429
X067264Y-037343
X067264Y-038343
X068264Y-037343
X068264Y-038343
X069264Y-037343
X069264Y-038343
X0553Y-0252
X0553Y-0262
X0521Y-0534
X0531Y-0534
X0541Y-0534
X0551Y-0534
X0561Y-0534
X0571Y-0534
X0581Y-0534
X0591Y-0534
X0601Y-0534
X0611Y-0534
X0621Y-0534
X0631Y-0534
X0641Y-0534
X0664Y-0534
X0674Y-0534
X0684Y-0534
X0694Y-0534
X0704Y-0534
X0714Y-0534
X0724Y-0534
X0734Y-0534
X0744Y-0534
X0754Y-0534
X0764Y-0534
X0774Y-0534
X0784Y-0534
X08189Y-02378
X08189Y-02478
X08189Y-02578
X08189Y-02678
X08189Y-02778
X08189Y-02878
X08189Y-02978
X08189Y-03078
X08189Y-03178
X08189Y-03278
X0488Y-0414
X0488Y-0424
X0488Y-0434
X0488Y-0444
X08189Y-035827
X08189Y-036827
X08189Y-037827
X08189Y-038827
X048031Y-031346
X048031Y-032346
X048031Y-033346
X048031Y-034346
X048031Y-035346
X048031Y-036346
X048031Y-037346
X048031Y-038346
T5
X054913Y-035858
X054913Y-03763
X057472Y-035858
X057472Y-03763
X059183Y-025482
X059183Y-028041
X060955Y-025482
X060955Y-028041
T6
X04925Y-05275
X04925Y-02125
X081Y-02125
X081Y-05275
T4
G00X049Y-026106
M15
G01X049Y-026894
M16
G05
G00X049787Y-02835
M15
G01X050575Y-02835
M16
G05
G00X051362Y-026106
M15
G01X051362Y-026894
M16
G05
T0
M30
