G04 #@! TF.GenerationSoftware,KiCad,Pcbnew,(5.1.6)-1*
G04 #@! TF.CreationDate,2020-10-12T10:23:52+03:00*
G04 #@! TF.ProjectId,STM32_ESP8266_devboard,53544d33-325f-4455-9350-383236365f64,rev?*
G04 #@! TF.SameCoordinates,Original*
G04 #@! TF.FileFunction,Paste,Top*
G04 #@! TF.FilePolarity,Positive*
%FSLAX46Y46*%
G04 Gerber Fmt 4.6, Leading zero omitted, Abs format (unit mm)*
G04 Created by KiCad (PCBNEW (5.1.6)-1) date 2020-10-12 10:23:52*
%MOMM*%
%LPD*%
G01*
G04 APERTURE LIST*
%ADD10R,2.500000X1.000000*%
%ADD11R,1.000000X1.800000*%
%ADD12R,1.300000X0.250000*%
%ADD13R,0.250000X1.300000*%
%ADD14R,2.000000X3.800000*%
%ADD15R,2.000000X1.500000*%
%ADD16R,2.500000X6.000000*%
G04 APERTURE END LIST*
D10*
X168200000Y-57900000D03*
X168200000Y-59900000D03*
X168200000Y-61900000D03*
X168200000Y-63900000D03*
X168200000Y-65900000D03*
X168200000Y-67900000D03*
X168200000Y-69900000D03*
X168200000Y-71900000D03*
D11*
X170800000Y-73400000D03*
X172800000Y-73400000D03*
X174800000Y-73400000D03*
X176800000Y-73400000D03*
X178800000Y-73400000D03*
X180800000Y-73400000D03*
D10*
X183400000Y-71900000D03*
X183400000Y-69900000D03*
X183400000Y-67900000D03*
X183400000Y-65900000D03*
X183400000Y-63900000D03*
X183400000Y-61900000D03*
X183400000Y-59900000D03*
X183400000Y-57900000D03*
G36*
G01*
X160743750Y-115697500D02*
X161656250Y-115697500D01*
G75*
G02*
X161900000Y-115941250I0J-243750D01*
G01*
X161900000Y-116428750D01*
G75*
G02*
X161656250Y-116672500I-243750J0D01*
G01*
X160743750Y-116672500D01*
G75*
G02*
X160500000Y-116428750I0J243750D01*
G01*
X160500000Y-115941250D01*
G75*
G02*
X160743750Y-115697500I243750J0D01*
G01*
G37*
G36*
G01*
X160743750Y-117572500D02*
X161656250Y-117572500D01*
G75*
G02*
X161900000Y-117816250I0J-243750D01*
G01*
X161900000Y-118303750D01*
G75*
G02*
X161656250Y-118547500I-243750J0D01*
G01*
X160743750Y-118547500D01*
G75*
G02*
X160500000Y-118303750I0J243750D01*
G01*
X160500000Y-117816250D01*
G75*
G02*
X160743750Y-117572500I243750J0D01*
G01*
G37*
G36*
G01*
X144917500Y-104073750D02*
X144917500Y-104986250D01*
G75*
G02*
X144673750Y-105230000I-243750J0D01*
G01*
X144186250Y-105230000D01*
G75*
G02*
X143942500Y-104986250I0J243750D01*
G01*
X143942500Y-104073750D01*
G75*
G02*
X144186250Y-103830000I243750J0D01*
G01*
X144673750Y-103830000D01*
G75*
G02*
X144917500Y-104073750I0J-243750D01*
G01*
G37*
G36*
G01*
X143042500Y-104073750D02*
X143042500Y-104986250D01*
G75*
G02*
X142798750Y-105230000I-243750J0D01*
G01*
X142311250Y-105230000D01*
G75*
G02*
X142067500Y-104986250I0J243750D01*
G01*
X142067500Y-104073750D01*
G75*
G02*
X142311250Y-103830000I243750J0D01*
G01*
X142798750Y-103830000D01*
G75*
G02*
X143042500Y-104073750I0J-243750D01*
G01*
G37*
G36*
G01*
X181546250Y-111462500D02*
X180633750Y-111462500D01*
G75*
G02*
X180390000Y-111218750I0J243750D01*
G01*
X180390000Y-110731250D01*
G75*
G02*
X180633750Y-110487500I243750J0D01*
G01*
X181546250Y-110487500D01*
G75*
G02*
X181790000Y-110731250I0J-243750D01*
G01*
X181790000Y-111218750D01*
G75*
G02*
X181546250Y-111462500I-243750J0D01*
G01*
G37*
G36*
G01*
X181546250Y-109587500D02*
X180633750Y-109587500D01*
G75*
G02*
X180390000Y-109343750I0J243750D01*
G01*
X180390000Y-108856250D01*
G75*
G02*
X180633750Y-108612500I243750J0D01*
G01*
X181546250Y-108612500D01*
G75*
G02*
X181790000Y-108856250I0J-243750D01*
G01*
X181790000Y-109343750D01*
G75*
G02*
X181546250Y-109587500I-243750J0D01*
G01*
G37*
G36*
G01*
X144977500Y-107873750D02*
X144977500Y-108786250D01*
G75*
G02*
X144733750Y-109030000I-243750J0D01*
G01*
X144246250Y-109030000D01*
G75*
G02*
X144002500Y-108786250I0J243750D01*
G01*
X144002500Y-107873750D01*
G75*
G02*
X144246250Y-107630000I243750J0D01*
G01*
X144733750Y-107630000D01*
G75*
G02*
X144977500Y-107873750I0J-243750D01*
G01*
G37*
G36*
G01*
X143102500Y-107873750D02*
X143102500Y-108786250D01*
G75*
G02*
X142858750Y-109030000I-243750J0D01*
G01*
X142371250Y-109030000D01*
G75*
G02*
X142127500Y-108786250I0J243750D01*
G01*
X142127500Y-107873750D01*
G75*
G02*
X142371250Y-107630000I243750J0D01*
G01*
X142858750Y-107630000D01*
G75*
G02*
X143102500Y-107873750I0J-243750D01*
G01*
G37*
G36*
G01*
X168043750Y-107082500D02*
X168956250Y-107082500D01*
G75*
G02*
X169200000Y-107326250I0J-243750D01*
G01*
X169200000Y-107813750D01*
G75*
G02*
X168956250Y-108057500I-243750J0D01*
G01*
X168043750Y-108057500D01*
G75*
G02*
X167800000Y-107813750I0J243750D01*
G01*
X167800000Y-107326250D01*
G75*
G02*
X168043750Y-107082500I243750J0D01*
G01*
G37*
G36*
G01*
X168043750Y-105207500D02*
X168956250Y-105207500D01*
G75*
G02*
X169200000Y-105451250I0J-243750D01*
G01*
X169200000Y-105938750D01*
G75*
G02*
X168956250Y-106182500I-243750J0D01*
G01*
X168043750Y-106182500D01*
G75*
G02*
X167800000Y-105938750I0J243750D01*
G01*
X167800000Y-105451250D01*
G75*
G02*
X168043750Y-105207500I243750J0D01*
G01*
G37*
G36*
G01*
X164353750Y-105052500D02*
X165266250Y-105052500D01*
G75*
G02*
X165510000Y-105296250I0J-243750D01*
G01*
X165510000Y-105783750D01*
G75*
G02*
X165266250Y-106027500I-243750J0D01*
G01*
X164353750Y-106027500D01*
G75*
G02*
X164110000Y-105783750I0J243750D01*
G01*
X164110000Y-105296250D01*
G75*
G02*
X164353750Y-105052500I243750J0D01*
G01*
G37*
G36*
G01*
X164353750Y-106927500D02*
X165266250Y-106927500D01*
G75*
G02*
X165510000Y-107171250I0J-243750D01*
G01*
X165510000Y-107658750D01*
G75*
G02*
X165266250Y-107902500I-243750J0D01*
G01*
X164353750Y-107902500D01*
G75*
G02*
X164110000Y-107658750I0J243750D01*
G01*
X164110000Y-107171250D01*
G75*
G02*
X164353750Y-106927500I243750J0D01*
G01*
G37*
G36*
G01*
X159516250Y-101337500D02*
X158603750Y-101337500D01*
G75*
G02*
X158360000Y-101093750I0J243750D01*
G01*
X158360000Y-100606250D01*
G75*
G02*
X158603750Y-100362500I243750J0D01*
G01*
X159516250Y-100362500D01*
G75*
G02*
X159760000Y-100606250I0J-243750D01*
G01*
X159760000Y-101093750D01*
G75*
G02*
X159516250Y-101337500I-243750J0D01*
G01*
G37*
G36*
G01*
X159516250Y-103212500D02*
X158603750Y-103212500D01*
G75*
G02*
X158360000Y-102968750I0J243750D01*
G01*
X158360000Y-102481250D01*
G75*
G02*
X158603750Y-102237500I243750J0D01*
G01*
X159516250Y-102237500D01*
G75*
G02*
X159760000Y-102481250I0J-243750D01*
G01*
X159760000Y-102968750D01*
G75*
G02*
X159516250Y-103212500I-243750J0D01*
G01*
G37*
G36*
G01*
X178586250Y-122347500D02*
X177673750Y-122347500D01*
G75*
G02*
X177430000Y-122103750I0J243750D01*
G01*
X177430000Y-121616250D01*
G75*
G02*
X177673750Y-121372500I243750J0D01*
G01*
X178586250Y-121372500D01*
G75*
G02*
X178830000Y-121616250I0J-243750D01*
G01*
X178830000Y-122103750D01*
G75*
G02*
X178586250Y-122347500I-243750J0D01*
G01*
G37*
G36*
G01*
X178586250Y-124222500D02*
X177673750Y-124222500D01*
G75*
G02*
X177430000Y-123978750I0J243750D01*
G01*
X177430000Y-123491250D01*
G75*
G02*
X177673750Y-123247500I243750J0D01*
G01*
X178586250Y-123247500D01*
G75*
G02*
X178830000Y-123491250I0J-243750D01*
G01*
X178830000Y-123978750D01*
G75*
G02*
X178586250Y-124222500I-243750J0D01*
G01*
G37*
G36*
G01*
X153206250Y-103297500D02*
X152293750Y-103297500D01*
G75*
G02*
X152050000Y-103053750I0J243750D01*
G01*
X152050000Y-102566250D01*
G75*
G02*
X152293750Y-102322500I243750J0D01*
G01*
X153206250Y-102322500D01*
G75*
G02*
X153450000Y-102566250I0J-243750D01*
G01*
X153450000Y-103053750D01*
G75*
G02*
X153206250Y-103297500I-243750J0D01*
G01*
G37*
G36*
G01*
X153206250Y-101422500D02*
X152293750Y-101422500D01*
G75*
G02*
X152050000Y-101178750I0J243750D01*
G01*
X152050000Y-100691250D01*
G75*
G02*
X152293750Y-100447500I243750J0D01*
G01*
X153206250Y-100447500D01*
G75*
G02*
X153450000Y-100691250I0J-243750D01*
G01*
X153450000Y-101178750D01*
G75*
G02*
X153206250Y-101422500I-243750J0D01*
G01*
G37*
G36*
G01*
X168030000Y-100803750D02*
X168030000Y-101716250D01*
G75*
G02*
X167786250Y-101960000I-243750J0D01*
G01*
X167298750Y-101960000D01*
G75*
G02*
X167055000Y-101716250I0J243750D01*
G01*
X167055000Y-100803750D01*
G75*
G02*
X167298750Y-100560000I243750J0D01*
G01*
X167786250Y-100560000D01*
G75*
G02*
X168030000Y-100803750I0J-243750D01*
G01*
G37*
G36*
G01*
X169905000Y-100803750D02*
X169905000Y-101716250D01*
G75*
G02*
X169661250Y-101960000I-243750J0D01*
G01*
X169173750Y-101960000D01*
G75*
G02*
X168930000Y-101716250I0J243750D01*
G01*
X168930000Y-100803750D01*
G75*
G02*
X169173750Y-100560000I243750J0D01*
G01*
X169661250Y-100560000D01*
G75*
G02*
X169905000Y-100803750I0J-243750D01*
G01*
G37*
G36*
G01*
X167532500Y-75153750D02*
X167532500Y-76066250D01*
G75*
G02*
X167288750Y-76310000I-243750J0D01*
G01*
X166801250Y-76310000D01*
G75*
G02*
X166557500Y-76066250I0J243750D01*
G01*
X166557500Y-75153750D01*
G75*
G02*
X166801250Y-74910000I243750J0D01*
G01*
X167288750Y-74910000D01*
G75*
G02*
X167532500Y-75153750I0J-243750D01*
G01*
G37*
G36*
G01*
X169407500Y-75153750D02*
X169407500Y-76066250D01*
G75*
G02*
X169163750Y-76310000I-243750J0D01*
G01*
X168676250Y-76310000D01*
G75*
G02*
X168432500Y-76066250I0J243750D01*
G01*
X168432500Y-75153750D01*
G75*
G02*
X168676250Y-74910000I243750J0D01*
G01*
X169163750Y-74910000D01*
G75*
G02*
X169407500Y-75153750I0J-243750D01*
G01*
G37*
G36*
G01*
X147904500Y-66345750D02*
X147904500Y-67258250D01*
G75*
G02*
X147660750Y-67502000I-243750J0D01*
G01*
X147173250Y-67502000D01*
G75*
G02*
X146929500Y-67258250I0J243750D01*
G01*
X146929500Y-66345750D01*
G75*
G02*
X147173250Y-66102000I243750J0D01*
G01*
X147660750Y-66102000D01*
G75*
G02*
X147904500Y-66345750I0J-243750D01*
G01*
G37*
G36*
G01*
X146029500Y-66345750D02*
X146029500Y-67258250D01*
G75*
G02*
X145785750Y-67502000I-243750J0D01*
G01*
X145298250Y-67502000D01*
G75*
G02*
X145054500Y-67258250I0J243750D01*
G01*
X145054500Y-66345750D01*
G75*
G02*
X145298250Y-66102000I243750J0D01*
G01*
X145785750Y-66102000D01*
G75*
G02*
X146029500Y-66345750I0J-243750D01*
G01*
G37*
G36*
G01*
X152674500Y-121360250D02*
X152674500Y-120447750D01*
G75*
G02*
X152918250Y-120204000I243750J0D01*
G01*
X153405750Y-120204000D01*
G75*
G02*
X153649500Y-120447750I0J-243750D01*
G01*
X153649500Y-121360250D01*
G75*
G02*
X153405750Y-121604000I-243750J0D01*
G01*
X152918250Y-121604000D01*
G75*
G02*
X152674500Y-121360250I0J243750D01*
G01*
G37*
G36*
G01*
X150799500Y-121360250D02*
X150799500Y-120447750D01*
G75*
G02*
X151043250Y-120204000I243750J0D01*
G01*
X151530750Y-120204000D01*
G75*
G02*
X151774500Y-120447750I0J-243750D01*
G01*
X151774500Y-121360250D01*
G75*
G02*
X151530750Y-121604000I-243750J0D01*
G01*
X151043250Y-121604000D01*
G75*
G02*
X150799500Y-121360250I0J243750D01*
G01*
G37*
G36*
G01*
X203232500Y-86973750D02*
X203232500Y-87886250D01*
G75*
G02*
X202988750Y-88130000I-243750J0D01*
G01*
X202501250Y-88130000D01*
G75*
G02*
X202257500Y-87886250I0J243750D01*
G01*
X202257500Y-86973750D01*
G75*
G02*
X202501250Y-86730000I243750J0D01*
G01*
X202988750Y-86730000D01*
G75*
G02*
X203232500Y-86973750I0J-243750D01*
G01*
G37*
G36*
G01*
X201357500Y-86973750D02*
X201357500Y-87886250D01*
G75*
G02*
X201113750Y-88130000I-243750J0D01*
G01*
X200626250Y-88130000D01*
G75*
G02*
X200382500Y-87886250I0J243750D01*
G01*
X200382500Y-86973750D01*
G75*
G02*
X200626250Y-86730000I243750J0D01*
G01*
X201113750Y-86730000D01*
G75*
G02*
X201357500Y-86973750I0J-243750D01*
G01*
G37*
G36*
G01*
X164977500Y-96673750D02*
X164977500Y-97586250D01*
G75*
G02*
X164733750Y-97830000I-243750J0D01*
G01*
X164246250Y-97830000D01*
G75*
G02*
X164002500Y-97586250I0J243750D01*
G01*
X164002500Y-96673750D01*
G75*
G02*
X164246250Y-96430000I243750J0D01*
G01*
X164733750Y-96430000D01*
G75*
G02*
X164977500Y-96673750I0J-243750D01*
G01*
G37*
G36*
G01*
X166852500Y-96673750D02*
X166852500Y-97586250D01*
G75*
G02*
X166608750Y-97830000I-243750J0D01*
G01*
X166121250Y-97830000D01*
G75*
G02*
X165877500Y-97586250I0J243750D01*
G01*
X165877500Y-96673750D01*
G75*
G02*
X166121250Y-96430000I243750J0D01*
G01*
X166608750Y-96430000D01*
G75*
G02*
X166852500Y-96673750I0J-243750D01*
G01*
G37*
G36*
G01*
X173866250Y-100487500D02*
X172953750Y-100487500D01*
G75*
G02*
X172710000Y-100243750I0J243750D01*
G01*
X172710000Y-99756250D01*
G75*
G02*
X172953750Y-99512500I243750J0D01*
G01*
X173866250Y-99512500D01*
G75*
G02*
X174110000Y-99756250I0J-243750D01*
G01*
X174110000Y-100243750D01*
G75*
G02*
X173866250Y-100487500I-243750J0D01*
G01*
G37*
G36*
G01*
X173866250Y-102362500D02*
X172953750Y-102362500D01*
G75*
G02*
X172710000Y-102118750I0J243750D01*
G01*
X172710000Y-101631250D01*
G75*
G02*
X172953750Y-101387500I243750J0D01*
G01*
X173866250Y-101387500D01*
G75*
G02*
X174110000Y-101631250I0J-243750D01*
G01*
X174110000Y-102118750D01*
G75*
G02*
X173866250Y-102362500I-243750J0D01*
G01*
G37*
G36*
G01*
X175223750Y-99497500D02*
X176136250Y-99497500D01*
G75*
G02*
X176380000Y-99741250I0J-243750D01*
G01*
X176380000Y-100228750D01*
G75*
G02*
X176136250Y-100472500I-243750J0D01*
G01*
X175223750Y-100472500D01*
G75*
G02*
X174980000Y-100228750I0J243750D01*
G01*
X174980000Y-99741250D01*
G75*
G02*
X175223750Y-99497500I243750J0D01*
G01*
G37*
G36*
G01*
X175223750Y-101372500D02*
X176136250Y-101372500D01*
G75*
G02*
X176380000Y-101616250I0J-243750D01*
G01*
X176380000Y-102103750D01*
G75*
G02*
X176136250Y-102347500I-243750J0D01*
G01*
X175223750Y-102347500D01*
G75*
G02*
X174980000Y-102103750I0J243750D01*
G01*
X174980000Y-101616250D01*
G75*
G02*
X175223750Y-101372500I243750J0D01*
G01*
G37*
G36*
G01*
X147945000Y-63563750D02*
X147945000Y-64476250D01*
G75*
G02*
X147701250Y-64720000I-243750J0D01*
G01*
X147213750Y-64720000D01*
G75*
G02*
X146970000Y-64476250I0J243750D01*
G01*
X146970000Y-63563750D01*
G75*
G02*
X147213750Y-63320000I243750J0D01*
G01*
X147701250Y-63320000D01*
G75*
G02*
X147945000Y-63563750I0J-243750D01*
G01*
G37*
G36*
G01*
X146070000Y-63563750D02*
X146070000Y-64476250D01*
G75*
G02*
X145826250Y-64720000I-243750J0D01*
G01*
X145338750Y-64720000D01*
G75*
G02*
X145095000Y-64476250I0J243750D01*
G01*
X145095000Y-63563750D01*
G75*
G02*
X145338750Y-63320000I243750J0D01*
G01*
X145826250Y-63320000D01*
G75*
G02*
X146070000Y-63563750I0J-243750D01*
G01*
G37*
G36*
G01*
X162562500Y-61393750D02*
X162562500Y-62306250D01*
G75*
G02*
X162318750Y-62550000I-243750J0D01*
G01*
X161831250Y-62550000D01*
G75*
G02*
X161587500Y-62306250I0J243750D01*
G01*
X161587500Y-61393750D01*
G75*
G02*
X161831250Y-61150000I243750J0D01*
G01*
X162318750Y-61150000D01*
G75*
G02*
X162562500Y-61393750I0J-243750D01*
G01*
G37*
G36*
G01*
X164437500Y-61393750D02*
X164437500Y-62306250D01*
G75*
G02*
X164193750Y-62550000I-243750J0D01*
G01*
X163706250Y-62550000D01*
G75*
G02*
X163462500Y-62306250I0J243750D01*
G01*
X163462500Y-61393750D01*
G75*
G02*
X163706250Y-61150000I243750J0D01*
G01*
X164193750Y-61150000D01*
G75*
G02*
X164437500Y-61393750I0J-243750D01*
G01*
G37*
G36*
G01*
X158812500Y-56356250D02*
X158812500Y-55443750D01*
G75*
G02*
X159056250Y-55200000I243750J0D01*
G01*
X159543750Y-55200000D01*
G75*
G02*
X159787500Y-55443750I0J-243750D01*
G01*
X159787500Y-56356250D01*
G75*
G02*
X159543750Y-56600000I-243750J0D01*
G01*
X159056250Y-56600000D01*
G75*
G02*
X158812500Y-56356250I0J243750D01*
G01*
G37*
G36*
G01*
X160687500Y-56356250D02*
X160687500Y-55443750D01*
G75*
G02*
X160931250Y-55200000I243750J0D01*
G01*
X161418750Y-55200000D01*
G75*
G02*
X161662500Y-55443750I0J-243750D01*
G01*
X161662500Y-56356250D01*
G75*
G02*
X161418750Y-56600000I-243750J0D01*
G01*
X160931250Y-56600000D01*
G75*
G02*
X160687500Y-56356250I0J243750D01*
G01*
G37*
G36*
G01*
X189387500Y-67343750D02*
X189387500Y-68256250D01*
G75*
G02*
X189143750Y-68500000I-243750J0D01*
G01*
X188656250Y-68500000D01*
G75*
G02*
X188412500Y-68256250I0J243750D01*
G01*
X188412500Y-67343750D01*
G75*
G02*
X188656250Y-67100000I243750J0D01*
G01*
X189143750Y-67100000D01*
G75*
G02*
X189387500Y-67343750I0J-243750D01*
G01*
G37*
G36*
G01*
X187512500Y-67343750D02*
X187512500Y-68256250D01*
G75*
G02*
X187268750Y-68500000I-243750J0D01*
G01*
X186781250Y-68500000D01*
G75*
G02*
X186537500Y-68256250I0J243750D01*
G01*
X186537500Y-67343750D01*
G75*
G02*
X186781250Y-67100000I243750J0D01*
G01*
X187268750Y-67100000D01*
G75*
G02*
X187512500Y-67343750I0J-243750D01*
G01*
G37*
G36*
G01*
X200726250Y-70392500D02*
X199813750Y-70392500D01*
G75*
G02*
X199570000Y-70148750I0J243750D01*
G01*
X199570000Y-69661250D01*
G75*
G02*
X199813750Y-69417500I243750J0D01*
G01*
X200726250Y-69417500D01*
G75*
G02*
X200970000Y-69661250I0J-243750D01*
G01*
X200970000Y-70148750D01*
G75*
G02*
X200726250Y-70392500I-243750J0D01*
G01*
G37*
G36*
G01*
X200726250Y-68517500D02*
X199813750Y-68517500D01*
G75*
G02*
X199570000Y-68273750I0J243750D01*
G01*
X199570000Y-67786250D01*
G75*
G02*
X199813750Y-67542500I243750J0D01*
G01*
X200726250Y-67542500D01*
G75*
G02*
X200970000Y-67786250I0J-243750D01*
G01*
X200970000Y-68273750D01*
G75*
G02*
X200726250Y-68517500I-243750J0D01*
G01*
G37*
G36*
G01*
X203962500Y-80193750D02*
X203962500Y-81106250D01*
G75*
G02*
X203718750Y-81350000I-243750J0D01*
G01*
X203231250Y-81350000D01*
G75*
G02*
X202987500Y-81106250I0J243750D01*
G01*
X202987500Y-80193750D01*
G75*
G02*
X203231250Y-79950000I243750J0D01*
G01*
X203718750Y-79950000D01*
G75*
G02*
X203962500Y-80193750I0J-243750D01*
G01*
G37*
G36*
G01*
X205837500Y-80193750D02*
X205837500Y-81106250D01*
G75*
G02*
X205593750Y-81350000I-243750J0D01*
G01*
X205106250Y-81350000D01*
G75*
G02*
X204862500Y-81106250I0J243750D01*
G01*
X204862500Y-80193750D01*
G75*
G02*
X205106250Y-79950000I243750J0D01*
G01*
X205593750Y-79950000D01*
G75*
G02*
X205837500Y-80193750I0J-243750D01*
G01*
G37*
G36*
G01*
X155935500Y-120447750D02*
X155935500Y-121360250D01*
G75*
G02*
X155691750Y-121604000I-243750J0D01*
G01*
X155204250Y-121604000D01*
G75*
G02*
X154960500Y-121360250I0J243750D01*
G01*
X154960500Y-120447750D01*
G75*
G02*
X155204250Y-120204000I243750J0D01*
G01*
X155691750Y-120204000D01*
G75*
G02*
X155935500Y-120447750I0J-243750D01*
G01*
G37*
G36*
G01*
X157810500Y-120447750D02*
X157810500Y-121360250D01*
G75*
G02*
X157566750Y-121604000I-243750J0D01*
G01*
X157079250Y-121604000D01*
G75*
G02*
X156835500Y-121360250I0J243750D01*
G01*
X156835500Y-120447750D01*
G75*
G02*
X157079250Y-120204000I243750J0D01*
G01*
X157566750Y-120204000D01*
G75*
G02*
X157810500Y-120447750I0J-243750D01*
G01*
G37*
G36*
G01*
X202172250Y-68854500D02*
X203084750Y-68854500D01*
G75*
G02*
X203328500Y-69098250I0J-243750D01*
G01*
X203328500Y-69585750D01*
G75*
G02*
X203084750Y-69829500I-243750J0D01*
G01*
X202172250Y-69829500D01*
G75*
G02*
X201928500Y-69585750I0J243750D01*
G01*
X201928500Y-69098250D01*
G75*
G02*
X202172250Y-68854500I243750J0D01*
G01*
G37*
G36*
G01*
X202172250Y-70729500D02*
X203084750Y-70729500D01*
G75*
G02*
X203328500Y-70973250I0J-243750D01*
G01*
X203328500Y-71460750D01*
G75*
G02*
X203084750Y-71704500I-243750J0D01*
G01*
X202172250Y-71704500D01*
G75*
G02*
X201928500Y-71460750I0J243750D01*
G01*
X201928500Y-70973250D01*
G75*
G02*
X202172250Y-70729500I243750J0D01*
G01*
G37*
D12*
X168450000Y-111450000D03*
X168450000Y-111950000D03*
X168450000Y-112450000D03*
X168450000Y-112950000D03*
X168450000Y-113450000D03*
X168450000Y-113950000D03*
X168450000Y-114450000D03*
X168450000Y-114950000D03*
X168450000Y-115450000D03*
X168450000Y-115950000D03*
X168450000Y-116450000D03*
X168450000Y-116950000D03*
D13*
X170050000Y-118550000D03*
X170550000Y-118550000D03*
X171050000Y-118550000D03*
X171550000Y-118550000D03*
X172050000Y-118550000D03*
X172550000Y-118550000D03*
X173050000Y-118550000D03*
X173550000Y-118550000D03*
X174050000Y-118550000D03*
X174550000Y-118550000D03*
X175050000Y-118550000D03*
X175550000Y-118550000D03*
D12*
X177150000Y-116950000D03*
X177150000Y-116450000D03*
X177150000Y-115950000D03*
X177150000Y-115450000D03*
X177150000Y-114950000D03*
X177150000Y-114450000D03*
X177150000Y-113950000D03*
X177150000Y-113450000D03*
X177150000Y-112950000D03*
X177150000Y-112450000D03*
X177150000Y-111950000D03*
X177150000Y-111450000D03*
D13*
X175550000Y-109850000D03*
X175050000Y-109850000D03*
X174550000Y-109850000D03*
X174050000Y-109850000D03*
X173550000Y-109850000D03*
X173050000Y-109850000D03*
X172550000Y-109850000D03*
X172050000Y-109850000D03*
X171550000Y-109850000D03*
X171050000Y-109850000D03*
X170550000Y-109850000D03*
X170050000Y-109850000D03*
D14*
X146660000Y-56515000D03*
D15*
X140360000Y-56515000D03*
X140360000Y-58815000D03*
X140360000Y-54215000D03*
D16*
X155900000Y-97340000D03*
M02*
