G04 #@! TF.GenerationSoftware,KiCad,Pcbnew,(5.1.6)-1*
G04 #@! TF.CreationDate,2020-10-12T10:23:52+03:00*
G04 #@! TF.ProjectId,STM32_ESP8266_devboard,53544d33-325f-4455-9350-383236365f64,rev?*
G04 #@! TF.SameCoordinates,Original*
G04 #@! TF.FileFunction,Copper,L1,Top*
G04 #@! TF.FilePolarity,Positive*
%FSLAX46Y46*%
G04 Gerber Fmt 4.6, Leading zero omitted, Abs format (unit mm)*
G04 Created by KiCad (PCBNEW (5.1.6)-1) date 2020-10-12 10:23:52*
%MOMM*%
%LPD*%
G01*
G04 APERTURE LIST*
G04 #@! TA.AperFunction,SMDPad,CuDef*
%ADD10R,2.500000X1.000000*%
G04 #@! TD*
G04 #@! TA.AperFunction,SMDPad,CuDef*
%ADD11R,1.000000X1.800000*%
G04 #@! TD*
G04 #@! TA.AperFunction,ComponentPad*
%ADD12C,6.400000*%
G04 #@! TD*
G04 #@! TA.AperFunction,ComponentPad*
%ADD13R,1.600000X1.600000*%
G04 #@! TD*
G04 #@! TA.AperFunction,ComponentPad*
%ADD14C,1.600000*%
G04 #@! TD*
G04 #@! TA.AperFunction,ComponentPad*
%ADD15R,1.700000X1.700000*%
G04 #@! TD*
G04 #@! TA.AperFunction,ComponentPad*
%ADD16O,1.700000X1.700000*%
G04 #@! TD*
G04 #@! TA.AperFunction,ComponentPad*
%ADD17O,1.600000X1.600000*%
G04 #@! TD*
G04 #@! TA.AperFunction,ComponentPad*
%ADD18R,3.500000X3.500000*%
G04 #@! TD*
G04 #@! TA.AperFunction,ComponentPad*
%ADD19C,2.000000*%
G04 #@! TD*
G04 #@! TA.AperFunction,SMDPad,CuDef*
%ADD20R,1.300000X0.250000*%
G04 #@! TD*
G04 #@! TA.AperFunction,SMDPad,CuDef*
%ADD21R,0.250000X1.300000*%
G04 #@! TD*
G04 #@! TA.AperFunction,SMDPad,CuDef*
%ADD22R,2.000000X3.800000*%
G04 #@! TD*
G04 #@! TA.AperFunction,SMDPad,CuDef*
%ADD23R,2.000000X1.500000*%
G04 #@! TD*
G04 #@! TA.AperFunction,ComponentPad*
%ADD24C,1.500000*%
G04 #@! TD*
G04 #@! TA.AperFunction,ComponentPad*
%ADD25C,1.000000*%
G04 #@! TD*
G04 #@! TA.AperFunction,SMDPad,CuDef*
%ADD26R,2.500000X6.000000*%
G04 #@! TD*
G04 #@! TA.AperFunction,ViaPad*
%ADD27C,0.800000*%
G04 #@! TD*
G04 #@! TA.AperFunction,Conductor*
%ADD28C,0.500000*%
G04 #@! TD*
G04 #@! TA.AperFunction,Conductor*
%ADD29C,1.000000*%
G04 #@! TD*
G04 #@! TA.AperFunction,Conductor*
%ADD30C,0.250000*%
G04 #@! TD*
G04 #@! TA.AperFunction,Conductor*
%ADD31C,0.300000*%
G04 #@! TD*
G04 APERTURE END LIST*
D10*
X168200000Y-57900000D03*
X168200000Y-59900000D03*
X168200000Y-61900000D03*
X168200000Y-63900000D03*
X168200000Y-65900000D03*
X168200000Y-67900000D03*
X168200000Y-69900000D03*
X168200000Y-71900000D03*
D11*
X170800000Y-73400000D03*
X172800000Y-73400000D03*
X174800000Y-73400000D03*
X176800000Y-73400000D03*
X178800000Y-73400000D03*
X180800000Y-73400000D03*
D10*
X183400000Y-71900000D03*
X183400000Y-69900000D03*
X183400000Y-67900000D03*
X183400000Y-65900000D03*
X183400000Y-63900000D03*
X183400000Y-61900000D03*
X183400000Y-59900000D03*
X183400000Y-57900000D03*
D12*
X125095000Y-133985000D03*
X205740000Y-133985000D03*
X205740000Y-53975000D03*
G04 #@! TA.AperFunction,SMDPad,CuDef*
G36*
G01*
X160743750Y-115697500D02*
X161656250Y-115697500D01*
G75*
G02*
X161900000Y-115941250I0J-243750D01*
G01*
X161900000Y-116428750D01*
G75*
G02*
X161656250Y-116672500I-243750J0D01*
G01*
X160743750Y-116672500D01*
G75*
G02*
X160500000Y-116428750I0J243750D01*
G01*
X160500000Y-115941250D01*
G75*
G02*
X160743750Y-115697500I243750J0D01*
G01*
G37*
G04 #@! TD.AperFunction*
G04 #@! TA.AperFunction,SMDPad,CuDef*
G36*
G01*
X160743750Y-117572500D02*
X161656250Y-117572500D01*
G75*
G02*
X161900000Y-117816250I0J-243750D01*
G01*
X161900000Y-118303750D01*
G75*
G02*
X161656250Y-118547500I-243750J0D01*
G01*
X160743750Y-118547500D01*
G75*
G02*
X160500000Y-118303750I0J243750D01*
G01*
X160500000Y-117816250D01*
G75*
G02*
X160743750Y-117572500I243750J0D01*
G01*
G37*
G04 #@! TD.AperFunction*
G04 #@! TA.AperFunction,SMDPad,CuDef*
G36*
G01*
X144917500Y-104073750D02*
X144917500Y-104986250D01*
G75*
G02*
X144673750Y-105230000I-243750J0D01*
G01*
X144186250Y-105230000D01*
G75*
G02*
X143942500Y-104986250I0J243750D01*
G01*
X143942500Y-104073750D01*
G75*
G02*
X144186250Y-103830000I243750J0D01*
G01*
X144673750Y-103830000D01*
G75*
G02*
X144917500Y-104073750I0J-243750D01*
G01*
G37*
G04 #@! TD.AperFunction*
G04 #@! TA.AperFunction,SMDPad,CuDef*
G36*
G01*
X143042500Y-104073750D02*
X143042500Y-104986250D01*
G75*
G02*
X142798750Y-105230000I-243750J0D01*
G01*
X142311250Y-105230000D01*
G75*
G02*
X142067500Y-104986250I0J243750D01*
G01*
X142067500Y-104073750D01*
G75*
G02*
X142311250Y-103830000I243750J0D01*
G01*
X142798750Y-103830000D01*
G75*
G02*
X143042500Y-104073750I0J-243750D01*
G01*
G37*
G04 #@! TD.AperFunction*
G04 #@! TA.AperFunction,SMDPad,CuDef*
G36*
G01*
X181546250Y-111462500D02*
X180633750Y-111462500D01*
G75*
G02*
X180390000Y-111218750I0J243750D01*
G01*
X180390000Y-110731250D01*
G75*
G02*
X180633750Y-110487500I243750J0D01*
G01*
X181546250Y-110487500D01*
G75*
G02*
X181790000Y-110731250I0J-243750D01*
G01*
X181790000Y-111218750D01*
G75*
G02*
X181546250Y-111462500I-243750J0D01*
G01*
G37*
G04 #@! TD.AperFunction*
G04 #@! TA.AperFunction,SMDPad,CuDef*
G36*
G01*
X181546250Y-109587500D02*
X180633750Y-109587500D01*
G75*
G02*
X180390000Y-109343750I0J243750D01*
G01*
X180390000Y-108856250D01*
G75*
G02*
X180633750Y-108612500I243750J0D01*
G01*
X181546250Y-108612500D01*
G75*
G02*
X181790000Y-108856250I0J-243750D01*
G01*
X181790000Y-109343750D01*
G75*
G02*
X181546250Y-109587500I-243750J0D01*
G01*
G37*
G04 #@! TD.AperFunction*
G04 #@! TA.AperFunction,SMDPad,CuDef*
G36*
G01*
X144977500Y-107873750D02*
X144977500Y-108786250D01*
G75*
G02*
X144733750Y-109030000I-243750J0D01*
G01*
X144246250Y-109030000D01*
G75*
G02*
X144002500Y-108786250I0J243750D01*
G01*
X144002500Y-107873750D01*
G75*
G02*
X144246250Y-107630000I243750J0D01*
G01*
X144733750Y-107630000D01*
G75*
G02*
X144977500Y-107873750I0J-243750D01*
G01*
G37*
G04 #@! TD.AperFunction*
G04 #@! TA.AperFunction,SMDPad,CuDef*
G36*
G01*
X143102500Y-107873750D02*
X143102500Y-108786250D01*
G75*
G02*
X142858750Y-109030000I-243750J0D01*
G01*
X142371250Y-109030000D01*
G75*
G02*
X142127500Y-108786250I0J243750D01*
G01*
X142127500Y-107873750D01*
G75*
G02*
X142371250Y-107630000I243750J0D01*
G01*
X142858750Y-107630000D01*
G75*
G02*
X143102500Y-107873750I0J-243750D01*
G01*
G37*
G04 #@! TD.AperFunction*
G04 #@! TA.AperFunction,SMDPad,CuDef*
G36*
G01*
X168043750Y-107082500D02*
X168956250Y-107082500D01*
G75*
G02*
X169200000Y-107326250I0J-243750D01*
G01*
X169200000Y-107813750D01*
G75*
G02*
X168956250Y-108057500I-243750J0D01*
G01*
X168043750Y-108057500D01*
G75*
G02*
X167800000Y-107813750I0J243750D01*
G01*
X167800000Y-107326250D01*
G75*
G02*
X168043750Y-107082500I243750J0D01*
G01*
G37*
G04 #@! TD.AperFunction*
G04 #@! TA.AperFunction,SMDPad,CuDef*
G36*
G01*
X168043750Y-105207500D02*
X168956250Y-105207500D01*
G75*
G02*
X169200000Y-105451250I0J-243750D01*
G01*
X169200000Y-105938750D01*
G75*
G02*
X168956250Y-106182500I-243750J0D01*
G01*
X168043750Y-106182500D01*
G75*
G02*
X167800000Y-105938750I0J243750D01*
G01*
X167800000Y-105451250D01*
G75*
G02*
X168043750Y-105207500I243750J0D01*
G01*
G37*
G04 #@! TD.AperFunction*
G04 #@! TA.AperFunction,SMDPad,CuDef*
G36*
G01*
X164353750Y-105052500D02*
X165266250Y-105052500D01*
G75*
G02*
X165510000Y-105296250I0J-243750D01*
G01*
X165510000Y-105783750D01*
G75*
G02*
X165266250Y-106027500I-243750J0D01*
G01*
X164353750Y-106027500D01*
G75*
G02*
X164110000Y-105783750I0J243750D01*
G01*
X164110000Y-105296250D01*
G75*
G02*
X164353750Y-105052500I243750J0D01*
G01*
G37*
G04 #@! TD.AperFunction*
G04 #@! TA.AperFunction,SMDPad,CuDef*
G36*
G01*
X164353750Y-106927500D02*
X165266250Y-106927500D01*
G75*
G02*
X165510000Y-107171250I0J-243750D01*
G01*
X165510000Y-107658750D01*
G75*
G02*
X165266250Y-107902500I-243750J0D01*
G01*
X164353750Y-107902500D01*
G75*
G02*
X164110000Y-107658750I0J243750D01*
G01*
X164110000Y-107171250D01*
G75*
G02*
X164353750Y-106927500I243750J0D01*
G01*
G37*
G04 #@! TD.AperFunction*
G04 #@! TA.AperFunction,SMDPad,CuDef*
G36*
G01*
X159516250Y-101337500D02*
X158603750Y-101337500D01*
G75*
G02*
X158360000Y-101093750I0J243750D01*
G01*
X158360000Y-100606250D01*
G75*
G02*
X158603750Y-100362500I243750J0D01*
G01*
X159516250Y-100362500D01*
G75*
G02*
X159760000Y-100606250I0J-243750D01*
G01*
X159760000Y-101093750D01*
G75*
G02*
X159516250Y-101337500I-243750J0D01*
G01*
G37*
G04 #@! TD.AperFunction*
G04 #@! TA.AperFunction,SMDPad,CuDef*
G36*
G01*
X159516250Y-103212500D02*
X158603750Y-103212500D01*
G75*
G02*
X158360000Y-102968750I0J243750D01*
G01*
X158360000Y-102481250D01*
G75*
G02*
X158603750Y-102237500I243750J0D01*
G01*
X159516250Y-102237500D01*
G75*
G02*
X159760000Y-102481250I0J-243750D01*
G01*
X159760000Y-102968750D01*
G75*
G02*
X159516250Y-103212500I-243750J0D01*
G01*
G37*
G04 #@! TD.AperFunction*
G04 #@! TA.AperFunction,SMDPad,CuDef*
G36*
G01*
X178586250Y-122347500D02*
X177673750Y-122347500D01*
G75*
G02*
X177430000Y-122103750I0J243750D01*
G01*
X177430000Y-121616250D01*
G75*
G02*
X177673750Y-121372500I243750J0D01*
G01*
X178586250Y-121372500D01*
G75*
G02*
X178830000Y-121616250I0J-243750D01*
G01*
X178830000Y-122103750D01*
G75*
G02*
X178586250Y-122347500I-243750J0D01*
G01*
G37*
G04 #@! TD.AperFunction*
G04 #@! TA.AperFunction,SMDPad,CuDef*
G36*
G01*
X178586250Y-124222500D02*
X177673750Y-124222500D01*
G75*
G02*
X177430000Y-123978750I0J243750D01*
G01*
X177430000Y-123491250D01*
G75*
G02*
X177673750Y-123247500I243750J0D01*
G01*
X178586250Y-123247500D01*
G75*
G02*
X178830000Y-123491250I0J-243750D01*
G01*
X178830000Y-123978750D01*
G75*
G02*
X178586250Y-124222500I-243750J0D01*
G01*
G37*
G04 #@! TD.AperFunction*
G04 #@! TA.AperFunction,SMDPad,CuDef*
G36*
G01*
X153206250Y-103297500D02*
X152293750Y-103297500D01*
G75*
G02*
X152050000Y-103053750I0J243750D01*
G01*
X152050000Y-102566250D01*
G75*
G02*
X152293750Y-102322500I243750J0D01*
G01*
X153206250Y-102322500D01*
G75*
G02*
X153450000Y-102566250I0J-243750D01*
G01*
X153450000Y-103053750D01*
G75*
G02*
X153206250Y-103297500I-243750J0D01*
G01*
G37*
G04 #@! TD.AperFunction*
G04 #@! TA.AperFunction,SMDPad,CuDef*
G36*
G01*
X153206250Y-101422500D02*
X152293750Y-101422500D01*
G75*
G02*
X152050000Y-101178750I0J243750D01*
G01*
X152050000Y-100691250D01*
G75*
G02*
X152293750Y-100447500I243750J0D01*
G01*
X153206250Y-100447500D01*
G75*
G02*
X153450000Y-100691250I0J-243750D01*
G01*
X153450000Y-101178750D01*
G75*
G02*
X153206250Y-101422500I-243750J0D01*
G01*
G37*
G04 #@! TD.AperFunction*
G04 #@! TA.AperFunction,SMDPad,CuDef*
G36*
G01*
X168030000Y-100803750D02*
X168030000Y-101716250D01*
G75*
G02*
X167786250Y-101960000I-243750J0D01*
G01*
X167298750Y-101960000D01*
G75*
G02*
X167055000Y-101716250I0J243750D01*
G01*
X167055000Y-100803750D01*
G75*
G02*
X167298750Y-100560000I243750J0D01*
G01*
X167786250Y-100560000D01*
G75*
G02*
X168030000Y-100803750I0J-243750D01*
G01*
G37*
G04 #@! TD.AperFunction*
G04 #@! TA.AperFunction,SMDPad,CuDef*
G36*
G01*
X169905000Y-100803750D02*
X169905000Y-101716250D01*
G75*
G02*
X169661250Y-101960000I-243750J0D01*
G01*
X169173750Y-101960000D01*
G75*
G02*
X168930000Y-101716250I0J243750D01*
G01*
X168930000Y-100803750D01*
G75*
G02*
X169173750Y-100560000I243750J0D01*
G01*
X169661250Y-100560000D01*
G75*
G02*
X169905000Y-100803750I0J-243750D01*
G01*
G37*
G04 #@! TD.AperFunction*
D13*
X135255000Y-58420000D03*
D14*
X135255000Y-55920000D03*
D13*
X153035000Y-55880000D03*
D14*
X153035000Y-53880000D03*
G04 #@! TA.AperFunction,SMDPad,CuDef*
G36*
G01*
X167532500Y-75153750D02*
X167532500Y-76066250D01*
G75*
G02*
X167288750Y-76310000I-243750J0D01*
G01*
X166801250Y-76310000D01*
G75*
G02*
X166557500Y-76066250I0J243750D01*
G01*
X166557500Y-75153750D01*
G75*
G02*
X166801250Y-74910000I243750J0D01*
G01*
X167288750Y-74910000D01*
G75*
G02*
X167532500Y-75153750I0J-243750D01*
G01*
G37*
G04 #@! TD.AperFunction*
G04 #@! TA.AperFunction,SMDPad,CuDef*
G36*
G01*
X169407500Y-75153750D02*
X169407500Y-76066250D01*
G75*
G02*
X169163750Y-76310000I-243750J0D01*
G01*
X168676250Y-76310000D01*
G75*
G02*
X168432500Y-76066250I0J243750D01*
G01*
X168432500Y-75153750D01*
G75*
G02*
X168676250Y-74910000I243750J0D01*
G01*
X169163750Y-74910000D01*
G75*
G02*
X169407500Y-75153750I0J-243750D01*
G01*
G37*
G04 #@! TD.AperFunction*
G04 #@! TA.AperFunction,SMDPad,CuDef*
G36*
G01*
X147904500Y-66345750D02*
X147904500Y-67258250D01*
G75*
G02*
X147660750Y-67502000I-243750J0D01*
G01*
X147173250Y-67502000D01*
G75*
G02*
X146929500Y-67258250I0J243750D01*
G01*
X146929500Y-66345750D01*
G75*
G02*
X147173250Y-66102000I243750J0D01*
G01*
X147660750Y-66102000D01*
G75*
G02*
X147904500Y-66345750I0J-243750D01*
G01*
G37*
G04 #@! TD.AperFunction*
G04 #@! TA.AperFunction,SMDPad,CuDef*
G36*
G01*
X146029500Y-66345750D02*
X146029500Y-67258250D01*
G75*
G02*
X145785750Y-67502000I-243750J0D01*
G01*
X145298250Y-67502000D01*
G75*
G02*
X145054500Y-67258250I0J243750D01*
G01*
X145054500Y-66345750D01*
G75*
G02*
X145298250Y-66102000I243750J0D01*
G01*
X145785750Y-66102000D01*
G75*
G02*
X146029500Y-66345750I0J-243750D01*
G01*
G37*
G04 #@! TD.AperFunction*
G04 #@! TA.AperFunction,SMDPad,CuDef*
G36*
G01*
X152674500Y-121360250D02*
X152674500Y-120447750D01*
G75*
G02*
X152918250Y-120204000I243750J0D01*
G01*
X153405750Y-120204000D01*
G75*
G02*
X153649500Y-120447750I0J-243750D01*
G01*
X153649500Y-121360250D01*
G75*
G02*
X153405750Y-121604000I-243750J0D01*
G01*
X152918250Y-121604000D01*
G75*
G02*
X152674500Y-121360250I0J243750D01*
G01*
G37*
G04 #@! TD.AperFunction*
G04 #@! TA.AperFunction,SMDPad,CuDef*
G36*
G01*
X150799500Y-121360250D02*
X150799500Y-120447750D01*
G75*
G02*
X151043250Y-120204000I243750J0D01*
G01*
X151530750Y-120204000D01*
G75*
G02*
X151774500Y-120447750I0J-243750D01*
G01*
X151774500Y-121360250D01*
G75*
G02*
X151530750Y-121604000I-243750J0D01*
G01*
X151043250Y-121604000D01*
G75*
G02*
X150799500Y-121360250I0J243750D01*
G01*
G37*
G04 #@! TD.AperFunction*
G04 #@! TA.AperFunction,SMDPad,CuDef*
G36*
G01*
X203232500Y-86973750D02*
X203232500Y-87886250D01*
G75*
G02*
X202988750Y-88130000I-243750J0D01*
G01*
X202501250Y-88130000D01*
G75*
G02*
X202257500Y-87886250I0J243750D01*
G01*
X202257500Y-86973750D01*
G75*
G02*
X202501250Y-86730000I243750J0D01*
G01*
X202988750Y-86730000D01*
G75*
G02*
X203232500Y-86973750I0J-243750D01*
G01*
G37*
G04 #@! TD.AperFunction*
G04 #@! TA.AperFunction,SMDPad,CuDef*
G36*
G01*
X201357500Y-86973750D02*
X201357500Y-87886250D01*
G75*
G02*
X201113750Y-88130000I-243750J0D01*
G01*
X200626250Y-88130000D01*
G75*
G02*
X200382500Y-87886250I0J243750D01*
G01*
X200382500Y-86973750D01*
G75*
G02*
X200626250Y-86730000I243750J0D01*
G01*
X201113750Y-86730000D01*
G75*
G02*
X201357500Y-86973750I0J-243750D01*
G01*
G37*
G04 #@! TD.AperFunction*
D15*
X185000000Y-89990000D03*
D16*
X185000000Y-92530000D03*
X185000000Y-95070000D03*
X185000000Y-97610000D03*
D15*
X197600000Y-93600000D03*
D16*
X197600000Y-96140000D03*
D17*
X195060000Y-93600000D03*
D16*
X195060000Y-96140000D03*
X192520000Y-93600000D03*
X192520000Y-96140000D03*
D15*
X123952000Y-112776000D03*
D16*
X123952000Y-110236000D03*
X123952000Y-107696000D03*
X123952000Y-105156000D03*
D15*
X199136000Y-135636000D03*
D16*
X196596000Y-135636000D03*
X194056000Y-135636000D03*
X191516000Y-135636000D03*
X188976000Y-135636000D03*
X186436000Y-135636000D03*
X183896000Y-135636000D03*
X181356000Y-135636000D03*
X178816000Y-135636000D03*
X176276000Y-135636000D03*
X173736000Y-135636000D03*
X171196000Y-135636000D03*
X168656000Y-135636000D03*
X175930000Y-94850000D03*
X175930000Y-97390000D03*
X173390000Y-94850000D03*
X173390000Y-97390000D03*
X170850000Y-94850000D03*
D15*
X170850000Y-97390000D03*
D16*
X162814000Y-135636000D03*
X160274000Y-135636000D03*
X157734000Y-135636000D03*
X155194000Y-135636000D03*
X152654000Y-135636000D03*
X150114000Y-135636000D03*
X147574000Y-135636000D03*
X145034000Y-135636000D03*
X142494000Y-135636000D03*
X139954000Y-135636000D03*
X137414000Y-135636000D03*
X134874000Y-135636000D03*
D15*
X132334000Y-135636000D03*
D18*
X130460000Y-67310000D03*
G04 #@! TA.AperFunction,ComponentPad*
G36*
G01*
X122960000Y-68310000D02*
X122960000Y-66310000D01*
G75*
G02*
X123710000Y-65560000I750000J0D01*
G01*
X125210000Y-65560000D01*
G75*
G02*
X125960000Y-66310000I0J-750000D01*
G01*
X125960000Y-68310000D01*
G75*
G02*
X125210000Y-69060000I-750000J0D01*
G01*
X123710000Y-69060000D01*
G75*
G02*
X122960000Y-68310000I0J750000D01*
G01*
G37*
G04 #@! TD.AperFunction*
G04 #@! TA.AperFunction,ComponentPad*
G36*
G01*
X125710000Y-72885000D02*
X125710000Y-71135000D01*
G75*
G02*
X126585000Y-70260000I875000J0D01*
G01*
X128335000Y-70260000D01*
G75*
G02*
X129210000Y-71135000I0J-875000D01*
G01*
X129210000Y-72885000D01*
G75*
G02*
X128335000Y-73760000I-875000J0D01*
G01*
X126585000Y-73760000D01*
G75*
G02*
X125710000Y-72885000I0J875000D01*
G01*
G37*
G04 #@! TD.AperFunction*
D15*
X140462000Y-64008000D03*
D16*
X140462000Y-66548000D03*
D15*
X122000000Y-97400000D03*
D16*
X122000000Y-94860000D03*
X122000000Y-92320000D03*
X122000000Y-89780000D03*
X122000000Y-87240000D03*
X122000000Y-84700000D03*
X122000000Y-82160000D03*
X122000000Y-79620000D03*
D15*
X208000000Y-60400000D03*
D16*
X208000000Y-62940000D03*
X208000000Y-65480000D03*
X208000000Y-68020000D03*
X208000000Y-70560000D03*
X208000000Y-73100000D03*
X208000000Y-75640000D03*
X208000000Y-78180000D03*
X208000000Y-80720000D03*
X208000000Y-83260000D03*
D15*
X199200000Y-82830000D03*
D16*
X199200000Y-80290000D03*
X199200000Y-77750000D03*
X208000000Y-98620000D03*
X208000000Y-96080000D03*
X208000000Y-93540000D03*
D15*
X208000000Y-91000000D03*
G04 #@! TA.AperFunction,SMDPad,CuDef*
G36*
G01*
X164977500Y-96673750D02*
X164977500Y-97586250D01*
G75*
G02*
X164733750Y-97830000I-243750J0D01*
G01*
X164246250Y-97830000D01*
G75*
G02*
X164002500Y-97586250I0J243750D01*
G01*
X164002500Y-96673750D01*
G75*
G02*
X164246250Y-96430000I243750J0D01*
G01*
X164733750Y-96430000D01*
G75*
G02*
X164977500Y-96673750I0J-243750D01*
G01*
G37*
G04 #@! TD.AperFunction*
G04 #@! TA.AperFunction,SMDPad,CuDef*
G36*
G01*
X166852500Y-96673750D02*
X166852500Y-97586250D01*
G75*
G02*
X166608750Y-97830000I-243750J0D01*
G01*
X166121250Y-97830000D01*
G75*
G02*
X165877500Y-97586250I0J243750D01*
G01*
X165877500Y-96673750D01*
G75*
G02*
X166121250Y-96430000I243750J0D01*
G01*
X166608750Y-96430000D01*
G75*
G02*
X166852500Y-96673750I0J-243750D01*
G01*
G37*
G04 #@! TD.AperFunction*
G04 #@! TA.AperFunction,SMDPad,CuDef*
G36*
G01*
X173866250Y-100487500D02*
X172953750Y-100487500D01*
G75*
G02*
X172710000Y-100243750I0J243750D01*
G01*
X172710000Y-99756250D01*
G75*
G02*
X172953750Y-99512500I243750J0D01*
G01*
X173866250Y-99512500D01*
G75*
G02*
X174110000Y-99756250I0J-243750D01*
G01*
X174110000Y-100243750D01*
G75*
G02*
X173866250Y-100487500I-243750J0D01*
G01*
G37*
G04 #@! TD.AperFunction*
G04 #@! TA.AperFunction,SMDPad,CuDef*
G36*
G01*
X173866250Y-102362500D02*
X172953750Y-102362500D01*
G75*
G02*
X172710000Y-102118750I0J243750D01*
G01*
X172710000Y-101631250D01*
G75*
G02*
X172953750Y-101387500I243750J0D01*
G01*
X173866250Y-101387500D01*
G75*
G02*
X174110000Y-101631250I0J-243750D01*
G01*
X174110000Y-102118750D01*
G75*
G02*
X173866250Y-102362500I-243750J0D01*
G01*
G37*
G04 #@! TD.AperFunction*
G04 #@! TA.AperFunction,SMDPad,CuDef*
G36*
G01*
X175223750Y-99497500D02*
X176136250Y-99497500D01*
G75*
G02*
X176380000Y-99741250I0J-243750D01*
G01*
X176380000Y-100228750D01*
G75*
G02*
X176136250Y-100472500I-243750J0D01*
G01*
X175223750Y-100472500D01*
G75*
G02*
X174980000Y-100228750I0J243750D01*
G01*
X174980000Y-99741250D01*
G75*
G02*
X175223750Y-99497500I243750J0D01*
G01*
G37*
G04 #@! TD.AperFunction*
G04 #@! TA.AperFunction,SMDPad,CuDef*
G36*
G01*
X175223750Y-101372500D02*
X176136250Y-101372500D01*
G75*
G02*
X176380000Y-101616250I0J-243750D01*
G01*
X176380000Y-102103750D01*
G75*
G02*
X176136250Y-102347500I-243750J0D01*
G01*
X175223750Y-102347500D01*
G75*
G02*
X174980000Y-102103750I0J243750D01*
G01*
X174980000Y-101616250D01*
G75*
G02*
X175223750Y-101372500I243750J0D01*
G01*
G37*
G04 #@! TD.AperFunction*
G04 #@! TA.AperFunction,SMDPad,CuDef*
G36*
G01*
X147945000Y-63563750D02*
X147945000Y-64476250D01*
G75*
G02*
X147701250Y-64720000I-243750J0D01*
G01*
X147213750Y-64720000D01*
G75*
G02*
X146970000Y-64476250I0J243750D01*
G01*
X146970000Y-63563750D01*
G75*
G02*
X147213750Y-63320000I243750J0D01*
G01*
X147701250Y-63320000D01*
G75*
G02*
X147945000Y-63563750I0J-243750D01*
G01*
G37*
G04 #@! TD.AperFunction*
G04 #@! TA.AperFunction,SMDPad,CuDef*
G36*
G01*
X146070000Y-63563750D02*
X146070000Y-64476250D01*
G75*
G02*
X145826250Y-64720000I-243750J0D01*
G01*
X145338750Y-64720000D01*
G75*
G02*
X145095000Y-64476250I0J243750D01*
G01*
X145095000Y-63563750D01*
G75*
G02*
X145338750Y-63320000I243750J0D01*
G01*
X145826250Y-63320000D01*
G75*
G02*
X146070000Y-63563750I0J-243750D01*
G01*
G37*
G04 #@! TD.AperFunction*
G04 #@! TA.AperFunction,SMDPad,CuDef*
G36*
G01*
X162562500Y-61393750D02*
X162562500Y-62306250D01*
G75*
G02*
X162318750Y-62550000I-243750J0D01*
G01*
X161831250Y-62550000D01*
G75*
G02*
X161587500Y-62306250I0J243750D01*
G01*
X161587500Y-61393750D01*
G75*
G02*
X161831250Y-61150000I243750J0D01*
G01*
X162318750Y-61150000D01*
G75*
G02*
X162562500Y-61393750I0J-243750D01*
G01*
G37*
G04 #@! TD.AperFunction*
G04 #@! TA.AperFunction,SMDPad,CuDef*
G36*
G01*
X164437500Y-61393750D02*
X164437500Y-62306250D01*
G75*
G02*
X164193750Y-62550000I-243750J0D01*
G01*
X163706250Y-62550000D01*
G75*
G02*
X163462500Y-62306250I0J243750D01*
G01*
X163462500Y-61393750D01*
G75*
G02*
X163706250Y-61150000I243750J0D01*
G01*
X164193750Y-61150000D01*
G75*
G02*
X164437500Y-61393750I0J-243750D01*
G01*
G37*
G04 #@! TD.AperFunction*
G04 #@! TA.AperFunction,SMDPad,CuDef*
G36*
G01*
X158812500Y-56356250D02*
X158812500Y-55443750D01*
G75*
G02*
X159056250Y-55200000I243750J0D01*
G01*
X159543750Y-55200000D01*
G75*
G02*
X159787500Y-55443750I0J-243750D01*
G01*
X159787500Y-56356250D01*
G75*
G02*
X159543750Y-56600000I-243750J0D01*
G01*
X159056250Y-56600000D01*
G75*
G02*
X158812500Y-56356250I0J243750D01*
G01*
G37*
G04 #@! TD.AperFunction*
G04 #@! TA.AperFunction,SMDPad,CuDef*
G36*
G01*
X160687500Y-56356250D02*
X160687500Y-55443750D01*
G75*
G02*
X160931250Y-55200000I243750J0D01*
G01*
X161418750Y-55200000D01*
G75*
G02*
X161662500Y-55443750I0J-243750D01*
G01*
X161662500Y-56356250D01*
G75*
G02*
X161418750Y-56600000I-243750J0D01*
G01*
X160931250Y-56600000D01*
G75*
G02*
X160687500Y-56356250I0J243750D01*
G01*
G37*
G04 #@! TD.AperFunction*
G04 #@! TA.AperFunction,SMDPad,CuDef*
G36*
G01*
X189387500Y-67343750D02*
X189387500Y-68256250D01*
G75*
G02*
X189143750Y-68500000I-243750J0D01*
G01*
X188656250Y-68500000D01*
G75*
G02*
X188412500Y-68256250I0J243750D01*
G01*
X188412500Y-67343750D01*
G75*
G02*
X188656250Y-67100000I243750J0D01*
G01*
X189143750Y-67100000D01*
G75*
G02*
X189387500Y-67343750I0J-243750D01*
G01*
G37*
G04 #@! TD.AperFunction*
G04 #@! TA.AperFunction,SMDPad,CuDef*
G36*
G01*
X187512500Y-67343750D02*
X187512500Y-68256250D01*
G75*
G02*
X187268750Y-68500000I-243750J0D01*
G01*
X186781250Y-68500000D01*
G75*
G02*
X186537500Y-68256250I0J243750D01*
G01*
X186537500Y-67343750D01*
G75*
G02*
X186781250Y-67100000I243750J0D01*
G01*
X187268750Y-67100000D01*
G75*
G02*
X187512500Y-67343750I0J-243750D01*
G01*
G37*
G04 #@! TD.AperFunction*
G04 #@! TA.AperFunction,SMDPad,CuDef*
G36*
G01*
X200726250Y-70392500D02*
X199813750Y-70392500D01*
G75*
G02*
X199570000Y-70148750I0J243750D01*
G01*
X199570000Y-69661250D01*
G75*
G02*
X199813750Y-69417500I243750J0D01*
G01*
X200726250Y-69417500D01*
G75*
G02*
X200970000Y-69661250I0J-243750D01*
G01*
X200970000Y-70148750D01*
G75*
G02*
X200726250Y-70392500I-243750J0D01*
G01*
G37*
G04 #@! TD.AperFunction*
G04 #@! TA.AperFunction,SMDPad,CuDef*
G36*
G01*
X200726250Y-68517500D02*
X199813750Y-68517500D01*
G75*
G02*
X199570000Y-68273750I0J243750D01*
G01*
X199570000Y-67786250D01*
G75*
G02*
X199813750Y-67542500I243750J0D01*
G01*
X200726250Y-67542500D01*
G75*
G02*
X200970000Y-67786250I0J-243750D01*
G01*
X200970000Y-68273750D01*
G75*
G02*
X200726250Y-68517500I-243750J0D01*
G01*
G37*
G04 #@! TD.AperFunction*
G04 #@! TA.AperFunction,SMDPad,CuDef*
G36*
G01*
X203962500Y-80193750D02*
X203962500Y-81106250D01*
G75*
G02*
X203718750Y-81350000I-243750J0D01*
G01*
X203231250Y-81350000D01*
G75*
G02*
X202987500Y-81106250I0J243750D01*
G01*
X202987500Y-80193750D01*
G75*
G02*
X203231250Y-79950000I243750J0D01*
G01*
X203718750Y-79950000D01*
G75*
G02*
X203962500Y-80193750I0J-243750D01*
G01*
G37*
G04 #@! TD.AperFunction*
G04 #@! TA.AperFunction,SMDPad,CuDef*
G36*
G01*
X205837500Y-80193750D02*
X205837500Y-81106250D01*
G75*
G02*
X205593750Y-81350000I-243750J0D01*
G01*
X205106250Y-81350000D01*
G75*
G02*
X204862500Y-81106250I0J243750D01*
G01*
X204862500Y-80193750D01*
G75*
G02*
X205106250Y-79950000I243750J0D01*
G01*
X205593750Y-79950000D01*
G75*
G02*
X205837500Y-80193750I0J-243750D01*
G01*
G37*
G04 #@! TD.AperFunction*
G04 #@! TA.AperFunction,SMDPad,CuDef*
G36*
G01*
X155935500Y-120447750D02*
X155935500Y-121360250D01*
G75*
G02*
X155691750Y-121604000I-243750J0D01*
G01*
X155204250Y-121604000D01*
G75*
G02*
X154960500Y-121360250I0J243750D01*
G01*
X154960500Y-120447750D01*
G75*
G02*
X155204250Y-120204000I243750J0D01*
G01*
X155691750Y-120204000D01*
G75*
G02*
X155935500Y-120447750I0J-243750D01*
G01*
G37*
G04 #@! TD.AperFunction*
G04 #@! TA.AperFunction,SMDPad,CuDef*
G36*
G01*
X157810500Y-120447750D02*
X157810500Y-121360250D01*
G75*
G02*
X157566750Y-121604000I-243750J0D01*
G01*
X157079250Y-121604000D01*
G75*
G02*
X156835500Y-121360250I0J243750D01*
G01*
X156835500Y-120447750D01*
G75*
G02*
X157079250Y-120204000I243750J0D01*
G01*
X157566750Y-120204000D01*
G75*
G02*
X157810500Y-120447750I0J-243750D01*
G01*
G37*
G04 #@! TD.AperFunction*
G04 #@! TA.AperFunction,SMDPad,CuDef*
G36*
G01*
X202172250Y-68854500D02*
X203084750Y-68854500D01*
G75*
G02*
X203328500Y-69098250I0J-243750D01*
G01*
X203328500Y-69585750D01*
G75*
G02*
X203084750Y-69829500I-243750J0D01*
G01*
X202172250Y-69829500D01*
G75*
G02*
X201928500Y-69585750I0J243750D01*
G01*
X201928500Y-69098250D01*
G75*
G02*
X202172250Y-68854500I243750J0D01*
G01*
G37*
G04 #@! TD.AperFunction*
G04 #@! TA.AperFunction,SMDPad,CuDef*
G36*
G01*
X202172250Y-70729500D02*
X203084750Y-70729500D01*
G75*
G02*
X203328500Y-70973250I0J-243750D01*
G01*
X203328500Y-71460750D01*
G75*
G02*
X203084750Y-71704500I-243750J0D01*
G01*
X202172250Y-71704500D01*
G75*
G02*
X201928500Y-71460750I0J243750D01*
G01*
X201928500Y-70973250D01*
G75*
G02*
X202172250Y-70729500I243750J0D01*
G01*
G37*
G04 #@! TD.AperFunction*
D19*
X139480000Y-95580000D03*
X139480000Y-91080000D03*
X145980000Y-95580000D03*
X145980000Y-91080000D03*
X150325000Y-64725000D03*
X154825000Y-64725000D03*
X150325000Y-71225000D03*
X154825000Y-71225000D03*
D20*
X168450000Y-111450000D03*
X168450000Y-111950000D03*
X168450000Y-112450000D03*
X168450000Y-112950000D03*
X168450000Y-113450000D03*
X168450000Y-113950000D03*
X168450000Y-114450000D03*
X168450000Y-114950000D03*
X168450000Y-115450000D03*
X168450000Y-115950000D03*
X168450000Y-116450000D03*
X168450000Y-116950000D03*
D21*
X170050000Y-118550000D03*
X170550000Y-118550000D03*
X171050000Y-118550000D03*
X171550000Y-118550000D03*
X172050000Y-118550000D03*
X172550000Y-118550000D03*
X173050000Y-118550000D03*
X173550000Y-118550000D03*
X174050000Y-118550000D03*
X174550000Y-118550000D03*
X175050000Y-118550000D03*
X175550000Y-118550000D03*
D20*
X177150000Y-116950000D03*
X177150000Y-116450000D03*
X177150000Y-115950000D03*
X177150000Y-115450000D03*
X177150000Y-114950000D03*
X177150000Y-114450000D03*
X177150000Y-113950000D03*
X177150000Y-113450000D03*
X177150000Y-112950000D03*
X177150000Y-112450000D03*
X177150000Y-111950000D03*
X177150000Y-111450000D03*
D21*
X175550000Y-109850000D03*
X175050000Y-109850000D03*
X174550000Y-109850000D03*
X174050000Y-109850000D03*
X173550000Y-109850000D03*
X173050000Y-109850000D03*
X172550000Y-109850000D03*
X172050000Y-109850000D03*
X171550000Y-109850000D03*
X171050000Y-109850000D03*
X170550000Y-109850000D03*
X170050000Y-109850000D03*
D22*
X146660000Y-56515000D03*
D23*
X140360000Y-56515000D03*
X140360000Y-58815000D03*
X140360000Y-54215000D03*
D24*
X147650000Y-108320000D03*
X147650000Y-104520000D03*
D12*
X125095000Y-53975000D03*
D25*
X156850000Y-102840000D03*
X154950000Y-102840000D03*
D26*
X155900000Y-97340000D03*
D27*
X193600000Y-75400000D03*
X164225000Y-70800000D03*
X158825000Y-69700000D03*
X168960000Y-77380000D03*
X142520000Y-101240000D03*
X152770000Y-98880000D03*
X158950000Y-99150000D03*
X183630000Y-111000000D03*
X168490000Y-104450000D03*
X160090000Y-114760000D03*
X184570000Y-123700000D03*
X169540000Y-103400000D03*
X164850000Y-104040000D03*
X152654000Y-118872000D03*
X161544000Y-131064000D03*
X151384000Y-131064000D03*
X194000000Y-82700000D03*
X184480000Y-109110000D03*
X188530000Y-109090000D03*
X186680000Y-121880000D03*
X159060000Y-112590000D03*
X161870000Y-109810000D03*
X184060000Y-104760000D03*
X182690000Y-104550000D03*
X182140000Y-98860000D03*
X182372000Y-120396000D03*
X183388000Y-120396000D03*
X181864000Y-105918000D03*
X186436000Y-103632000D03*
X195326000Y-123444000D03*
X175001347Y-105659347D03*
X171196000Y-124968000D03*
X170688000Y-130048000D03*
X180340000Y-130556000D03*
X187452000Y-130556000D03*
X193040000Y-130556000D03*
X174752000Y-104394000D03*
X169164000Y-124968000D03*
X170180000Y-131572000D03*
X180340000Y-131572000D03*
X187960000Y-131572000D03*
X193294000Y-131572000D03*
X195326000Y-131572000D03*
X173482000Y-104140000D03*
X171450000Y-103400000D03*
X167386000Y-99568000D03*
X144272000Y-88646000D03*
X170434000Y-104140000D03*
X164338000Y-109474000D03*
X158750000Y-106680000D03*
X153924000Y-107188000D03*
X151384000Y-107188000D03*
X170281461Y-105346156D03*
X164592000Y-110490000D03*
X160020000Y-107950000D03*
X155956000Y-109474000D03*
X181356000Y-120396000D03*
X181610000Y-106934000D03*
X184404000Y-128524000D03*
X180340000Y-129032000D03*
X188976000Y-112522000D03*
X184404000Y-127508000D03*
X180340000Y-127762000D03*
X187706000Y-113225000D03*
X184404000Y-126492000D03*
X180086000Y-126492000D03*
X190500000Y-121920000D03*
X184404000Y-125476000D03*
X179070000Y-125730000D03*
X160350000Y-87325000D03*
X163325000Y-59775000D03*
X164800000Y-81225000D03*
X174800000Y-79725000D03*
X170750000Y-81975000D03*
X176800000Y-79750000D03*
X164600000Y-78500000D03*
X170900000Y-78500000D03*
X164650000Y-80000000D03*
X172800000Y-79500000D03*
X172200000Y-83050000D03*
X178800000Y-79775000D03*
X172975000Y-84000000D03*
X180775000Y-79850000D03*
X159300000Y-63900000D03*
X189900000Y-61900000D03*
X190600000Y-63900000D03*
X190700000Y-65900000D03*
X161400000Y-65900000D03*
X161600000Y-67700000D03*
X163200000Y-69500000D03*
X190200000Y-71500000D03*
X163090000Y-115070000D03*
X162340000Y-97700000D03*
X173990000Y-124968000D03*
X175768000Y-104394000D03*
X158075000Y-59250000D03*
D28*
X193600000Y-75400000D02*
X191800000Y-75400000D01*
X188300000Y-71900000D02*
X183400000Y-71900000D01*
X191800000Y-75400000D02*
X188300000Y-71900000D01*
D29*
X135255000Y-55920000D02*
X136975000Y-54200000D01*
X136990000Y-54215000D02*
X140360000Y-54215000D01*
X136975000Y-54200000D02*
X136990000Y-54215000D01*
D28*
X208000000Y-98620000D02*
X205720000Y-98620000D01*
X205720000Y-98620000D02*
X205400000Y-98300000D01*
X205400000Y-98300000D02*
X205400000Y-90200000D01*
X208000000Y-87600000D02*
X208000000Y-83260000D01*
X205400000Y-90200000D02*
X208000000Y-87600000D01*
X164225000Y-70800000D02*
X159925000Y-70800000D01*
X159925000Y-70800000D02*
X158825000Y-69700000D01*
X168920000Y-75610000D02*
X168920000Y-77340000D01*
X168920000Y-77340000D02*
X168960000Y-77380000D01*
X142615000Y-104590000D02*
X142555000Y-104530000D01*
X142615000Y-108330000D02*
X142615000Y-104590000D01*
X142555000Y-103730000D02*
X142520000Y-103695000D01*
X142555000Y-104530000D02*
X142555000Y-103730000D01*
X142520000Y-103695000D02*
X142520000Y-101240000D01*
X152750000Y-100935000D02*
X152750000Y-98900000D01*
X152750000Y-98900000D02*
X152770000Y-98880000D01*
X159060000Y-100850000D02*
X159060000Y-99260000D01*
X159060000Y-99260000D02*
X158950000Y-99150000D01*
D30*
X170550000Y-108950000D02*
X170560000Y-108940000D01*
X170550000Y-109850000D02*
X170550000Y-108950000D01*
X170560000Y-108940000D02*
X170560000Y-106650000D01*
X169605000Y-105695000D02*
X168500000Y-105695000D01*
X170560000Y-106650000D02*
X169605000Y-105695000D01*
X163945000Y-116185000D02*
X161200000Y-116185000D01*
X164010000Y-116250000D02*
X163945000Y-116185000D01*
X168450000Y-114950000D02*
X165310000Y-114950000D01*
X165310000Y-114950000D02*
X164010000Y-116250000D01*
X180115000Y-111950000D02*
X181090000Y-110975000D01*
X177150000Y-111950000D02*
X180115000Y-111950000D01*
X181090000Y-110975000D02*
X183605000Y-110975000D01*
X183605000Y-110975000D02*
X183630000Y-111000000D01*
X168500000Y-105695000D02*
X168500000Y-104460000D01*
X168500000Y-104460000D02*
X168490000Y-104450000D01*
X161200000Y-116185000D02*
X161200000Y-115870000D01*
X161200000Y-115870000D02*
X160090000Y-114760000D01*
X175050000Y-118550000D02*
X175050000Y-121870000D01*
X176915000Y-123735000D02*
X178130000Y-123735000D01*
X175050000Y-121870000D02*
X176915000Y-123735000D01*
X178130000Y-123735000D02*
X184535000Y-123735000D01*
X184535000Y-123735000D02*
X184570000Y-123700000D01*
D28*
X205420000Y-80720000D02*
X205350000Y-80650000D01*
X208000000Y-80720000D02*
X205420000Y-80720000D01*
D30*
X169417500Y-103277500D02*
X169540000Y-103400000D01*
X169417500Y-101260000D02*
X169417500Y-103277500D01*
D28*
X203830000Y-87430000D02*
X208000000Y-83260000D01*
X202745000Y-87430000D02*
X203830000Y-87430000D01*
X164810000Y-105540000D02*
X164810000Y-104080000D01*
X164810000Y-104080000D02*
X164850000Y-104040000D01*
D31*
X150325000Y-69810787D02*
X150325000Y-71225000D01*
X150325000Y-68879000D02*
X150325000Y-69810787D01*
X148248000Y-66802000D02*
X150325000Y-68879000D01*
X147417000Y-66802000D02*
X148248000Y-66802000D01*
D30*
X151287000Y-120904000D02*
X152654000Y-119537000D01*
X152654000Y-119537000D02*
X152654000Y-118872000D01*
D28*
X141929000Y-105156000D02*
X142555000Y-104530000D01*
X123952000Y-105156000D02*
X141929000Y-105156000D01*
X161544000Y-131064000D02*
X151384000Y-131064000D01*
X188900000Y-67800000D02*
X192400000Y-67800000D01*
X192400000Y-67800000D02*
X194700000Y-70100000D01*
X194700000Y-70100000D02*
X194700000Y-78700000D01*
X194700000Y-78700000D02*
X192500000Y-80900000D01*
X161100000Y-71900000D02*
X168200000Y-71900000D01*
X161000000Y-72000000D02*
X161100000Y-71900000D01*
D29*
X147295000Y-55880000D02*
X146660000Y-56515000D01*
X153035000Y-55880000D02*
X147295000Y-55880000D01*
D28*
X194700000Y-78700000D02*
X194700000Y-82000000D01*
X194700000Y-82000000D02*
X194000000Y-82700000D01*
X153035000Y-55880000D02*
X153035000Y-57180000D01*
X157300000Y-61445000D02*
X157300000Y-69800000D01*
X159500000Y-72000000D02*
X161000000Y-72000000D01*
X157300000Y-69800000D02*
X159500000Y-72000000D01*
X157705000Y-61850000D02*
X153255000Y-57400000D01*
X162075000Y-61850000D02*
X157705000Y-61850000D01*
X153035000Y-57180000D02*
X153255000Y-57400000D01*
X153255000Y-57400000D02*
X157300000Y-61445000D01*
X153055000Y-55900000D02*
X153035000Y-55880000D01*
X159300000Y-55900000D02*
X153055000Y-55900000D01*
X166447500Y-75600000D02*
X164600000Y-75600000D01*
X166457500Y-75610000D02*
X166447500Y-75600000D01*
X167045000Y-75610000D02*
X166457500Y-75610000D01*
X169900000Y-80900000D02*
X164600000Y-75600000D01*
X164600000Y-75600000D02*
X161000000Y-72000000D01*
X170850000Y-97390000D02*
X170850000Y-94850000D01*
X174270000Y-84540000D02*
X174270000Y-80900000D01*
X170850000Y-87960000D02*
X174270000Y-84540000D01*
X192500000Y-80900000D02*
X174270000Y-80900000D01*
X174270000Y-80900000D02*
X169900000Y-80900000D01*
X170930000Y-89990000D02*
X170850000Y-89910000D01*
X185000000Y-89990000D02*
X170930000Y-89990000D01*
X170850000Y-94850000D02*
X170850000Y-89910000D01*
X170850000Y-89910000D02*
X170850000Y-87960000D01*
D30*
X170050000Y-109325000D02*
X170040000Y-109315000D01*
X170050000Y-109850000D02*
X170050000Y-109325000D01*
X170040000Y-109110000D02*
X168500000Y-107570000D01*
X170040000Y-109315000D02*
X170040000Y-109110000D01*
X163680000Y-118060000D02*
X161200000Y-118060000D01*
X163690000Y-118070000D02*
X163680000Y-118060000D01*
X164280000Y-117480000D02*
X163690000Y-118070000D01*
X164280000Y-116730000D02*
X164280000Y-117480000D01*
X168450000Y-115450000D02*
X165560000Y-115450000D01*
X165560000Y-115450000D02*
X164280000Y-116730000D01*
X177150000Y-111450000D02*
X179460000Y-111450000D01*
X179460000Y-111450000D02*
X179610000Y-111300000D01*
X179610000Y-111300000D02*
X179610000Y-109490000D01*
X180000000Y-109100000D02*
X181090000Y-109100000D01*
X179610000Y-109490000D02*
X180000000Y-109100000D01*
X181090000Y-109100000D02*
X184470000Y-109100000D01*
X184470000Y-109100000D02*
X184480000Y-109110000D01*
X188530000Y-109090000D02*
X188530000Y-106890000D01*
X188530000Y-106890000D02*
X187200000Y-105560000D01*
X186100000Y-89990000D02*
X185000000Y-89990000D01*
X187200000Y-91090000D02*
X186100000Y-89990000D01*
X187200000Y-105560000D02*
X187200000Y-91090000D01*
X176390000Y-121860000D02*
X178130000Y-121860000D01*
X175560000Y-121030000D02*
X176390000Y-121860000D01*
X175560000Y-119460000D02*
X175560000Y-121030000D01*
X175550000Y-118550000D02*
X175550000Y-119450000D01*
X175550000Y-119450000D02*
X175560000Y-119460000D01*
X163510000Y-111450000D02*
X168450000Y-111450000D01*
X178130000Y-121860000D02*
X186660000Y-121860000D01*
X186660000Y-121860000D02*
X186680000Y-121880000D01*
D28*
X170590000Y-97130000D02*
X170850000Y-97390000D01*
X166365000Y-97130000D02*
X170590000Y-97130000D01*
X167700000Y-107570000D02*
X167680000Y-107550000D01*
X168500000Y-107570000D02*
X167700000Y-107570000D01*
X167680000Y-107550000D02*
X166800000Y-107550000D01*
X166800000Y-107550000D02*
X166365000Y-107115000D01*
D30*
X163510000Y-111450000D02*
X165760000Y-111450000D01*
X165760000Y-110310000D02*
X168500000Y-107570000D01*
X165760000Y-111450000D02*
X165760000Y-110310000D01*
X166955000Y-101260000D02*
X166365000Y-101260000D01*
X167542500Y-101260000D02*
X166955000Y-101260000D01*
D28*
X166365000Y-107115000D02*
X166365000Y-101260000D01*
X166365000Y-101260000D02*
X166365000Y-97130000D01*
X166065000Y-107415000D02*
X166365000Y-107115000D01*
X164810000Y-107415000D02*
X166065000Y-107415000D01*
D29*
X140462000Y-62158000D02*
X140898000Y-61722000D01*
X140462000Y-64008000D02*
X140462000Y-62158000D01*
X145136000Y-61722000D02*
X146660000Y-60198000D01*
X140898000Y-61722000D02*
X145136000Y-61722000D01*
X146660000Y-59944000D02*
X146660000Y-56515000D01*
D31*
X146660000Y-59944000D02*
X146660000Y-60198000D01*
D28*
X146660000Y-63222500D02*
X147457500Y-64020000D01*
X146660000Y-60198000D02*
X146660000Y-63222500D01*
D30*
X161870000Y-109810000D02*
X163510000Y-111450000D01*
X159060000Y-116940000D02*
X159060000Y-112590000D01*
X159623763Y-117503763D02*
X159060000Y-116940000D01*
X161200000Y-118060000D02*
X160643763Y-117503763D01*
X160643763Y-117503763D02*
X159623763Y-117503763D01*
X152955650Y-104520000D02*
X147650000Y-104520000D01*
X168450000Y-113450000D02*
X161885650Y-113450000D01*
X161885650Y-113450000D02*
X152955650Y-104520000D01*
D28*
X144440000Y-104520000D02*
X144430000Y-104530000D01*
X147650000Y-104520000D02*
X144440000Y-104520000D01*
D30*
X168450000Y-113950000D02*
X161570000Y-113950000D01*
X161570000Y-113950000D02*
X155930000Y-108310000D01*
X155920000Y-108320000D02*
X147650000Y-108320000D01*
X155930000Y-108310000D02*
X155920000Y-108320000D01*
D28*
X144500000Y-108320000D02*
X144490000Y-108330000D01*
X147650000Y-108320000D02*
X144500000Y-108320000D01*
X156965000Y-102725000D02*
X156850000Y-102840000D01*
X159060000Y-102725000D02*
X156965000Y-102725000D01*
D30*
X156850000Y-102840000D02*
X156850000Y-106210000D01*
X163090000Y-112450000D02*
X168450000Y-112450000D01*
X156850000Y-106210000D02*
X163090000Y-112450000D01*
D28*
X154920000Y-102810000D02*
X154950000Y-102840000D01*
X152750000Y-102810000D02*
X154920000Y-102810000D01*
D30*
X168450000Y-112950000D02*
X162530000Y-112950000D01*
X154950000Y-105370000D02*
X154950000Y-102840000D01*
X162530000Y-112950000D02*
X154950000Y-105370000D01*
D29*
X135255000Y-58420000D02*
X138320000Y-58420000D01*
X138360000Y-58815000D02*
X140360000Y-58815000D01*
X138320000Y-58775000D02*
X138360000Y-58815000D01*
X138320000Y-58420000D02*
X138320000Y-58775000D01*
D31*
X145582500Y-66761500D02*
X145542000Y-66802000D01*
X145582500Y-64020000D02*
X145582500Y-66761500D01*
D30*
X155448000Y-120904000D02*
X153162000Y-120904000D01*
D28*
X200870000Y-85515000D02*
X200870000Y-87430000D01*
X201930000Y-84455000D02*
X200870000Y-85515000D01*
X201930000Y-80099963D02*
X201930000Y-84455000D01*
X202628500Y-71217000D02*
X202628500Y-79401463D01*
X202628500Y-79401463D02*
X201930000Y-80099963D01*
D30*
X177150000Y-112450000D02*
X184170000Y-112450000D01*
X184170000Y-112450000D02*
X185620000Y-111000000D01*
X185620000Y-111000000D02*
X185620000Y-106320000D01*
X185620000Y-106320000D02*
X184060000Y-104760000D01*
X175550000Y-109850000D02*
X175550000Y-108140000D01*
X175550000Y-108140000D02*
X175770000Y-107920000D01*
X175770000Y-107920000D02*
X182100000Y-107920000D01*
X182100000Y-107920000D02*
X182690000Y-107330000D01*
X182690000Y-107330000D02*
X182690000Y-104550000D01*
X182140000Y-98860000D02*
X182140000Y-92520000D01*
X182150000Y-92530000D02*
X185000000Y-92530000D01*
X182140000Y-92520000D02*
X182150000Y-92530000D01*
X191650000Y-113950000D02*
X177150000Y-113950000D01*
X196400000Y-109200000D02*
X191650000Y-113950000D01*
X196400000Y-94800000D02*
X196400000Y-109200000D01*
X197500000Y-94800000D02*
X196400000Y-94800000D01*
X197600000Y-93600000D02*
X197600000Y-94700000D01*
X197600000Y-94700000D02*
X197500000Y-94800000D01*
X197600000Y-96140000D02*
X197600000Y-109000000D01*
X192150000Y-114450000D02*
X177150000Y-114450000D01*
X197600000Y-109000000D02*
X192150000Y-114450000D01*
X183400000Y-57900000D02*
X189091000Y-57900000D01*
X189091000Y-57900000D02*
X196151500Y-64960500D01*
X195909999Y-95290001D02*
X195060000Y-96140000D01*
X195909999Y-94653591D02*
X195909999Y-95290001D01*
X196235001Y-94328589D02*
X195909999Y-94653591D01*
X196235001Y-93035999D02*
X196235001Y-94328589D01*
X196151500Y-92952498D02*
X196235001Y-93035999D01*
X196151500Y-64960500D02*
X196151500Y-92952498D01*
X183400000Y-59900000D02*
X189503500Y-59900000D01*
X189503500Y-59900000D02*
X195453000Y-65849500D01*
X195453000Y-65849500D02*
X195453000Y-90170000D01*
X195060000Y-90563000D02*
X195060000Y-93600000D01*
X195453000Y-90170000D02*
X195060000Y-90563000D01*
X182372000Y-120267590D02*
X182372000Y-120396000D01*
X177150000Y-116450000D02*
X178554410Y-116450000D01*
X178554410Y-116450000D02*
X182372000Y-120267590D01*
X183388000Y-120338998D02*
X183388000Y-120396000D01*
X177150000Y-115950000D02*
X178999002Y-115950000D01*
X178999002Y-115950000D02*
X183388000Y-120338998D01*
X177150000Y-115450000D02*
X179712000Y-115450000D01*
X179712000Y-115450000D02*
X185166000Y-120904000D01*
X185166000Y-120904000D02*
X187706000Y-120904000D01*
X188976000Y-122174000D02*
X188976000Y-135636000D01*
X187706000Y-120904000D02*
X188976000Y-122174000D01*
X172550000Y-118550000D02*
X172550000Y-129964000D01*
X171196000Y-131318000D02*
X171196000Y-135636000D01*
X172550000Y-129964000D02*
X171196000Y-131318000D01*
X173050000Y-118550000D02*
X173050000Y-131140000D01*
X173736000Y-131826000D02*
X173736000Y-135636000D01*
X173050000Y-131140000D02*
X173736000Y-131826000D01*
X174550000Y-107867180D02*
X175991180Y-106426000D01*
X174550000Y-109850000D02*
X174550000Y-107867180D01*
X175991180Y-106426000D02*
X176499180Y-105918000D01*
X176499180Y-105918000D02*
X181864000Y-105918000D01*
X174099990Y-109230010D02*
X174099990Y-107586010D01*
X174050000Y-109850000D02*
X174050000Y-109280000D01*
X174050000Y-109280000D02*
X174099990Y-109230010D01*
X174099990Y-107586010D02*
X176784000Y-104902000D01*
X176784000Y-104902000D02*
X181102000Y-104902000D01*
X181102000Y-104902000D02*
X182372000Y-103632000D01*
X182372000Y-103632000D02*
X186436000Y-103632000D01*
X195326000Y-123444000D02*
X195326000Y-124968000D01*
X191516000Y-128778000D02*
X191516000Y-135636000D01*
X195326000Y-124968000D02*
X191516000Y-128778000D01*
X173550000Y-109850000D02*
X173550000Y-107110694D01*
X173550000Y-107110694D02*
X175001347Y-105659347D01*
X171196000Y-124968000D02*
X171196000Y-129540000D01*
X171196000Y-129540000D02*
X170688000Y-130048000D01*
X180340000Y-130556000D02*
X187452000Y-130556000D01*
X193040000Y-130556000D02*
X195834000Y-130556000D01*
X196596000Y-131318000D02*
X196596000Y-135636000D01*
X195834000Y-130556000D02*
X196596000Y-131318000D01*
X173050000Y-109850000D02*
X173050000Y-106096000D01*
X173050000Y-106096000D02*
X174752000Y-104394000D01*
X169164000Y-124968000D02*
X169164000Y-130556000D01*
X169164000Y-130556000D02*
X170180000Y-131572000D01*
X180340000Y-131572000D02*
X187960000Y-131572000D01*
X193294000Y-131572000D02*
X195326000Y-131572000D01*
X172550000Y-109850000D02*
X172550000Y-105072000D01*
X172550000Y-105072000D02*
X173482000Y-104140000D01*
X171450000Y-102834315D02*
X171196000Y-102580315D01*
X171450000Y-103400000D02*
X171450000Y-102834315D01*
X171196000Y-102580315D02*
X171196000Y-100584000D01*
X171196000Y-100584000D02*
X170180000Y-99568000D01*
X170180000Y-99568000D02*
X167386000Y-99568000D01*
X144272000Y-88646000D02*
X134874000Y-88646000D01*
X134874000Y-88646000D02*
X121920000Y-101600000D01*
X121920000Y-101600000D02*
X121920000Y-106934000D01*
X122682000Y-107696000D02*
X123952000Y-107696000D01*
X121920000Y-106934000D02*
X122682000Y-107696000D01*
X171550000Y-109850000D02*
X171550000Y-105256000D01*
X171550000Y-105256000D02*
X170434000Y-104140000D01*
X163938001Y-109074001D02*
X163176001Y-109074001D01*
X164338000Y-109474000D02*
X163938001Y-109074001D01*
X163176001Y-109074001D02*
X160782000Y-106680000D01*
X160782000Y-106680000D02*
X158750000Y-106680000D01*
X153924000Y-107188000D02*
X151384000Y-107188000D01*
X171050000Y-109850000D02*
X171050000Y-106114695D01*
X171050000Y-106114695D02*
X170281461Y-105346156D01*
X164592000Y-110490000D02*
X163576000Y-110490000D01*
X163576000Y-110490000D02*
X161036000Y-107950000D01*
X161036000Y-107950000D02*
X160020000Y-107950000D01*
X155956000Y-109474000D02*
X153924000Y-111506000D01*
X153924000Y-111506000D02*
X129540000Y-111506000D01*
X128270000Y-110236000D02*
X123952000Y-110236000D01*
X129540000Y-111506000D02*
X128270000Y-110236000D01*
X176276000Y-125476000D02*
X176276000Y-135636000D01*
X174050000Y-118550000D02*
X174050000Y-123250000D01*
X174050000Y-123250000D02*
X176276000Y-125476000D01*
X174550000Y-118550000D02*
X174550000Y-122988000D01*
X178816000Y-127254000D02*
X178816000Y-135636000D01*
X174550000Y-122988000D02*
X178816000Y-127254000D01*
X177150000Y-116950000D02*
X178418000Y-116950000D01*
X178418000Y-116950000D02*
X181356000Y-119888000D01*
X181356000Y-119888000D02*
X181356000Y-120396000D01*
X176119590Y-106934000D02*
X181610000Y-106934000D01*
X175050000Y-109850000D02*
X175050000Y-108003590D01*
X175050000Y-108003590D02*
X176119590Y-106934000D01*
X184404000Y-128524000D02*
X180848000Y-128524000D01*
X180848000Y-128524000D02*
X180340000Y-129032000D01*
X188953999Y-112499999D02*
X188976000Y-112522000D01*
X187357999Y-112499999D02*
X188953999Y-112499999D01*
X177150000Y-112950000D02*
X186907998Y-112950000D01*
X186907998Y-112950000D02*
X187357999Y-112499999D01*
X184404000Y-127508000D02*
X180594000Y-127508000D01*
X180594000Y-127508000D02*
X180340000Y-127762000D01*
X177150000Y-113450000D02*
X187481000Y-113450000D01*
X187481000Y-113450000D02*
X187706000Y-113225000D01*
X184404000Y-126492000D02*
X180086000Y-126492000D01*
X177150000Y-114950000D02*
X179974000Y-114950000D01*
X179974000Y-114950000D02*
X181610000Y-116586000D01*
X181610000Y-116586000D02*
X184658000Y-119634000D01*
X184658000Y-119634000D02*
X185420000Y-120396000D01*
X185420000Y-120396000D02*
X188976000Y-120396000D01*
X188976000Y-120396000D02*
X190500000Y-121920000D01*
X184404000Y-125476000D02*
X179324000Y-125476000D01*
X179324000Y-125476000D02*
X179070000Y-125730000D01*
X150114000Y-129286000D02*
X150114000Y-135636000D01*
X172050000Y-121956410D02*
X169778371Y-124228039D01*
X172050000Y-118550000D02*
X172050000Y-121956410D01*
X169778371Y-124228039D02*
X164061961Y-124228039D01*
X164061961Y-124228039D02*
X159512000Y-128778000D01*
X159512000Y-128778000D02*
X150622000Y-128778000D01*
X150622000Y-128778000D02*
X150114000Y-129286000D01*
X171500010Y-119075990D02*
X171500010Y-121869990D01*
X171550000Y-118550000D02*
X171550000Y-119026000D01*
X171550000Y-119026000D02*
X171500010Y-119075990D01*
X170308410Y-122936000D02*
X169466381Y-123778029D01*
X171500010Y-121869990D02*
X170434000Y-122936000D01*
X170434000Y-122936000D02*
X170308410Y-122936000D01*
X169466381Y-123778029D02*
X163749971Y-123778029D01*
X163749971Y-123778029D02*
X159512000Y-128016000D01*
X159512000Y-128016000D02*
X148590000Y-128016000D01*
X147574000Y-129032000D02*
X147574000Y-135636000D01*
X148590000Y-128016000D02*
X147574000Y-129032000D01*
X171050000Y-118550000D02*
X171050000Y-121558000D01*
X169279981Y-123328019D02*
X163186801Y-123328019D01*
X171050000Y-121558000D02*
X169279981Y-123328019D01*
X163186801Y-123328019D02*
X159006820Y-127508000D01*
X159006820Y-127508000D02*
X145796000Y-127508000D01*
X145034000Y-128270000D02*
X145034000Y-135636000D01*
X145796000Y-127508000D02*
X145034000Y-128270000D01*
X168842400Y-122878010D02*
X163000400Y-122878010D01*
X170550000Y-118550000D02*
X170550000Y-121170410D01*
X170550000Y-121170410D02*
X168842400Y-122878010D01*
X163000400Y-122878010D02*
X158878410Y-127000000D01*
X158878410Y-127000000D02*
X144018000Y-127000000D01*
X142494000Y-128524000D02*
X142494000Y-135636000D01*
X144018000Y-127000000D02*
X142494000Y-128524000D01*
X170050000Y-118550000D02*
X170050000Y-121034000D01*
X170050000Y-121034000D02*
X168656000Y-122428000D01*
X168656000Y-122428000D02*
X162814000Y-122428000D01*
X162814000Y-122428000D02*
X159004000Y-126238000D01*
X159004000Y-126238000D02*
X142748000Y-126238000D01*
X139954000Y-129032000D02*
X139954000Y-135636000D01*
X142748000Y-126238000D02*
X139954000Y-129032000D01*
X168450000Y-116950000D02*
X166642410Y-116950000D01*
X165630030Y-117962380D02*
X165630030Y-118724380D01*
X166642410Y-116950000D02*
X165630030Y-117962380D01*
X165630030Y-118724380D02*
X158624410Y-125730000D01*
X158624410Y-125730000D02*
X139954000Y-125730000D01*
X137414000Y-128270000D02*
X137414000Y-135636000D01*
X139954000Y-125730000D02*
X137414000Y-128270000D01*
X167550000Y-116450000D02*
X167500010Y-116400010D01*
X168450000Y-116450000D02*
X167550000Y-116450000D01*
X165180020Y-117775980D02*
X165180020Y-118537980D01*
X167500010Y-116400010D02*
X166555990Y-116400010D01*
X166555990Y-116400010D02*
X165180020Y-117775980D01*
X165180020Y-118537980D02*
X159004000Y-124714000D01*
X159004000Y-124714000D02*
X139954000Y-124714000D01*
X134874000Y-129794000D02*
X134874000Y-135636000D01*
X139954000Y-124714000D02*
X134874000Y-129794000D01*
X157323000Y-119283000D02*
X157323000Y-120904000D01*
X168450000Y-115950000D02*
X165736000Y-115950000D01*
X164730010Y-116955990D02*
X164730010Y-118225990D01*
X164730010Y-118225990D02*
X163830000Y-119126000D01*
X163830000Y-119126000D02*
X157480000Y-119126000D01*
X165736000Y-115950000D02*
X164730010Y-116955990D01*
X157480000Y-119126000D02*
X157323000Y-119283000D01*
X157323000Y-120904000D02*
X157323000Y-122839000D01*
X157323000Y-122839000D02*
X139289000Y-122839000D01*
X132334000Y-129794000D02*
X132334000Y-135636000D01*
X139289000Y-122839000D02*
X132334000Y-129794000D01*
D28*
X123350000Y-97400000D02*
X124450000Y-96300000D01*
X122000000Y-97400000D02*
X123350000Y-97400000D01*
X124450000Y-96300000D02*
X124450000Y-93800000D01*
X124450000Y-93800000D02*
X126425000Y-91825000D01*
X126425000Y-91825000D02*
X126425000Y-89300000D01*
X126425000Y-89300000D02*
X128400000Y-87325000D01*
X128400000Y-87325000D02*
X160350000Y-87325000D01*
X168075000Y-59775000D02*
X168200000Y-59900000D01*
X163325000Y-59775000D02*
X168075000Y-59775000D01*
X122849999Y-86390001D02*
X123209999Y-86390001D01*
X122000000Y-87240000D02*
X122849999Y-86390001D01*
X125049989Y-84550011D02*
X125799989Y-84550011D01*
X123209999Y-86390001D02*
X125049989Y-84550011D01*
X125799989Y-84550011D02*
X126625000Y-83725000D01*
X126625000Y-83725000D02*
X162300000Y-83725000D01*
X162300000Y-83725000D02*
X164800000Y-81225000D01*
X174800000Y-79725000D02*
X174800000Y-73400000D01*
X122000000Y-89780000D02*
X124325000Y-87455000D01*
X124325000Y-87455000D02*
X124325000Y-87025000D01*
X124325000Y-87025000D02*
X126800000Y-84550000D01*
X126800000Y-84550000D02*
X163000000Y-84550000D01*
X163000000Y-84550000D02*
X165575000Y-81975000D01*
X165575000Y-81975000D02*
X170750000Y-81975000D01*
X176800000Y-79750000D02*
X176800000Y-73400000D01*
X122000000Y-82160000D02*
X160940000Y-82160000D01*
X160940000Y-82160000D02*
X164600000Y-78500000D01*
X170900000Y-73500000D02*
X170800000Y-73400000D01*
X170900000Y-78500000D02*
X170900000Y-73500000D01*
X122849999Y-83850001D02*
X125324999Y-83850001D01*
X122000000Y-84700000D02*
X122849999Y-83850001D01*
X125324999Y-83850001D02*
X126250000Y-82925000D01*
X126250000Y-82925000D02*
X161725000Y-82925000D01*
X161725000Y-82925000D02*
X164650000Y-80000000D01*
X172800000Y-79500000D02*
X172800000Y-73400000D01*
X122849999Y-91470001D02*
X122849999Y-91425001D01*
X122000000Y-92320000D02*
X122849999Y-91470001D01*
X122849999Y-91425001D02*
X124250000Y-90025000D01*
X124250000Y-90025000D02*
X124250000Y-88725000D01*
X124250000Y-88725000D02*
X127525000Y-85450000D01*
X127525000Y-85450000D02*
X163550000Y-85450000D01*
X163550000Y-85450000D02*
X165950000Y-83050000D01*
X165950000Y-83050000D02*
X172200000Y-83050000D01*
X178800000Y-79209315D02*
X178800000Y-73400000D01*
X178800000Y-79775000D02*
X178800000Y-79209315D01*
X122849999Y-94010001D02*
X122849999Y-93975001D01*
X122000000Y-94860000D02*
X122849999Y-94010001D01*
X122849999Y-93975001D02*
X125400000Y-91425000D01*
X125400000Y-91425000D02*
X125400000Y-88950000D01*
X125400000Y-88950000D02*
X127975000Y-86375000D01*
X127975000Y-86375000D02*
X163925000Y-86375000D01*
X163925000Y-86375000D02*
X166300000Y-84000000D01*
X166300000Y-84000000D02*
X172975000Y-84000000D01*
X180775000Y-73425000D02*
X180800000Y-73400000D01*
X180775000Y-79850000D02*
X180775000Y-73425000D01*
X159300000Y-63900000D02*
X168200000Y-63900000D01*
X189900000Y-61900000D02*
X183400000Y-61900000D01*
X190600000Y-63900000D02*
X183400000Y-63900000D01*
X190700000Y-65900000D02*
X183400000Y-65900000D01*
X200280000Y-68020000D02*
X200270000Y-68030000D01*
X208000000Y-68020000D02*
X205060000Y-68020000D01*
X202628500Y-68754500D02*
X202628500Y-68020000D01*
X202628500Y-69342000D02*
X202628500Y-68754500D01*
X205060000Y-68020000D02*
X202628500Y-68020000D01*
X202628500Y-68020000D02*
X200280000Y-68020000D01*
X161400000Y-65900000D02*
X168200000Y-65900000D01*
X168000000Y-67700000D02*
X168200000Y-67900000D01*
X161600000Y-67700000D02*
X168000000Y-67700000D01*
X163200000Y-69500000D02*
X165400000Y-69500000D01*
X165800000Y-69900000D02*
X168200000Y-69900000D01*
X165400000Y-69500000D02*
X165800000Y-69900000D01*
X189800001Y-71100001D02*
X189800001Y-71000001D01*
X190200000Y-71500000D02*
X189800001Y-71100001D01*
X188700000Y-69900000D02*
X183400000Y-69900000D01*
X189800001Y-71000001D02*
X188700000Y-69900000D01*
X206797919Y-78180000D02*
X208000000Y-78180000D01*
X205145000Y-78180000D02*
X206797919Y-78180000D01*
X203475000Y-79850000D02*
X205145000Y-78180000D01*
X203475000Y-80650000D02*
X203475000Y-79850000D01*
X200270000Y-69905000D02*
X200270000Y-74310000D01*
X200270000Y-74310000D02*
X201840000Y-75880000D01*
X201840000Y-75880000D02*
X201840000Y-79200000D01*
X200750000Y-80290000D02*
X199200000Y-80290000D01*
X201840000Y-79200000D02*
X200750000Y-80290000D01*
D30*
X168450000Y-114450000D02*
X163710000Y-114450000D01*
X163710000Y-114450000D02*
X163090000Y-115070000D01*
X163920000Y-97700000D02*
X164490000Y-97130000D01*
X162340000Y-97700000D02*
X163920000Y-97700000D01*
X172050000Y-108950000D02*
X172050000Y-109850000D01*
X172050000Y-103822500D02*
X172050000Y-108950000D01*
X173410000Y-102462500D02*
X172050000Y-103822500D01*
X173410000Y-101875000D02*
X173410000Y-102462500D01*
X173550000Y-118550000D02*
X173550000Y-124528000D01*
X173550000Y-124528000D02*
X173990000Y-124968000D01*
X175768000Y-101948000D02*
X175680000Y-101860000D01*
X175768000Y-104394000D02*
X175768000Y-101948000D01*
D28*
X164000000Y-61900000D02*
X163950000Y-61850000D01*
X168200000Y-61900000D02*
X164000000Y-61900000D01*
X163175000Y-57900000D02*
X161175000Y-55900000D01*
X168200000Y-57900000D02*
X163175000Y-57900000D01*
X158474999Y-58850001D02*
X159574999Y-58850001D01*
X158075000Y-59250000D02*
X158474999Y-58850001D01*
X159574999Y-57500001D02*
X161175000Y-55900000D01*
X159574999Y-58850001D02*
X159574999Y-57500001D01*
X183500000Y-67800000D02*
X183400000Y-67900000D01*
X187025000Y-67800000D02*
X183500000Y-67800000D01*
D30*
X175123763Y-99428763D02*
X175123763Y-98933763D01*
X175680000Y-99985000D02*
X175123763Y-99428763D01*
X174239999Y-95699999D02*
X173390000Y-94850000D01*
X174754999Y-96214999D02*
X174239999Y-95699999D01*
X174754999Y-98564999D02*
X174754999Y-96214999D01*
X175123763Y-98933763D02*
X174754999Y-98564999D01*
X173410000Y-97410000D02*
X173390000Y-97390000D01*
X173410000Y-100000000D02*
X173410000Y-97410000D01*
M02*
