G04 #@! TF.GenerationSoftware,KiCad,Pcbnew,(5.1.6)-1*
G04 #@! TF.CreationDate,2020-10-12T10:35:02+03:00*
G04 #@! TF.ProjectId,ws2813_plate,77733238-3133-45f7-906c-6174652e6b69,rev?*
G04 #@! TF.SameCoordinates,Original*
G04 #@! TF.FileFunction,Legend,Top*
G04 #@! TF.FilePolarity,Positive*
%FSLAX46Y46*%
G04 Gerber Fmt 4.6, Leading zero omitted, Abs format (unit mm)*
G04 Created by KiCad (PCBNEW (5.1.6)-1) date 2020-10-12 10:35:02*
%MOMM*%
%LPD*%
G01*
G04 APERTURE LIST*
%ADD10C,0.150000*%
%ADD11C,0.120000*%
G04 APERTURE END LIST*
D10*
X97226380Y-88351809D02*
X96226380Y-88351809D01*
X96226380Y-88113714D01*
X96274000Y-87970857D01*
X96369238Y-87875619D01*
X96464476Y-87828000D01*
X96654952Y-87780380D01*
X96797809Y-87780380D01*
X96988285Y-87828000D01*
X97083523Y-87875619D01*
X97178761Y-87970857D01*
X97226380Y-88113714D01*
X97226380Y-88351809D01*
X97226380Y-87351809D02*
X96226380Y-87351809D01*
X97226380Y-86780380D01*
X96226380Y-86780380D01*
X96940666Y-86351809D02*
X96940666Y-85875619D01*
X97226380Y-86447047D02*
X96226380Y-86113714D01*
X97226380Y-85780380D01*
X97321619Y-85685142D02*
X97321619Y-84923238D01*
X97226380Y-84256571D02*
X96226380Y-84256571D01*
X97178761Y-84256571D02*
X97226380Y-84351809D01*
X97226380Y-84542285D01*
X97178761Y-84637523D01*
X97131142Y-84685142D01*
X97035904Y-84732761D01*
X96750190Y-84732761D01*
X96654952Y-84685142D01*
X96607333Y-84637523D01*
X96559714Y-84542285D01*
X96559714Y-84351809D01*
X96607333Y-84256571D01*
X97178761Y-83399428D02*
X97226380Y-83494666D01*
X97226380Y-83685142D01*
X97178761Y-83780380D01*
X97083523Y-83828000D01*
X96702571Y-83828000D01*
X96607333Y-83780380D01*
X96559714Y-83685142D01*
X96559714Y-83494666D01*
X96607333Y-83399428D01*
X96702571Y-83351809D01*
X96797809Y-83351809D01*
X96893047Y-83828000D01*
X97178761Y-82970857D02*
X97226380Y-82875619D01*
X97226380Y-82685142D01*
X97178761Y-82589904D01*
X97083523Y-82542285D01*
X97035904Y-82542285D01*
X96940666Y-82589904D01*
X96893047Y-82685142D01*
X96893047Y-82828000D01*
X96845428Y-82923238D01*
X96750190Y-82970857D01*
X96702571Y-82970857D01*
X96607333Y-82923238D01*
X96559714Y-82828000D01*
X96559714Y-82685142D01*
X96607333Y-82589904D01*
X97226380Y-82113714D02*
X96559714Y-82113714D01*
X96226380Y-82113714D02*
X96274000Y-82161333D01*
X96321619Y-82113714D01*
X96274000Y-82066095D01*
X96226380Y-82113714D01*
X96321619Y-82113714D01*
X96559714Y-81208952D02*
X97369238Y-81208952D01*
X97464476Y-81256571D01*
X97512095Y-81304190D01*
X97559714Y-81399428D01*
X97559714Y-81542285D01*
X97512095Y-81637523D01*
X97178761Y-81208952D02*
X97226380Y-81304190D01*
X97226380Y-81494666D01*
X97178761Y-81589904D01*
X97131142Y-81637523D01*
X97035904Y-81685142D01*
X96750190Y-81685142D01*
X96654952Y-81637523D01*
X96607333Y-81589904D01*
X96559714Y-81494666D01*
X96559714Y-81304190D01*
X96607333Y-81208952D01*
X96559714Y-80732761D02*
X97226380Y-80732761D01*
X96654952Y-80732761D02*
X96607333Y-80685142D01*
X96559714Y-80589904D01*
X96559714Y-80447047D01*
X96607333Y-80351809D01*
X96702571Y-80304190D01*
X97226380Y-80304190D01*
X121356380Y-88097809D02*
X120356380Y-88097809D01*
X120356380Y-87859714D01*
X120404000Y-87716857D01*
X120499238Y-87621619D01*
X120594476Y-87574000D01*
X120784952Y-87526380D01*
X120927809Y-87526380D01*
X121118285Y-87574000D01*
X121213523Y-87621619D01*
X121308761Y-87716857D01*
X121356380Y-87859714D01*
X121356380Y-88097809D01*
X121356380Y-87097809D02*
X120356380Y-87097809D01*
X121356380Y-86526380D01*
X120356380Y-86526380D01*
X121070666Y-86097809D02*
X121070666Y-85621619D01*
X121356380Y-86193047D02*
X120356380Y-85859714D01*
X121356380Y-85526380D01*
X121451619Y-85431142D02*
X121451619Y-84669238D01*
X121356380Y-84002571D02*
X120356380Y-84002571D01*
X121308761Y-84002571D02*
X121356380Y-84097809D01*
X121356380Y-84288285D01*
X121308761Y-84383523D01*
X121261142Y-84431142D01*
X121165904Y-84478761D01*
X120880190Y-84478761D01*
X120784952Y-84431142D01*
X120737333Y-84383523D01*
X120689714Y-84288285D01*
X120689714Y-84097809D01*
X120737333Y-84002571D01*
X121308761Y-83145428D02*
X121356380Y-83240666D01*
X121356380Y-83431142D01*
X121308761Y-83526380D01*
X121213523Y-83574000D01*
X120832571Y-83574000D01*
X120737333Y-83526380D01*
X120689714Y-83431142D01*
X120689714Y-83240666D01*
X120737333Y-83145428D01*
X120832571Y-83097809D01*
X120927809Y-83097809D01*
X121023047Y-83574000D01*
X121308761Y-82716857D02*
X121356380Y-82621619D01*
X121356380Y-82431142D01*
X121308761Y-82335904D01*
X121213523Y-82288285D01*
X121165904Y-82288285D01*
X121070666Y-82335904D01*
X121023047Y-82431142D01*
X121023047Y-82574000D01*
X120975428Y-82669238D01*
X120880190Y-82716857D01*
X120832571Y-82716857D01*
X120737333Y-82669238D01*
X120689714Y-82574000D01*
X120689714Y-82431142D01*
X120737333Y-82335904D01*
X121356380Y-81859714D02*
X120689714Y-81859714D01*
X120356380Y-81859714D02*
X120404000Y-81907333D01*
X120451619Y-81859714D01*
X120404000Y-81812095D01*
X120356380Y-81859714D01*
X120451619Y-81859714D01*
X120689714Y-80954952D02*
X121499238Y-80954952D01*
X121594476Y-81002571D01*
X121642095Y-81050190D01*
X121689714Y-81145428D01*
X121689714Y-81288285D01*
X121642095Y-81383523D01*
X121308761Y-80954952D02*
X121356380Y-81050190D01*
X121356380Y-81240666D01*
X121308761Y-81335904D01*
X121261142Y-81383523D01*
X121165904Y-81431142D01*
X120880190Y-81431142D01*
X120784952Y-81383523D01*
X120737333Y-81335904D01*
X120689714Y-81240666D01*
X120689714Y-81050190D01*
X120737333Y-80954952D01*
X120689714Y-80478761D02*
X121356380Y-80478761D01*
X120784952Y-80478761D02*
X120737333Y-80431142D01*
X120689714Y-80335904D01*
X120689714Y-80193047D01*
X120737333Y-80097809D01*
X120832571Y-80050190D01*
X121356380Y-80050190D01*
X109418380Y-88097809D02*
X108418380Y-88097809D01*
X108418380Y-87859714D01*
X108466000Y-87716857D01*
X108561238Y-87621619D01*
X108656476Y-87574000D01*
X108846952Y-87526380D01*
X108989809Y-87526380D01*
X109180285Y-87574000D01*
X109275523Y-87621619D01*
X109370761Y-87716857D01*
X109418380Y-87859714D01*
X109418380Y-88097809D01*
X109418380Y-87097809D02*
X108418380Y-87097809D01*
X109418380Y-86526380D01*
X108418380Y-86526380D01*
X109132666Y-86097809D02*
X109132666Y-85621619D01*
X109418380Y-86193047D02*
X108418380Y-85859714D01*
X109418380Y-85526380D01*
X109513619Y-85431142D02*
X109513619Y-84669238D01*
X109418380Y-84002571D02*
X108418380Y-84002571D01*
X109370761Y-84002571D02*
X109418380Y-84097809D01*
X109418380Y-84288285D01*
X109370761Y-84383523D01*
X109323142Y-84431142D01*
X109227904Y-84478761D01*
X108942190Y-84478761D01*
X108846952Y-84431142D01*
X108799333Y-84383523D01*
X108751714Y-84288285D01*
X108751714Y-84097809D01*
X108799333Y-84002571D01*
X109370761Y-83145428D02*
X109418380Y-83240666D01*
X109418380Y-83431142D01*
X109370761Y-83526380D01*
X109275523Y-83574000D01*
X108894571Y-83574000D01*
X108799333Y-83526380D01*
X108751714Y-83431142D01*
X108751714Y-83240666D01*
X108799333Y-83145428D01*
X108894571Y-83097809D01*
X108989809Y-83097809D01*
X109085047Y-83574000D01*
X109370761Y-82716857D02*
X109418380Y-82621619D01*
X109418380Y-82431142D01*
X109370761Y-82335904D01*
X109275523Y-82288285D01*
X109227904Y-82288285D01*
X109132666Y-82335904D01*
X109085047Y-82431142D01*
X109085047Y-82574000D01*
X109037428Y-82669238D01*
X108942190Y-82716857D01*
X108894571Y-82716857D01*
X108799333Y-82669238D01*
X108751714Y-82574000D01*
X108751714Y-82431142D01*
X108799333Y-82335904D01*
X109418380Y-81859714D02*
X108751714Y-81859714D01*
X108418380Y-81859714D02*
X108466000Y-81907333D01*
X108513619Y-81859714D01*
X108466000Y-81812095D01*
X108418380Y-81859714D01*
X108513619Y-81859714D01*
X108751714Y-80954952D02*
X109561238Y-80954952D01*
X109656476Y-81002571D01*
X109704095Y-81050190D01*
X109751714Y-81145428D01*
X109751714Y-81288285D01*
X109704095Y-81383523D01*
X109370761Y-80954952D02*
X109418380Y-81050190D01*
X109418380Y-81240666D01*
X109370761Y-81335904D01*
X109323142Y-81383523D01*
X109227904Y-81431142D01*
X108942190Y-81431142D01*
X108846952Y-81383523D01*
X108799333Y-81335904D01*
X108751714Y-81240666D01*
X108751714Y-81050190D01*
X108799333Y-80954952D01*
X108751714Y-80478761D02*
X109418380Y-80478761D01*
X108846952Y-80478761D02*
X108799333Y-80431142D01*
X108751714Y-80335904D01*
X108751714Y-80193047D01*
X108799333Y-80097809D01*
X108894571Y-80050190D01*
X109418380Y-80050190D01*
D11*
X115840252Y-79808000D02*
X115317748Y-79808000D01*
X115840252Y-81228000D02*
X115317748Y-81228000D01*
X91438252Y-79808000D02*
X90915748Y-79808000D01*
X91438252Y-81228000D02*
X90915748Y-81228000D01*
X103376252Y-81228000D02*
X102853748Y-81228000D01*
X103376252Y-79808000D02*
X102853748Y-79808000D01*
X127778252Y-81228000D02*
X127255748Y-81228000D01*
X127778252Y-79808000D02*
X127255748Y-79808000D01*
X94836000Y-87332000D02*
X87536000Y-87332000D01*
X94836000Y-86182000D02*
X94836000Y-87332000D01*
X94836000Y-81832000D02*
X87536000Y-81832000D01*
X106774000Y-81832000D02*
X99474000Y-81832000D01*
X106774000Y-86182000D02*
X106774000Y-87332000D01*
X106774000Y-87332000D02*
X99474000Y-87332000D01*
X119220000Y-87332000D02*
X111920000Y-87332000D01*
X119220000Y-86182000D02*
X119220000Y-87332000D01*
X119220000Y-81832000D02*
X111920000Y-81832000D01*
X130904000Y-81832000D02*
X123604000Y-81832000D01*
X130904000Y-86182000D02*
X130904000Y-87332000D01*
X130904000Y-87332000D02*
X123604000Y-87332000D01*
X82296000Y-78172000D02*
X83626000Y-78172000D01*
X83626000Y-78172000D02*
X83626000Y-79502000D01*
X83626000Y-80712000D02*
X83626000Y-80832000D01*
X80966000Y-80712000D02*
X80966000Y-80832000D01*
X80966000Y-80832000D02*
X83626000Y-80832000D01*
X80966000Y-84388000D02*
X83626000Y-84388000D01*
X80966000Y-84268000D02*
X80966000Y-84388000D01*
X83626000Y-84268000D02*
X83626000Y-84388000D01*
X83626000Y-81728000D02*
X83626000Y-83058000D01*
X82296000Y-81728000D02*
X83626000Y-81728000D01*
X82296000Y-85284000D02*
X83626000Y-85284000D01*
X83626000Y-85284000D02*
X83626000Y-86614000D01*
X83626000Y-87824000D02*
X83626000Y-87944000D01*
X80966000Y-87824000D02*
X80966000Y-87944000D01*
X80966000Y-87944000D02*
X83626000Y-87944000D01*
X135322000Y-80832000D02*
X137982000Y-80832000D01*
X135322000Y-80712000D02*
X135322000Y-80832000D01*
X137982000Y-80712000D02*
X137982000Y-80832000D01*
X137982000Y-78172000D02*
X137982000Y-79502000D01*
X136652000Y-78172000D02*
X137982000Y-78172000D01*
X136652000Y-81728000D02*
X137982000Y-81728000D01*
X137982000Y-81728000D02*
X137982000Y-83058000D01*
X137982000Y-84268000D02*
X137982000Y-84388000D01*
X135322000Y-84268000D02*
X135322000Y-84388000D01*
X135322000Y-84388000D02*
X137982000Y-84388000D01*
X135322000Y-87944000D02*
X137982000Y-87944000D01*
X135322000Y-87824000D02*
X135322000Y-87944000D01*
X137982000Y-87824000D02*
X137982000Y-87944000D01*
X137982000Y-85284000D02*
X137982000Y-86614000D01*
X136652000Y-85284000D02*
X137982000Y-85284000D01*
D10*
X115412333Y-82525142D02*
X115364714Y-82572761D01*
X115221857Y-82620380D01*
X115126619Y-82620380D01*
X114983761Y-82572761D01*
X114888523Y-82477523D01*
X114840904Y-82382285D01*
X114793285Y-82191809D01*
X114793285Y-82048952D01*
X114840904Y-81858476D01*
X114888523Y-81763238D01*
X114983761Y-81668000D01*
X115126619Y-81620380D01*
X115221857Y-81620380D01*
X115364714Y-81668000D01*
X115412333Y-81715619D01*
X115745666Y-81620380D02*
X116364714Y-81620380D01*
X116031380Y-82001333D01*
X116174238Y-82001333D01*
X116269476Y-82048952D01*
X116317095Y-82096571D01*
X116364714Y-82191809D01*
X116364714Y-82429904D01*
X116317095Y-82525142D01*
X116269476Y-82572761D01*
X116174238Y-82620380D01*
X115888523Y-82620380D01*
X115793285Y-82572761D01*
X115745666Y-82525142D01*
X91010333Y-82525142D02*
X90962714Y-82572761D01*
X90819857Y-82620380D01*
X90724619Y-82620380D01*
X90581761Y-82572761D01*
X90486523Y-82477523D01*
X90438904Y-82382285D01*
X90391285Y-82191809D01*
X90391285Y-82048952D01*
X90438904Y-81858476D01*
X90486523Y-81763238D01*
X90581761Y-81668000D01*
X90724619Y-81620380D01*
X90819857Y-81620380D01*
X90962714Y-81668000D01*
X91010333Y-81715619D01*
X91962714Y-82620380D02*
X91391285Y-82620380D01*
X91677000Y-82620380D02*
X91677000Y-81620380D01*
X91581761Y-81763238D01*
X91486523Y-81858476D01*
X91391285Y-81906095D01*
X102948333Y-82525142D02*
X102900714Y-82572761D01*
X102757857Y-82620380D01*
X102662619Y-82620380D01*
X102519761Y-82572761D01*
X102424523Y-82477523D01*
X102376904Y-82382285D01*
X102329285Y-82191809D01*
X102329285Y-82048952D01*
X102376904Y-81858476D01*
X102424523Y-81763238D01*
X102519761Y-81668000D01*
X102662619Y-81620380D01*
X102757857Y-81620380D01*
X102900714Y-81668000D01*
X102948333Y-81715619D01*
X103329285Y-81715619D02*
X103376904Y-81668000D01*
X103472142Y-81620380D01*
X103710238Y-81620380D01*
X103805476Y-81668000D01*
X103853095Y-81715619D01*
X103900714Y-81810857D01*
X103900714Y-81906095D01*
X103853095Y-82048952D01*
X103281666Y-82620380D01*
X103900714Y-82620380D01*
X127350333Y-82525142D02*
X127302714Y-82572761D01*
X127159857Y-82620380D01*
X127064619Y-82620380D01*
X126921761Y-82572761D01*
X126826523Y-82477523D01*
X126778904Y-82382285D01*
X126731285Y-82191809D01*
X126731285Y-82048952D01*
X126778904Y-81858476D01*
X126826523Y-81763238D01*
X126921761Y-81668000D01*
X127064619Y-81620380D01*
X127159857Y-81620380D01*
X127302714Y-81668000D01*
X127350333Y-81715619D01*
X128207476Y-81953714D02*
X128207476Y-82620380D01*
X127969380Y-81572761D02*
X127731285Y-82287047D01*
X128350333Y-82287047D01*
X90447904Y-88534380D02*
X90447904Y-87534380D01*
X90686000Y-87534380D01*
X90828857Y-87582000D01*
X90924095Y-87677238D01*
X90971714Y-87772476D01*
X91019333Y-87962952D01*
X91019333Y-88105809D01*
X90971714Y-88296285D01*
X90924095Y-88391523D01*
X90828857Y-88486761D01*
X90686000Y-88534380D01*
X90447904Y-88534380D01*
X91971714Y-88534380D02*
X91400285Y-88534380D01*
X91686000Y-88534380D02*
X91686000Y-87534380D01*
X91590761Y-87677238D01*
X91495523Y-87772476D01*
X91400285Y-87820095D01*
X102385904Y-88534380D02*
X102385904Y-87534380D01*
X102624000Y-87534380D01*
X102766857Y-87582000D01*
X102862095Y-87677238D01*
X102909714Y-87772476D01*
X102957333Y-87962952D01*
X102957333Y-88105809D01*
X102909714Y-88296285D01*
X102862095Y-88391523D01*
X102766857Y-88486761D01*
X102624000Y-88534380D01*
X102385904Y-88534380D01*
X103338285Y-87629619D02*
X103385904Y-87582000D01*
X103481142Y-87534380D01*
X103719238Y-87534380D01*
X103814476Y-87582000D01*
X103862095Y-87629619D01*
X103909714Y-87724857D01*
X103909714Y-87820095D01*
X103862095Y-87962952D01*
X103290666Y-88534380D01*
X103909714Y-88534380D01*
X114831904Y-88534380D02*
X114831904Y-87534380D01*
X115070000Y-87534380D01*
X115212857Y-87582000D01*
X115308095Y-87677238D01*
X115355714Y-87772476D01*
X115403333Y-87962952D01*
X115403333Y-88105809D01*
X115355714Y-88296285D01*
X115308095Y-88391523D01*
X115212857Y-88486761D01*
X115070000Y-88534380D01*
X114831904Y-88534380D01*
X115736666Y-87534380D02*
X116355714Y-87534380D01*
X116022380Y-87915333D01*
X116165238Y-87915333D01*
X116260476Y-87962952D01*
X116308095Y-88010571D01*
X116355714Y-88105809D01*
X116355714Y-88343904D01*
X116308095Y-88439142D01*
X116260476Y-88486761D01*
X116165238Y-88534380D01*
X115879523Y-88534380D01*
X115784285Y-88486761D01*
X115736666Y-88439142D01*
X126515904Y-88534380D02*
X126515904Y-87534380D01*
X126754000Y-87534380D01*
X126896857Y-87582000D01*
X126992095Y-87677238D01*
X127039714Y-87772476D01*
X127087333Y-87962952D01*
X127087333Y-88105809D01*
X127039714Y-88296285D01*
X126992095Y-88391523D01*
X126896857Y-88486761D01*
X126754000Y-88534380D01*
X126515904Y-88534380D01*
X127944476Y-87867714D02*
X127944476Y-88534380D01*
X127706380Y-87486761D02*
X127468285Y-88201047D01*
X128087333Y-88201047D01*
X81962666Y-76184380D02*
X81962666Y-76898666D01*
X81915047Y-77041523D01*
X81819809Y-77136761D01*
X81676952Y-77184380D01*
X81581714Y-77184380D01*
X82962666Y-77184380D02*
X82391238Y-77184380D01*
X82676952Y-77184380D02*
X82676952Y-76184380D01*
X82581714Y-76327238D01*
X82486476Y-76422476D01*
X82391238Y-76470095D01*
X81962666Y-79740380D02*
X81962666Y-80454666D01*
X81915047Y-80597523D01*
X81819809Y-80692761D01*
X81676952Y-80740380D01*
X81581714Y-80740380D01*
X82391238Y-79835619D02*
X82438857Y-79788000D01*
X82534095Y-79740380D01*
X82772190Y-79740380D01*
X82867428Y-79788000D01*
X82915047Y-79835619D01*
X82962666Y-79930857D01*
X82962666Y-80026095D01*
X82915047Y-80168952D01*
X82343619Y-80740380D01*
X82962666Y-80740380D01*
X81962666Y-83296380D02*
X81962666Y-84010666D01*
X81915047Y-84153523D01*
X81819809Y-84248761D01*
X81676952Y-84296380D01*
X81581714Y-84296380D01*
X82343619Y-83296380D02*
X82962666Y-83296380D01*
X82629333Y-83677333D01*
X82772190Y-83677333D01*
X82867428Y-83724952D01*
X82915047Y-83772571D01*
X82962666Y-83867809D01*
X82962666Y-84105904D01*
X82915047Y-84201142D01*
X82867428Y-84248761D01*
X82772190Y-84296380D01*
X82486476Y-84296380D01*
X82391238Y-84248761D01*
X82343619Y-84201142D01*
X136318666Y-76184380D02*
X136318666Y-76898666D01*
X136271047Y-77041523D01*
X136175809Y-77136761D01*
X136032952Y-77184380D01*
X135937714Y-77184380D01*
X137223428Y-76517714D02*
X137223428Y-77184380D01*
X136985333Y-76136761D02*
X136747238Y-76851047D01*
X137366285Y-76851047D01*
X136318666Y-79740380D02*
X136318666Y-80454666D01*
X136271047Y-80597523D01*
X136175809Y-80692761D01*
X136032952Y-80740380D01*
X135937714Y-80740380D01*
X137271047Y-79740380D02*
X136794857Y-79740380D01*
X136747238Y-80216571D01*
X136794857Y-80168952D01*
X136890095Y-80121333D01*
X137128190Y-80121333D01*
X137223428Y-80168952D01*
X137271047Y-80216571D01*
X137318666Y-80311809D01*
X137318666Y-80549904D01*
X137271047Y-80645142D01*
X137223428Y-80692761D01*
X137128190Y-80740380D01*
X136890095Y-80740380D01*
X136794857Y-80692761D01*
X136747238Y-80645142D01*
X136318666Y-83296380D02*
X136318666Y-84010666D01*
X136271047Y-84153523D01*
X136175809Y-84248761D01*
X136032952Y-84296380D01*
X135937714Y-84296380D01*
X137223428Y-83296380D02*
X137032952Y-83296380D01*
X136937714Y-83344000D01*
X136890095Y-83391619D01*
X136794857Y-83534476D01*
X136747238Y-83724952D01*
X136747238Y-84105904D01*
X136794857Y-84201142D01*
X136842476Y-84248761D01*
X136937714Y-84296380D01*
X137128190Y-84296380D01*
X137223428Y-84248761D01*
X137271047Y-84201142D01*
X137318666Y-84105904D01*
X137318666Y-83867809D01*
X137271047Y-83772571D01*
X137223428Y-83724952D01*
X137128190Y-83677333D01*
X136937714Y-83677333D01*
X136842476Y-83724952D01*
X136794857Y-83772571D01*
X136747238Y-83867809D01*
M02*
