G04 #@! TF.GenerationSoftware,KiCad,Pcbnew,(5.1.6)-1*
G04 #@! TF.CreationDate,2020-10-12T10:35:01+03:00*
G04 #@! TF.ProjectId,ws2813_plate,77733238-3133-45f7-906c-6174652e6b69,rev?*
G04 #@! TF.SameCoordinates,Original*
G04 #@! TF.FileFunction,Copper,L1,Top*
G04 #@! TF.FilePolarity,Positive*
%FSLAX46Y46*%
G04 Gerber Fmt 4.6, Leading zero omitted, Abs format (unit mm)*
G04 Created by KiCad (PCBNEW (5.1.6)-1) date 2020-10-12 10:35:01*
%MOMM*%
%LPD*%
G01*
G04 APERTURE LIST*
G04 #@! TA.AperFunction,SMDPad,CuDef*
%ADD10R,1.500000X1.000000*%
G04 #@! TD*
G04 #@! TA.AperFunction,ComponentPad*
%ADD11R,2.000000X2.000000*%
G04 #@! TD*
G04 #@! TA.AperFunction,ComponentPad*
%ADD12R,1.700000X1.700000*%
G04 #@! TD*
G04 #@! TA.AperFunction,ViaPad*
%ADD13C,1.000000*%
G04 #@! TD*
G04 #@! TA.AperFunction,ViaPad*
%ADD14C,0.800000*%
G04 #@! TD*
G04 #@! TA.AperFunction,Conductor*
%ADD15C,0.500000*%
G04 #@! TD*
G04 APERTURE END LIST*
G04 #@! TA.AperFunction,SMDPad,CuDef*
G36*
G01*
X117179000Y-80067999D02*
X117179000Y-80968001D01*
G75*
G02*
X116929001Y-81218000I-249999J0D01*
G01*
X116278999Y-81218000D01*
G75*
G02*
X116029000Y-80968001I0J249999D01*
G01*
X116029000Y-80067999D01*
G75*
G02*
X116278999Y-79818000I249999J0D01*
G01*
X116929001Y-79818000D01*
G75*
G02*
X117179000Y-80067999I0J-249999D01*
G01*
G37*
G04 #@! TD.AperFunction*
G04 #@! TA.AperFunction,SMDPad,CuDef*
G36*
G01*
X115129000Y-80067999D02*
X115129000Y-80968001D01*
G75*
G02*
X114879001Y-81218000I-249999J0D01*
G01*
X114228999Y-81218000D01*
G75*
G02*
X113979000Y-80968001I0J249999D01*
G01*
X113979000Y-80067999D01*
G75*
G02*
X114228999Y-79818000I249999J0D01*
G01*
X114879001Y-79818000D01*
G75*
G02*
X115129000Y-80067999I0J-249999D01*
G01*
G37*
G04 #@! TD.AperFunction*
G04 #@! TA.AperFunction,SMDPad,CuDef*
G36*
G01*
X92777000Y-80067999D02*
X92777000Y-80968001D01*
G75*
G02*
X92527001Y-81218000I-249999J0D01*
G01*
X91876999Y-81218000D01*
G75*
G02*
X91627000Y-80968001I0J249999D01*
G01*
X91627000Y-80067999D01*
G75*
G02*
X91876999Y-79818000I249999J0D01*
G01*
X92527001Y-79818000D01*
G75*
G02*
X92777000Y-80067999I0J-249999D01*
G01*
G37*
G04 #@! TD.AperFunction*
G04 #@! TA.AperFunction,SMDPad,CuDef*
G36*
G01*
X90727000Y-80067999D02*
X90727000Y-80968001D01*
G75*
G02*
X90477001Y-81218000I-249999J0D01*
G01*
X89826999Y-81218000D01*
G75*
G02*
X89577000Y-80968001I0J249999D01*
G01*
X89577000Y-80067999D01*
G75*
G02*
X89826999Y-79818000I249999J0D01*
G01*
X90477001Y-79818000D01*
G75*
G02*
X90727000Y-80067999I0J-249999D01*
G01*
G37*
G04 #@! TD.AperFunction*
G04 #@! TA.AperFunction,SMDPad,CuDef*
G36*
G01*
X102665000Y-80067999D02*
X102665000Y-80968001D01*
G75*
G02*
X102415001Y-81218000I-249999J0D01*
G01*
X101764999Y-81218000D01*
G75*
G02*
X101515000Y-80968001I0J249999D01*
G01*
X101515000Y-80067999D01*
G75*
G02*
X101764999Y-79818000I249999J0D01*
G01*
X102415001Y-79818000D01*
G75*
G02*
X102665000Y-80067999I0J-249999D01*
G01*
G37*
G04 #@! TD.AperFunction*
G04 #@! TA.AperFunction,SMDPad,CuDef*
G36*
G01*
X104715000Y-80067999D02*
X104715000Y-80968001D01*
G75*
G02*
X104465001Y-81218000I-249999J0D01*
G01*
X103814999Y-81218000D01*
G75*
G02*
X103565000Y-80968001I0J249999D01*
G01*
X103565000Y-80067999D01*
G75*
G02*
X103814999Y-79818000I249999J0D01*
G01*
X104465001Y-79818000D01*
G75*
G02*
X104715000Y-80067999I0J-249999D01*
G01*
G37*
G04 #@! TD.AperFunction*
G04 #@! TA.AperFunction,SMDPad,CuDef*
G36*
G01*
X127067000Y-80067999D02*
X127067000Y-80968001D01*
G75*
G02*
X126817001Y-81218000I-249999J0D01*
G01*
X126166999Y-81218000D01*
G75*
G02*
X125917000Y-80968001I0J249999D01*
G01*
X125917000Y-80067999D01*
G75*
G02*
X126166999Y-79818000I249999J0D01*
G01*
X126817001Y-79818000D01*
G75*
G02*
X127067000Y-80067999I0J-249999D01*
G01*
G37*
G04 #@! TD.AperFunction*
G04 #@! TA.AperFunction,SMDPad,CuDef*
G36*
G01*
X129117000Y-80067999D02*
X129117000Y-80968001D01*
G75*
G02*
X128867001Y-81218000I-249999J0D01*
G01*
X128216999Y-81218000D01*
G75*
G02*
X127967000Y-80968001I0J249999D01*
G01*
X127967000Y-80067999D01*
G75*
G02*
X128216999Y-79818000I249999J0D01*
G01*
X128867001Y-79818000D01*
G75*
G02*
X129117000Y-80067999I0J-249999D01*
G01*
G37*
G04 #@! TD.AperFunction*
D10*
X88736000Y-82982000D03*
X88736000Y-84582000D03*
X88736000Y-86182000D03*
X93636000Y-82982000D03*
X93636000Y-84582000D03*
X93636000Y-86182000D03*
X105574000Y-86182000D03*
X105574000Y-84582000D03*
X105574000Y-82982000D03*
X100674000Y-86182000D03*
X100674000Y-84582000D03*
X100674000Y-82982000D03*
X113120000Y-82982000D03*
X113120000Y-84582000D03*
X113120000Y-86182000D03*
X118020000Y-82982000D03*
X118020000Y-84582000D03*
X118020000Y-86182000D03*
X129704000Y-86182000D03*
X129704000Y-84582000D03*
X129704000Y-82982000D03*
X124804000Y-86182000D03*
X124804000Y-84582000D03*
X124804000Y-82982000D03*
D11*
X82296000Y-79502000D03*
D12*
X82296000Y-83058000D03*
D11*
X82296000Y-86614000D03*
X136652000Y-79502000D03*
D12*
X136652000Y-83058000D03*
D11*
X136652000Y-86614000D03*
D13*
X85852000Y-80518000D03*
X98044000Y-80518000D03*
X110490000Y-80518000D03*
X122682000Y-80518000D03*
D14*
X95250000Y-83058000D03*
X98552000Y-86106000D03*
X107442000Y-83058000D03*
X111506000Y-86106000D03*
X119634000Y-83058000D03*
X123190000Y-86106000D03*
X131572000Y-83058000D03*
D15*
X92202000Y-80518000D02*
X96012000Y-80518000D01*
X96012000Y-80518000D02*
X96520000Y-81026000D01*
X96520000Y-81026000D02*
X96520000Y-84074000D01*
X96012000Y-84582000D02*
X93636000Y-84582000D01*
X96520000Y-84074000D02*
X96012000Y-84582000D01*
X84328000Y-79502000D02*
X82296000Y-79502000D01*
X91948000Y-78994000D02*
X84836000Y-78994000D01*
X84836000Y-78994000D02*
X84328000Y-79502000D01*
X92202000Y-80518000D02*
X92202000Y-79248000D01*
X92202000Y-79248000D02*
X91948000Y-78994000D01*
X91948000Y-78994000D02*
X103886000Y-78994000D01*
X104140000Y-79248000D02*
X104140000Y-80518000D01*
X103886000Y-78994000D02*
X104140000Y-79248000D01*
X104140000Y-80518000D02*
X108204000Y-80518000D01*
X108204000Y-80518000D02*
X108712000Y-81026000D01*
X108712000Y-81026000D02*
X108712000Y-84074000D01*
X108204000Y-84582000D02*
X105574000Y-84582000D01*
X108712000Y-84074000D02*
X108204000Y-84582000D01*
X103886000Y-78994000D02*
X116332000Y-78994000D01*
X116604000Y-79266000D02*
X116604000Y-80518000D01*
X116332000Y-78994000D02*
X116604000Y-79266000D01*
X116604000Y-80518000D02*
X119126000Y-80518000D01*
X119126000Y-80518000D02*
X120904000Y-82296000D01*
X120904000Y-82296000D02*
X120904000Y-84074000D01*
X120396000Y-84582000D02*
X118020000Y-84582000D01*
X120904000Y-84074000D02*
X120396000Y-84582000D01*
X128542000Y-80518000D02*
X131572000Y-80518000D01*
X131572000Y-80518000D02*
X132588000Y-81534000D01*
X132588000Y-81534000D02*
X132588000Y-84074000D01*
X132080000Y-84582000D02*
X129704000Y-84582000D01*
X132588000Y-84074000D02*
X132080000Y-84582000D01*
X116332000Y-78994000D02*
X128270000Y-78994000D01*
X128542000Y-79266000D02*
X128542000Y-80518000D01*
X128270000Y-78994000D02*
X128542000Y-79266000D01*
X136652000Y-79502000D02*
X130302000Y-79502000D01*
X129794000Y-78994000D02*
X128270000Y-78994000D01*
X130302000Y-79502000D02*
X129794000Y-78994000D01*
X90152000Y-80518000D02*
X87376000Y-80518000D01*
X87376000Y-80518000D02*
X86868000Y-81026000D01*
X86868000Y-81026000D02*
X86868000Y-84328000D01*
X87122000Y-84582000D02*
X88736000Y-84582000D01*
X86868000Y-84328000D02*
X87122000Y-84582000D01*
X87376000Y-80518000D02*
X85852000Y-80518000D01*
X102090000Y-80518000D02*
X99314000Y-80518000D01*
X99314000Y-80518000D02*
X99060000Y-80772000D01*
X99060000Y-80772000D02*
X99060000Y-84074000D01*
X99568000Y-84582000D02*
X100674000Y-84582000D01*
X99060000Y-84074000D02*
X99568000Y-84582000D01*
X99314000Y-80518000D02*
X98044000Y-80518000D01*
X114554000Y-80518000D02*
X112014000Y-80518000D01*
X112014000Y-80518000D02*
X111506000Y-81026000D01*
X111506000Y-81026000D02*
X111506000Y-84074000D01*
X112014000Y-84582000D02*
X113120000Y-84582000D01*
X111506000Y-84074000D02*
X112014000Y-84582000D01*
X112014000Y-80518000D02*
X110490000Y-80518000D01*
X126492000Y-80518000D02*
X123952000Y-80518000D01*
X123952000Y-80518000D02*
X123190000Y-81280000D01*
X123190000Y-81280000D02*
X123190000Y-84074000D01*
X123698000Y-84582000D02*
X124804000Y-84582000D01*
X123190000Y-84074000D02*
X123698000Y-84582000D01*
X123952000Y-80518000D02*
X122682000Y-80518000D01*
X88736000Y-86182000D02*
X90348000Y-86182000D01*
X90348000Y-86182000D02*
X90678000Y-85852000D01*
X90678000Y-85852000D02*
X90678000Y-83312000D01*
X90348000Y-82982000D02*
X88736000Y-82982000D01*
X90678000Y-83312000D02*
X90348000Y-82982000D01*
X88736000Y-86182000D02*
X86944000Y-86182000D01*
X86944000Y-86182000D02*
X84582000Y-83820000D01*
X84582000Y-83820000D02*
X84582000Y-83312000D01*
X84328000Y-83058000D02*
X82296000Y-83058000D01*
X84582000Y-83312000D02*
X84328000Y-83058000D01*
X93636000Y-82982000D02*
X95174000Y-82982000D01*
X95174000Y-82982000D02*
X95250000Y-83058000D01*
X100598000Y-86106000D02*
X100674000Y-86182000D01*
X98552000Y-86106000D02*
X100598000Y-86106000D01*
X100674000Y-86182000D02*
X102032000Y-86182000D01*
X102032000Y-86182000D02*
X102616000Y-85598000D01*
X102616000Y-85598000D02*
X102616000Y-83566000D01*
X102032000Y-82982000D02*
X100674000Y-82982000D01*
X102616000Y-83566000D02*
X102032000Y-82982000D01*
X105574000Y-82982000D02*
X107366000Y-82982000D01*
X107366000Y-82982000D02*
X107442000Y-83058000D01*
X113044000Y-86106000D02*
X113120000Y-86182000D01*
X111506000Y-86106000D02*
X113044000Y-86106000D01*
X113120000Y-86182000D02*
X114986000Y-86182000D01*
X114986000Y-86182000D02*
X115316000Y-85852000D01*
X115316000Y-85852000D02*
X115316000Y-84074000D01*
X114224000Y-82982000D02*
X113120000Y-82982000D01*
X115316000Y-84074000D02*
X114224000Y-82982000D01*
X118020000Y-82982000D02*
X119558000Y-82982000D01*
X119558000Y-82982000D02*
X119634000Y-83058000D01*
X124728000Y-86106000D02*
X124804000Y-86182000D01*
X123190000Y-86106000D02*
X124728000Y-86106000D01*
X124804000Y-82982000D02*
X126416000Y-82982000D01*
X126416000Y-82982000D02*
X126746000Y-83312000D01*
X126746000Y-83312000D02*
X126746000Y-85598000D01*
X126162000Y-86182000D02*
X124804000Y-86182000D01*
X126746000Y-85598000D02*
X126162000Y-86182000D01*
X129780000Y-83058000D02*
X129704000Y-82982000D01*
X131572000Y-83058000D02*
X129780000Y-83058000D01*
M02*
