G04 #@! TF.GenerationSoftware,KiCad,Pcbnew,(5.1.6)-1*
G04 #@! TF.CreationDate,2020-10-12T10:35:02+03:00*
G04 #@! TF.ProjectId,ws2813_plate,77733238-3133-45f7-906c-6174652e6b69,rev?*
G04 #@! TF.SameCoordinates,Original*
G04 #@! TF.FileFunction,Soldermask,Top*
G04 #@! TF.FilePolarity,Negative*
%FSLAX46Y46*%
G04 Gerber Fmt 4.6, Leading zero omitted, Abs format (unit mm)*
G04 Created by KiCad (PCBNEW (5.1.6)-1) date 2020-10-12 10:35:02*
%MOMM*%
%LPD*%
G01*
G04 APERTURE LIST*
%ADD10C,0.100000*%
G04 APERTURE END LIST*
D10*
G36*
X137703000Y-87665000D02*
G01*
X135601000Y-87665000D01*
X135601000Y-85563000D01*
X137703000Y-85563000D01*
X137703000Y-87665000D01*
G37*
G36*
X83347000Y-87665000D02*
G01*
X81245000Y-87665000D01*
X81245000Y-85563000D01*
X83347000Y-85563000D01*
X83347000Y-87665000D01*
G37*
G36*
X130505000Y-86733000D02*
G01*
X128903000Y-86733000D01*
X128903000Y-85631000D01*
X130505000Y-85631000D01*
X130505000Y-86733000D01*
G37*
G36*
X125605000Y-86733000D02*
G01*
X124003000Y-86733000D01*
X124003000Y-85631000D01*
X125605000Y-85631000D01*
X125605000Y-86733000D01*
G37*
G36*
X113921000Y-86733000D02*
G01*
X112319000Y-86733000D01*
X112319000Y-85631000D01*
X113921000Y-85631000D01*
X113921000Y-86733000D01*
G37*
G36*
X101475000Y-86733000D02*
G01*
X99873000Y-86733000D01*
X99873000Y-85631000D01*
X101475000Y-85631000D01*
X101475000Y-86733000D01*
G37*
G36*
X106375000Y-86733000D02*
G01*
X104773000Y-86733000D01*
X104773000Y-85631000D01*
X106375000Y-85631000D01*
X106375000Y-86733000D01*
G37*
G36*
X94437000Y-86733000D02*
G01*
X92835000Y-86733000D01*
X92835000Y-85631000D01*
X94437000Y-85631000D01*
X94437000Y-86733000D01*
G37*
G36*
X89537000Y-86733000D02*
G01*
X87935000Y-86733000D01*
X87935000Y-85631000D01*
X89537000Y-85631000D01*
X89537000Y-86733000D01*
G37*
G36*
X118821000Y-86733000D02*
G01*
X117219000Y-86733000D01*
X117219000Y-85631000D01*
X118821000Y-85631000D01*
X118821000Y-86733000D01*
G37*
G36*
X130505000Y-85133000D02*
G01*
X128903000Y-85133000D01*
X128903000Y-84031000D01*
X130505000Y-84031000D01*
X130505000Y-85133000D01*
G37*
G36*
X89537000Y-85133000D02*
G01*
X87935000Y-85133000D01*
X87935000Y-84031000D01*
X89537000Y-84031000D01*
X89537000Y-85133000D01*
G37*
G36*
X94437000Y-85133000D02*
G01*
X92835000Y-85133000D01*
X92835000Y-84031000D01*
X94437000Y-84031000D01*
X94437000Y-85133000D01*
G37*
G36*
X106375000Y-85133000D02*
G01*
X104773000Y-85133000D01*
X104773000Y-84031000D01*
X106375000Y-84031000D01*
X106375000Y-85133000D01*
G37*
G36*
X113921000Y-85133000D02*
G01*
X112319000Y-85133000D01*
X112319000Y-84031000D01*
X113921000Y-84031000D01*
X113921000Y-85133000D01*
G37*
G36*
X101475000Y-85133000D02*
G01*
X99873000Y-85133000D01*
X99873000Y-84031000D01*
X101475000Y-84031000D01*
X101475000Y-85133000D01*
G37*
G36*
X118821000Y-85133000D02*
G01*
X117219000Y-85133000D01*
X117219000Y-84031000D01*
X118821000Y-84031000D01*
X118821000Y-85133000D01*
G37*
G36*
X125605000Y-85133000D02*
G01*
X124003000Y-85133000D01*
X124003000Y-84031000D01*
X125605000Y-84031000D01*
X125605000Y-85133000D01*
G37*
G36*
X83197000Y-83959000D02*
G01*
X81395000Y-83959000D01*
X81395000Y-82157000D01*
X83197000Y-82157000D01*
X83197000Y-83959000D01*
G37*
G36*
X137553000Y-83959000D02*
G01*
X135751000Y-83959000D01*
X135751000Y-82157000D01*
X137553000Y-82157000D01*
X137553000Y-83959000D01*
G37*
G36*
X94437000Y-83533000D02*
G01*
X92835000Y-83533000D01*
X92835000Y-82431000D01*
X94437000Y-82431000D01*
X94437000Y-83533000D01*
G37*
G36*
X106375000Y-83533000D02*
G01*
X104773000Y-83533000D01*
X104773000Y-82431000D01*
X106375000Y-82431000D01*
X106375000Y-83533000D01*
G37*
G36*
X101475000Y-83533000D02*
G01*
X99873000Y-83533000D01*
X99873000Y-82431000D01*
X101475000Y-82431000D01*
X101475000Y-83533000D01*
G37*
G36*
X113921000Y-83533000D02*
G01*
X112319000Y-83533000D01*
X112319000Y-82431000D01*
X113921000Y-82431000D01*
X113921000Y-83533000D01*
G37*
G36*
X118821000Y-83533000D02*
G01*
X117219000Y-83533000D01*
X117219000Y-82431000D01*
X118821000Y-82431000D01*
X118821000Y-83533000D01*
G37*
G36*
X125605000Y-83533000D02*
G01*
X124003000Y-83533000D01*
X124003000Y-82431000D01*
X125605000Y-82431000D01*
X125605000Y-83533000D01*
G37*
G36*
X130505000Y-83533000D02*
G01*
X128903000Y-83533000D01*
X128903000Y-82431000D01*
X130505000Y-82431000D01*
X130505000Y-83533000D01*
G37*
G36*
X89537000Y-83533000D02*
G01*
X87935000Y-83533000D01*
X87935000Y-82431000D01*
X89537000Y-82431000D01*
X89537000Y-83533000D01*
G37*
G36*
X104603674Y-79771465D02*
G01*
X104641367Y-79782899D01*
X104676103Y-79801466D01*
X104706548Y-79826452D01*
X104731534Y-79856897D01*
X104750101Y-79891633D01*
X104761535Y-79929326D01*
X104766000Y-79974661D01*
X104766000Y-81061339D01*
X104761535Y-81106674D01*
X104750101Y-81144367D01*
X104731534Y-81179103D01*
X104706548Y-81209548D01*
X104676103Y-81234534D01*
X104641367Y-81253101D01*
X104603674Y-81264535D01*
X104558339Y-81269000D01*
X103721661Y-81269000D01*
X103676326Y-81264535D01*
X103638633Y-81253101D01*
X103603897Y-81234534D01*
X103573452Y-81209548D01*
X103548466Y-81179103D01*
X103529899Y-81144367D01*
X103518465Y-81106674D01*
X103514000Y-81061339D01*
X103514000Y-79974661D01*
X103518465Y-79929326D01*
X103529899Y-79891633D01*
X103548466Y-79856897D01*
X103573452Y-79826452D01*
X103603897Y-79801466D01*
X103638633Y-79782899D01*
X103676326Y-79771465D01*
X103721661Y-79767000D01*
X104558339Y-79767000D01*
X104603674Y-79771465D01*
G37*
G36*
X129005674Y-79771465D02*
G01*
X129043367Y-79782899D01*
X129078103Y-79801466D01*
X129108548Y-79826452D01*
X129133534Y-79856897D01*
X129152101Y-79891633D01*
X129163535Y-79929326D01*
X129168000Y-79974661D01*
X129168000Y-81061339D01*
X129163535Y-81106674D01*
X129152101Y-81144367D01*
X129133534Y-81179103D01*
X129108548Y-81209548D01*
X129078103Y-81234534D01*
X129043367Y-81253101D01*
X129005674Y-81264535D01*
X128960339Y-81269000D01*
X128123661Y-81269000D01*
X128078326Y-81264535D01*
X128040633Y-81253101D01*
X128005897Y-81234534D01*
X127975452Y-81209548D01*
X127950466Y-81179103D01*
X127931899Y-81144367D01*
X127920465Y-81106674D01*
X127916000Y-81061339D01*
X127916000Y-79974661D01*
X127920465Y-79929326D01*
X127931899Y-79891633D01*
X127950466Y-79856897D01*
X127975452Y-79826452D01*
X128005897Y-79801466D01*
X128040633Y-79782899D01*
X128078326Y-79771465D01*
X128123661Y-79767000D01*
X128960339Y-79767000D01*
X129005674Y-79771465D01*
G37*
G36*
X126955674Y-79771465D02*
G01*
X126993367Y-79782899D01*
X127028103Y-79801466D01*
X127058548Y-79826452D01*
X127083534Y-79856897D01*
X127102101Y-79891633D01*
X127113535Y-79929326D01*
X127118000Y-79974661D01*
X127118000Y-81061339D01*
X127113535Y-81106674D01*
X127102101Y-81144367D01*
X127083534Y-81179103D01*
X127058548Y-81209548D01*
X127028103Y-81234534D01*
X126993367Y-81253101D01*
X126955674Y-81264535D01*
X126910339Y-81269000D01*
X126073661Y-81269000D01*
X126028326Y-81264535D01*
X125990633Y-81253101D01*
X125955897Y-81234534D01*
X125925452Y-81209548D01*
X125900466Y-81179103D01*
X125881899Y-81144367D01*
X125870465Y-81106674D01*
X125866000Y-81061339D01*
X125866000Y-79974661D01*
X125870465Y-79929326D01*
X125881899Y-79891633D01*
X125900466Y-79856897D01*
X125925452Y-79826452D01*
X125955897Y-79801466D01*
X125990633Y-79782899D01*
X126028326Y-79771465D01*
X126073661Y-79767000D01*
X126910339Y-79767000D01*
X126955674Y-79771465D01*
G37*
G36*
X102553674Y-79771465D02*
G01*
X102591367Y-79782899D01*
X102626103Y-79801466D01*
X102656548Y-79826452D01*
X102681534Y-79856897D01*
X102700101Y-79891633D01*
X102711535Y-79929326D01*
X102716000Y-79974661D01*
X102716000Y-81061339D01*
X102711535Y-81106674D01*
X102700101Y-81144367D01*
X102681534Y-81179103D01*
X102656548Y-81209548D01*
X102626103Y-81234534D01*
X102591367Y-81253101D01*
X102553674Y-81264535D01*
X102508339Y-81269000D01*
X101671661Y-81269000D01*
X101626326Y-81264535D01*
X101588633Y-81253101D01*
X101553897Y-81234534D01*
X101523452Y-81209548D01*
X101498466Y-81179103D01*
X101479899Y-81144367D01*
X101468465Y-81106674D01*
X101464000Y-81061339D01*
X101464000Y-79974661D01*
X101468465Y-79929326D01*
X101479899Y-79891633D01*
X101498466Y-79856897D01*
X101523452Y-79826452D01*
X101553897Y-79801466D01*
X101588633Y-79782899D01*
X101626326Y-79771465D01*
X101671661Y-79767000D01*
X102508339Y-79767000D01*
X102553674Y-79771465D01*
G37*
G36*
X115017674Y-79771465D02*
G01*
X115055367Y-79782899D01*
X115090103Y-79801466D01*
X115120548Y-79826452D01*
X115145534Y-79856897D01*
X115164101Y-79891633D01*
X115175535Y-79929326D01*
X115180000Y-79974661D01*
X115180000Y-81061339D01*
X115175535Y-81106674D01*
X115164101Y-81144367D01*
X115145534Y-81179103D01*
X115120548Y-81209548D01*
X115090103Y-81234534D01*
X115055367Y-81253101D01*
X115017674Y-81264535D01*
X114972339Y-81269000D01*
X114135661Y-81269000D01*
X114090326Y-81264535D01*
X114052633Y-81253101D01*
X114017897Y-81234534D01*
X113987452Y-81209548D01*
X113962466Y-81179103D01*
X113943899Y-81144367D01*
X113932465Y-81106674D01*
X113928000Y-81061339D01*
X113928000Y-79974661D01*
X113932465Y-79929326D01*
X113943899Y-79891633D01*
X113962466Y-79856897D01*
X113987452Y-79826452D01*
X114017897Y-79801466D01*
X114052633Y-79782899D01*
X114090326Y-79771465D01*
X114135661Y-79767000D01*
X114972339Y-79767000D01*
X115017674Y-79771465D01*
G37*
G36*
X117067674Y-79771465D02*
G01*
X117105367Y-79782899D01*
X117140103Y-79801466D01*
X117170548Y-79826452D01*
X117195534Y-79856897D01*
X117214101Y-79891633D01*
X117225535Y-79929326D01*
X117230000Y-79974661D01*
X117230000Y-81061339D01*
X117225535Y-81106674D01*
X117214101Y-81144367D01*
X117195534Y-81179103D01*
X117170548Y-81209548D01*
X117140103Y-81234534D01*
X117105367Y-81253101D01*
X117067674Y-81264535D01*
X117022339Y-81269000D01*
X116185661Y-81269000D01*
X116140326Y-81264535D01*
X116102633Y-81253101D01*
X116067897Y-81234534D01*
X116037452Y-81209548D01*
X116012466Y-81179103D01*
X115993899Y-81144367D01*
X115982465Y-81106674D01*
X115978000Y-81061339D01*
X115978000Y-79974661D01*
X115982465Y-79929326D01*
X115993899Y-79891633D01*
X116012466Y-79856897D01*
X116037452Y-79826452D01*
X116067897Y-79801466D01*
X116102633Y-79782899D01*
X116140326Y-79771465D01*
X116185661Y-79767000D01*
X117022339Y-79767000D01*
X117067674Y-79771465D01*
G37*
G36*
X90615674Y-79771465D02*
G01*
X90653367Y-79782899D01*
X90688103Y-79801466D01*
X90718548Y-79826452D01*
X90743534Y-79856897D01*
X90762101Y-79891633D01*
X90773535Y-79929326D01*
X90778000Y-79974661D01*
X90778000Y-81061339D01*
X90773535Y-81106674D01*
X90762101Y-81144367D01*
X90743534Y-81179103D01*
X90718548Y-81209548D01*
X90688103Y-81234534D01*
X90653367Y-81253101D01*
X90615674Y-81264535D01*
X90570339Y-81269000D01*
X89733661Y-81269000D01*
X89688326Y-81264535D01*
X89650633Y-81253101D01*
X89615897Y-81234534D01*
X89585452Y-81209548D01*
X89560466Y-81179103D01*
X89541899Y-81144367D01*
X89530465Y-81106674D01*
X89526000Y-81061339D01*
X89526000Y-79974661D01*
X89530465Y-79929326D01*
X89541899Y-79891633D01*
X89560466Y-79856897D01*
X89585452Y-79826452D01*
X89615897Y-79801466D01*
X89650633Y-79782899D01*
X89688326Y-79771465D01*
X89733661Y-79767000D01*
X90570339Y-79767000D01*
X90615674Y-79771465D01*
G37*
G36*
X92665674Y-79771465D02*
G01*
X92703367Y-79782899D01*
X92738103Y-79801466D01*
X92768548Y-79826452D01*
X92793534Y-79856897D01*
X92812101Y-79891633D01*
X92823535Y-79929326D01*
X92828000Y-79974661D01*
X92828000Y-81061339D01*
X92823535Y-81106674D01*
X92812101Y-81144367D01*
X92793534Y-81179103D01*
X92768548Y-81209548D01*
X92738103Y-81234534D01*
X92703367Y-81253101D01*
X92665674Y-81264535D01*
X92620339Y-81269000D01*
X91783661Y-81269000D01*
X91738326Y-81264535D01*
X91700633Y-81253101D01*
X91665897Y-81234534D01*
X91635452Y-81209548D01*
X91610466Y-81179103D01*
X91591899Y-81144367D01*
X91580465Y-81106674D01*
X91576000Y-81061339D01*
X91576000Y-79974661D01*
X91580465Y-79929326D01*
X91591899Y-79891633D01*
X91610466Y-79856897D01*
X91635452Y-79826452D01*
X91665897Y-79801466D01*
X91700633Y-79782899D01*
X91738326Y-79771465D01*
X91783661Y-79767000D01*
X92620339Y-79767000D01*
X92665674Y-79771465D01*
G37*
G36*
X83347000Y-80553000D02*
G01*
X81245000Y-80553000D01*
X81245000Y-78451000D01*
X83347000Y-78451000D01*
X83347000Y-80553000D01*
G37*
G36*
X137703000Y-80553000D02*
G01*
X135601000Y-80553000D01*
X135601000Y-78451000D01*
X137703000Y-78451000D01*
X137703000Y-80553000D01*
G37*
M02*
