G04 #@! TF.GenerationSoftware,KiCad,Pcbnew,(5.1.6)-1*
G04 #@! TF.CreationDate,2020-10-12T10:35:01+03:00*
G04 #@! TF.ProjectId,ws2813_plate,77733238-3133-45f7-906c-6174652e6b69,rev?*
G04 #@! TF.SameCoordinates,Original*
G04 #@! TF.FileFunction,Paste,Top*
G04 #@! TF.FilePolarity,Positive*
%FSLAX46Y46*%
G04 Gerber Fmt 4.6, Leading zero omitted, Abs format (unit mm)*
G04 Created by KiCad (PCBNEW (5.1.6)-1) date 2020-10-12 10:35:01*
%MOMM*%
%LPD*%
G01*
G04 APERTURE LIST*
%ADD10R,1.500000X1.000000*%
G04 APERTURE END LIST*
G36*
G01*
X117179000Y-80067999D02*
X117179000Y-80968001D01*
G75*
G02*
X116929001Y-81218000I-249999J0D01*
G01*
X116278999Y-81218000D01*
G75*
G02*
X116029000Y-80968001I0J249999D01*
G01*
X116029000Y-80067999D01*
G75*
G02*
X116278999Y-79818000I249999J0D01*
G01*
X116929001Y-79818000D01*
G75*
G02*
X117179000Y-80067999I0J-249999D01*
G01*
G37*
G36*
G01*
X115129000Y-80067999D02*
X115129000Y-80968001D01*
G75*
G02*
X114879001Y-81218000I-249999J0D01*
G01*
X114228999Y-81218000D01*
G75*
G02*
X113979000Y-80968001I0J249999D01*
G01*
X113979000Y-80067999D01*
G75*
G02*
X114228999Y-79818000I249999J0D01*
G01*
X114879001Y-79818000D01*
G75*
G02*
X115129000Y-80067999I0J-249999D01*
G01*
G37*
G36*
G01*
X92777000Y-80067999D02*
X92777000Y-80968001D01*
G75*
G02*
X92527001Y-81218000I-249999J0D01*
G01*
X91876999Y-81218000D01*
G75*
G02*
X91627000Y-80968001I0J249999D01*
G01*
X91627000Y-80067999D01*
G75*
G02*
X91876999Y-79818000I249999J0D01*
G01*
X92527001Y-79818000D01*
G75*
G02*
X92777000Y-80067999I0J-249999D01*
G01*
G37*
G36*
G01*
X90727000Y-80067999D02*
X90727000Y-80968001D01*
G75*
G02*
X90477001Y-81218000I-249999J0D01*
G01*
X89826999Y-81218000D01*
G75*
G02*
X89577000Y-80968001I0J249999D01*
G01*
X89577000Y-80067999D01*
G75*
G02*
X89826999Y-79818000I249999J0D01*
G01*
X90477001Y-79818000D01*
G75*
G02*
X90727000Y-80067999I0J-249999D01*
G01*
G37*
G36*
G01*
X102665000Y-80067999D02*
X102665000Y-80968001D01*
G75*
G02*
X102415001Y-81218000I-249999J0D01*
G01*
X101764999Y-81218000D01*
G75*
G02*
X101515000Y-80968001I0J249999D01*
G01*
X101515000Y-80067999D01*
G75*
G02*
X101764999Y-79818000I249999J0D01*
G01*
X102415001Y-79818000D01*
G75*
G02*
X102665000Y-80067999I0J-249999D01*
G01*
G37*
G36*
G01*
X104715000Y-80067999D02*
X104715000Y-80968001D01*
G75*
G02*
X104465001Y-81218000I-249999J0D01*
G01*
X103814999Y-81218000D01*
G75*
G02*
X103565000Y-80968001I0J249999D01*
G01*
X103565000Y-80067999D01*
G75*
G02*
X103814999Y-79818000I249999J0D01*
G01*
X104465001Y-79818000D01*
G75*
G02*
X104715000Y-80067999I0J-249999D01*
G01*
G37*
G36*
G01*
X127067000Y-80067999D02*
X127067000Y-80968001D01*
G75*
G02*
X126817001Y-81218000I-249999J0D01*
G01*
X126166999Y-81218000D01*
G75*
G02*
X125917000Y-80968001I0J249999D01*
G01*
X125917000Y-80067999D01*
G75*
G02*
X126166999Y-79818000I249999J0D01*
G01*
X126817001Y-79818000D01*
G75*
G02*
X127067000Y-80067999I0J-249999D01*
G01*
G37*
G36*
G01*
X129117000Y-80067999D02*
X129117000Y-80968001D01*
G75*
G02*
X128867001Y-81218000I-249999J0D01*
G01*
X128216999Y-81218000D01*
G75*
G02*
X127967000Y-80968001I0J249999D01*
G01*
X127967000Y-80067999D01*
G75*
G02*
X128216999Y-79818000I249999J0D01*
G01*
X128867001Y-79818000D01*
G75*
G02*
X129117000Y-80067999I0J-249999D01*
G01*
G37*
D10*
X88736000Y-82982000D03*
X88736000Y-84582000D03*
X88736000Y-86182000D03*
X93636000Y-82982000D03*
X93636000Y-84582000D03*
X93636000Y-86182000D03*
X105574000Y-86182000D03*
X105574000Y-84582000D03*
X105574000Y-82982000D03*
X100674000Y-86182000D03*
X100674000Y-84582000D03*
X100674000Y-82982000D03*
X113120000Y-82982000D03*
X113120000Y-84582000D03*
X113120000Y-86182000D03*
X118020000Y-82982000D03*
X118020000Y-84582000D03*
X118020000Y-86182000D03*
X129704000Y-86182000D03*
X129704000Y-84582000D03*
X129704000Y-82982000D03*
X124804000Y-86182000D03*
X124804000Y-84582000D03*
X124804000Y-82982000D03*
M02*
